{"glyphs":{"0":{"ha":833,"x_min":56,"x_max":778,"o":"m 415 -14 q 215 45 294 -14 q 95 218 135 104 q 56 494 56 332 q 92 777 56 664 q 208 948 129 890 q 415 1006 288 1006 q 618 947 538 1006 q 738 774 699 888 q 778 494 778 660 q 760 288 778 382 q 701 127 742 194 q 590 23 660 60 q 415 -14 519 -14 m 279 135 l 174 249 l 535 843 l 639 717 l 279 135 m 415 192 q 532 265 501 192 q 563 494 563 339 q 549 665 563 597 q 504 767 536 733 q 415 801 472 801 q 327 767 360 801 q 281 665 294 733 q 268 494 268 597 q 299 266 268 340 q 415 192 331 192 z "},"1":{"ha":833,"x_min":56,"x_max":750,"o":"m 318 507 q 318 573 318 529 q 319 663 318 617 q 321 740 319 710 q 276 711 296 724 q 238 688 257 699 l 153 642 l 56 826 l 344 992 l 563 992 l 563 0 l 318 0 l 318 507 m 131 0 l 131 181 l 319 197 l 563 197 l 750 181 l 750 0 l 131 0 z "},"2":{"ha":833,"x_min":56,"x_max":785,"o":"m 65 0 l 65 171 l 272 368 q 418 509 363 454 q 499 606 474 564 q 525 693 525 647 q 492 775 525 750 q 403 800 458 800 q 292 771 342 800 q 185 683 243 742 l 56 846 q 169 937 113 901 q 287 989 225 972 q 419 1006 349 1006 q 603 973 521 1006 q 735 874 686 940 q 783 707 783 807 q 762 594 783 649 q 688 479 740 540 q 544 338 636 418 l 404 215 l 404 208 l 785 208 l 785 0 l 65 0 z "},"3":{"ha":833,"x_min":83,"x_max":750,"o":"m 356 -12 q 224 0 293 -12 q 86 39 156 13 l 86 246 q 223 198 151 215 q 350 181 294 181 q 467 212 428 181 q 506 297 506 243 q 485 356 506 333 q 413 390 464 379 q 268 401 361 401 l 213 401 l 213 599 l 269 599 q 404 610 356 599 q 474 647 453 622 q 494 710 494 672 q 464 783 494 763 q 386 804 433 804 q 281 786 336 804 q 182 742 226 768 l 83 910 q 231 980 149 954 q 408 1006 313 1006 q 576 978 507 1006 q 683 896 646 950 q 719 763 719 842 q 694 646 719 694 q 631 565 669 597 q 549 514 592 533 l 549 510 q 649 474 603 500 q 722 403 694 449 q 750 289 750 358 q 700 132 750 200 q 562 26 650 64 q 356 -12 474 -12 z "},"4":{"ha":833,"x_min":42,"x_max":792,"o":"m 438 0 l 438 197 l 42 197 l 42 383 l 440 992 l 668 992 l 668 388 l 792 388 l 792 197 l 668 197 l 668 0 l 438 0 m 250 388 l 438 388 l 438 522 q 438 550 438 533 q 438 587 438 567 q 438 631 438 607 q 439 678 439 654 l 432 678 q 397 619 415 647 q 365 569 379 592 l 250 388 z "},"5":{"ha":833,"x_min":76,"x_max":756,"o":"m 349 -14 q 206 -1 276 -14 q 76 39 136 13 l 76 254 q 199 211 132 231 q 343 192 265 192 q 458 225 415 192 q 500 322 500 258 q 481 390 500 363 q 424 433 461 418 q 333 449 388 449 q 255 442 297 449 q 178 425 213 436 l 92 474 l 125 992 l 696 992 l 696 783 l 364 783 l 353 638 q 415 647 388 644 q 469 650 443 650 q 626 612 563 650 q 723 504 690 574 q 756 340 756 435 q 706 144 756 224 q 565 26 656 65 q 349 -14 474 -14 z "},"6":{"ha":833,"x_min":63,"x_max":769,"o":"m 429 -14 q 281 14 349 -14 q 165 96 214 42 q 89 231 115 150 q 63 419 63 313 q 83 633 63 529 q 156 822 104 738 q 302 956 208 906 q 542 1006 396 1006 q 623 1003 578 1006 q 707 994 668 1000 l 707 792 q 637 801 672 799 q 569 804 601 804 q 456 788 506 804 q 372 740 407 772 q 319 659 338 707 q 296 546 300 611 l 303 546 q 349 608 319 582 q 417 647 378 633 q 503 661 456 661 q 697 576 625 661 q 769 339 769 492 q 726 151 769 231 q 607 29 683 72 q 429 -14 531 -14 m 424 193 q 493 225 465 193 q 521 326 521 257 q 499 426 521 392 q 426 461 478 461 q 365 442 389 461 q 328 392 340 424 q 315 324 315 361 q 320 278 315 299 q 334 242 325 258 q 356 215 343 226 q 387 199 369 204 q 424 193 404 193 z "},"7":{"ha":833,"x_min":56,"x_max":778,"o":"m 165 0 l 518 783 l 56 783 l 56 992 l 778 992 l 778 832 l 426 0 l 165 0 z "},"8":{"ha":833,"x_min":68,"x_max":763,"o":"m 408 -14 q 219 19 294 -14 q 106 115 143 53 q 68 261 68 176 q 89 369 68 322 q 149 452 110 415 q 240 518 188 489 q 165 588 197 550 q 117 669 133 625 q 100 765 100 713 q 138 898 100 844 q 247 978 175 951 q 417 1006 318 1006 q 590 978 517 1006 q 703 897 663 951 q 743 764 743 843 q 696 620 743 679 q 563 521 649 561 q 669 449 624 488 q 738 364 714 411 q 763 254 763 317 q 723 115 763 175 q 605 20 683 54 q 408 -14 526 -14 m 415 175 q 499 198 465 175 q 532 264 532 221 q 514 319 532 296 q 467 362 496 342 q 406 404 439 382 q 352 365 376 386 q 314 321 328 344 q 300 269 300 297 q 329 198 300 221 q 415 175 358 175 m 415 636 q 464 668 443 653 q 497 702 485 683 q 508 744 508 721 q 481 801 508 783 q 421 818 453 818 q 356 798 381 818 q 332 744 332 778 q 342 702 332 721 q 372 668 353 683 q 415 636 390 653 z "},"9":{"ha":833,"x_min":63,"x_max":771,"o":"m 289 -14 q 208 -11 253 -14 q 124 -3 163 -8 l 124 200 q 195 191 160 194 q 261 188 231 188 q 375 203 325 188 q 460 252 425 219 q 514 333 494 285 q 538 446 533 382 l 531 446 q 484 385 514 411 q 415 344 454 358 q 331 331 376 331 q 137 415 211 331 q 63 653 63 500 q 105 841 63 763 q 224 963 147 919 q 404 1006 300 1006 q 553 978 486 1006 q 669 896 619 950 q 744 760 718 842 q 771 572 771 679 q 758 400 771 485 q 715 240 746 315 q 628 108 683 165 q 490 19 574 51 q 289 -14 407 -14 m 407 531 q 469 549 444 531 q 505 600 493 568 q 517 668 517 632 q 509 721 517 697 q 488 762 501 744 q 455 789 475 779 q 410 799 435 799 q 338 767 367 799 q 310 665 310 735 q 334 566 310 601 q 407 531 358 531 z "},"\u0000":{"ha":0,"x_min":0,"x_max":0,"o":""},"\r":{"ha":833,"x_min":0,"x_max":0,"o":""}," ":{"ha":833,"x_min":0,"x_max":0,"o":""},"!":{"ha":833,"x_min":276,"x_max":569,"o":"m 311 350 l 276 992 l 569 992 l 535 350 l 311 350 m 422 -17 q 322 14 364 -17 q 279 113 279 44 q 322 214 279 185 q 422 243 364 243 q 521 214 479 243 q 563 113 563 185 q 521 14 563 44 q 422 -17 479 -17 z "},"\"":{"ha":833,"x_min":139,"x_max":694,"o":"m 481 633 l 453 992 l 694 992 l 667 633 l 481 633 m 167 633 l 139 992 l 381 992 l 353 633 l 167 633 z "},"#":{"ha":833,"x_min":14,"x_max":819,"o":"m 114 0 l 157 265 l 14 265 l 14 431 l 185 431 l 206 558 l 53 558 l 53 728 l 233 728 l 276 992 l 449 992 l 404 728 l 503 728 l 546 992 l 718 992 l 674 728 l 819 728 l 819 558 l 647 558 l 626 431 l 782 431 l 782 265 l 600 265 l 556 0 l 383 0 l 428 265 l 328 265 l 285 0 l 114 0 m 356 431 l 454 431 l 475 558 l 376 558 l 356 431 z "},"$":{"ha":833,"x_min":97,"x_max":736,"o":"m 365 32 q 222 50 289 35 q 99 90 154 65 l 99 296 q 228 242 156 265 q 365 217 301 219 l 365 415 q 223 481 283 444 q 130 572 163 518 q 97 703 97 625 q 131 841 97 785 q 224 928 164 897 q 365 967 285 960 l 365 1056 l 478 1056 l 478 968 q 607 947 547 964 q 726 904 667 929 l 669 726 q 574 763 625 750 q 478 782 524 776 l 478 592 q 620 528 563 563 q 707 446 678 494 q 736 322 736 397 q 672 133 736 211 q 478 36 607 56 l 478 -81 l 365 -81 l 365 32 m 478 224 q 524 251 510 233 q 539 304 539 269 q 533 336 539 324 q 513 358 526 349 q 478 378 500 368 l 478 224 m 365 781 q 327 767 342 776 q 306 742 313 757 q 299 706 299 728 q 306 675 299 688 q 327 652 313 663 q 365 632 342 642 l 365 781 z "},"%":{"ha":833,"x_min":0,"x_max":833,"o":"m 65 -14 l 582 1006 l 765 1006 l 249 -14 l 65 -14 m 632 -14 q 487 47 539 -14 q 435 221 435 107 q 487 397 435 336 q 632 457 539 457 q 782 395 731 457 q 833 221 833 333 q 782 48 833 110 q 632 -14 731 -14 m 636 131 q 657 151 650 131 q 664 221 664 171 q 657 292 664 272 q 636 313 650 313 q 612 292 619 313 q 604 221 604 272 q 612 151 604 171 q 636 131 619 131 m 197 535 q 52 595 104 535 q 0 769 0 656 q 52 945 0 885 q 197 1006 104 1006 q 347 944 296 1006 q 399 769 399 882 q 347 597 399 658 q 197 535 296 535 m 200 679 q 222 699 215 679 q 229 769 229 719 q 222 841 229 821 q 200 861 215 861 q 177 841 185 861 q 169 769 169 821 q 177 699 169 719 q 200 679 185 679 z "},"&":{"ha":833,"x_min":28,"x_max":819,"o":"m 300 -14 q 152 23 213 -14 q 60 121 92 60 q 28 256 28 182 q 65 405 28 342 q 156 516 101 468 q 264 603 211 564 q 331 653 296 626 q 392 713 367 681 q 417 782 417 746 q 403 824 417 808 q 363 840 389 840 q 320 823 336 840 q 304 771 304 806 q 318 708 304 739 q 351 650 332 676 q 385 603 369 624 l 819 0 l 581 0 l 229 479 q 178 556 206 511 q 133 653 151 600 q 114 768 114 707 q 181 940 114 876 q 361 1004 247 1004 q 539 940 476 1004 q 601 774 601 876 q 568 646 601 697 q 481 553 535 594 q 363 460 426 511 q 293 399 321 426 q 252 345 265 372 q 239 286 239 318 q 263 214 239 243 q 335 185 288 185 q 419 211 379 185 q 492 281 460 238 q 549 374 525 324 q 586 472 572 424 q 601 557 600 521 l 788 557 q 760 407 783 486 q 694 253 736 328 q 592 119 651 179 q 460 22 533 58 q 300 -14 386 -14 z "},"'":{"ha":833,"x_min":296,"x_max":538,"o":"m 324 633 l 296 992 l 538 992 l 510 633 l 324 633 z "},"(":{"ha":833,"x_min":250,"x_max":653,"o":"m 438 -247 q 297 30 344 -126 q 250 367 250 186 q 298 710 250 550 q 438 992 346 871 l 653 992 q 519 701 561 860 q 476 368 476 542 q 520 44 476 200 q 653 -247 564 -111 l 438 -247 z "},")":{"ha":833,"x_min":181,"x_max":583,"o":"m 396 992 q 537 715 490 871 q 583 378 583 560 q 535 34 583 194 q 396 -247 488 -126 l 181 -247 q 315 44 272 -115 q 357 376 357 204 q 313 700 357 544 q 181 992 269 856 l 396 992 z "},"*":{"ha":833,"x_min":90,"x_max":743,"o":"m 525 417 l 414 601 l 314 419 l 156 514 l 290 690 l 90 719 l 131 896 l 340 835 l 315 1058 l 515 1058 l 492 835 l 706 899 l 743 722 l 542 690 l 678 519 l 525 417 z "},"+":{"ha":833,"x_min":97,"x_max":736,"o":"m 324 154 l 324 399 l 97 399 l 97 581 l 324 581 l 324 829 l 508 829 l 508 581 l 736 581 l 736 399 l 508 399 l 508 154 l 324 154 z "},",":{"ha":833,"x_min":256,"x_max":568,"o":"m 256 -222 q 283 -78 269 -158 q 307 78 296 1 q 324 213 318 156 l 558 213 l 568 196 q 545 103 558 158 q 515 -12 532 49 q 481 -128 499 -72 q 447 -222 464 -183 l 256 -222 z "},"-":{"ha":833,"x_min":208,"x_max":625,"o":"m 208 271 l 208 479 l 625 479 l 625 271 l 208 271 z "},".":{"ha":833,"x_min":279,"x_max":556,"o":"m 419 -10 q 321 19 363 -10 q 279 117 279 49 q 321 215 279 186 q 419 244 363 244 q 515 215 475 244 q 556 117 556 186 q 515 19 556 49 q 419 -10 475 -10 z "},"/":{"ha":833,"x_min":111,"x_max":722,"o":"m 111 -14 l 507 1006 l 722 1006 l 326 -14 l 111 -14 z "},":":{"ha":833,"x_min":279,"x_max":556,"o":"m 419 522 q 321 551 363 522 q 279 649 279 581 q 321 747 279 718 q 419 776 363 776 q 515 747 475 776 q 556 649 556 718 q 515 551 556 581 q 419 522 475 522 m 419 -10 q 321 19 363 -10 q 279 117 279 49 q 321 215 279 186 q 419 244 363 244 q 515 215 475 244 q 556 117 556 186 q 515 19 556 49 q 419 -10 475 -10 z "},";":{"ha":833,"x_min":244,"x_max":582,"o":"m 244 -224 q 272 -80 258 -160 q 296 77 285 0 q 313 211 307 154 l 547 211 l 557 194 q 534 102 547 157 q 504 -13 521 47 q 470 -129 488 -74 q 436 -224 453 -185 l 244 -224 m 443 521 q 341 551 383 521 q 299 650 299 582 q 341 751 299 722 q 443 781 383 781 q 541 751 500 781 q 582 650 582 722 q 541 551 582 582 q 443 521 500 521 z "},"<":{"ha":833,"x_min":111,"x_max":722,"o":"m 722 139 l 111 435 l 111 551 l 722 865 l 722 664 l 358 497 l 722 339 l 722 139 z "},"=":{"ha":833,"x_min":97,"x_max":736,"o":"m 97 540 l 97 735 l 736 735 l 736 540 l 97 540 m 97 217 l 97 411 l 736 411 l 736 217 l 97 217 z "},">":{"ha":833,"x_min":111,"x_max":722,"o":"m 111 139 l 111 339 l 475 497 l 111 664 l 111 865 l 722 551 l 722 435 l 111 139 z "},"?":{"ha":833,"x_min":97,"x_max":736,"o":"m 276 408 q 287 484 276 450 q 324 549 297 518 q 400 610 351 579 q 458 656 440 635 q 481 698 476 678 q 486 736 486 718 q 465 785 486 767 q 410 803 443 803 q 311 783 363 803 q 192 725 260 764 l 97 910 q 253 980 174 954 q 429 1006 333 1006 q 595 975 526 1006 q 700 889 664 944 q 736 758 736 833 q 722 660 736 706 q 676 576 708 614 q 592 503 644 538 q 537 462 557 481 q 509 425 517 443 q 501 385 501 407 l 501 350 l 276 350 l 276 408 m 390 -17 q 288 14 331 -17 q 246 113 246 44 q 288 214 246 185 q 390 243 331 243 q 488 214 447 243 q 529 113 529 185 q 488 14 529 44 q 390 -17 447 -17 z "},"@":{"ha":833,"x_min":0,"x_max":833,"o":"m 443 -122 q 205 -58 304 -122 q 53 122 106 6 q 0 399 0 239 q 31 641 0 532 q 121 828 63 750 q 260 949 179 907 q 440 992 340 992 q 647 931 558 992 q 784 763 735 871 q 833 513 833 656 q 822 378 833 443 q 785 261 810 313 q 724 180 761 210 q 636 150 686 150 q 570 169 601 150 q 522 231 539 188 l 515 231 q 457 171 489 192 q 382 150 425 150 q 251 223 297 150 q 206 413 206 296 q 234 572 206 503 q 317 682 263 642 q 451 722 372 722 q 551 709 503 722 q 633 681 599 696 l 624 415 q 623 385 624 403 q 622 358 622 367 q 628 301 622 318 q 644 283 635 283 q 672 313 660 283 q 690 392 683 343 q 697 501 697 442 q 633 758 697 663 q 444 854 569 854 q 282 797 351 854 q 174 640 213 740 q 136 407 136 539 q 170 199 136 288 q 273 61 204 110 q 447 13 342 13 q 567 26 508 13 q 686 64 626 39 l 686 -68 q 572 -108 635 -94 q 443 -122 508 -122 m 406 283 q 462 331 444 283 q 483 485 479 378 l 488 583 q 471 587 478 586 q 456 588 464 588 q 395 565 418 588 q 361 502 372 542 q 350 413 350 463 q 365 315 350 346 q 406 283 379 283 z "},"A":{"ha":833,"x_min":7,"x_max":826,"o":"m 7 0 l 257 996 l 575 996 l 826 0 l 585 0 l 465 588 q 449 668 458 624 q 433 756 440 713 q 419 829 425 799 q 407 756 415 799 q 390 668 399 713 q 372 588 381 624 l 243 0 l 7 0 m 251 204 l 281 400 l 547 400 l 571 204 l 251 204 z "},"B":{"ha":833,"x_min":83,"x_max":792,"o":"m 83 0 l 83 992 l 417 992 q 688 931 603 992 q 774 749 774 869 q 728 596 774 650 q 631 526 683 542 l 631 519 q 712 480 675 507 q 770 408 749 453 q 792 293 792 363 q 750 136 792 201 q 633 35 708 71 q 451 0 557 0 l 83 0 m 431 192 q 531 228 500 192 q 563 311 563 264 q 549 368 563 343 q 505 408 535 393 q 426 424 475 424 l 303 424 l 303 192 l 431 192 m 418 603 q 516 634 485 603 q 547 708 547 665 q 515 776 547 751 q 414 800 483 800 l 303 800 l 303 603 l 418 603 z "},"C":{"ha":833,"x_min":56,"x_max":785,"o":"m 463 -14 q 238 47 328 -14 q 101 220 147 108 q 56 483 56 332 q 88 704 56 607 q 181 869 119 801 q 328 971 242 936 q 525 1006 415 1006 q 653 992 590 1006 q 785 951 717 979 l 719 746 q 621 780 671 769 q 529 790 571 790 q 421 769 465 790 q 351 707 376 747 q 313 610 325 667 q 301 482 301 553 q 323 319 301 381 q 390 228 344 257 q 504 200 435 200 q 626 217 560 200 q 747 267 693 233 l 747 43 q 608 0 682 14 q 463 -14 535 -14 z "},"D":{"ha":833,"x_min":56,"x_max":806,"o":"m 56 0 l 56 992 l 356 992 q 599 937 499 992 q 752 776 699 882 q 806 517 806 671 q 748 233 806 349 q 585 59 690 118 q 336 0 481 0 l 56 0 m 339 201 q 506 279 451 201 q 560 507 560 357 q 537 666 560 603 q 468 760 514 729 q 354 790 422 790 l 286 790 l 286 201 l 339 201 z "},"E":{"ha":833,"x_min":83,"x_max":750,"o":"m 83 0 l 83 992 l 750 992 l 750 783 l 321 783 l 321 614 l 732 614 l 732 406 l 321 406 l 321 208 l 750 208 l 750 0 l 83 0 z "},"F":{"ha":833,"x_min":83,"x_max":750,"o":"m 83 0 l 83 992 l 750 992 l 750 783 l 321 783 l 321 576 l 733 576 l 733 368 l 321 368 l 321 0 l 83 0 z "},"G":{"ha":833,"x_min":28,"x_max":778,"o":"m 490 -14 q 229 47 332 -14 q 77 219 126 107 q 28 486 28 332 q 80 765 28 649 q 235 944 132 882 q 488 1006 338 1006 q 646 988 574 1006 q 775 943 718 969 l 703 746 q 609 783 657 769 q 511 796 561 796 q 378 762 433 796 q 296 660 324 728 q 268 493 268 593 q 291 339 268 406 q 360 235 314 272 q 479 199 407 199 q 516 201 496 199 q 560 210 536 204 l 560 388 l 444 388 l 444 581 l 778 581 l 778 46 q 630 0 699 14 q 490 -14 561 -14 z "},"H":{"ha":833,"x_min":56,"x_max":778,"o":"m 56 0 l 56 992 l 301 992 l 301 621 l 532 621 l 532 992 l 778 992 l 778 0 l 532 0 l 532 413 l 301 413 l 301 0 l 56 0 z "},"I":{"ha":833,"x_min":97,"x_max":736,"o":"m 97 0 l 97 174 l 299 196 l 299 796 l 97 818 l 97 992 l 736 992 l 736 818 l 533 796 l 533 196 l 736 174 l 736 0 l 97 0 z "},"J":{"ha":833,"x_min":90,"x_max":715,"o":"m 343 -14 q 226 -8 292 -14 q 90 10 160 -3 l 90 222 q 217 202 163 207 q 297 197 271 197 q 409 221 371 197 q 462 291 447 244 q 476 404 476 338 l 476 992 l 715 992 l 715 371 q 680 152 715 238 q 563 26 644 67 q 343 -14 482 -14 z "},"K":{"ha":833,"x_min":56,"x_max":799,"o":"m 56 0 l 56 992 l 292 992 l 292 539 q 320 599 306 571 q 350 656 335 628 l 538 992 l 799 992 l 525 549 l 796 0 l 525 0 l 357 364 l 292 306 l 292 0 l 56 0 z "},"L":{"ha":833,"x_min":104,"x_max":750,"o":"m 104 0 l 104 992 l 347 992 l 347 215 l 750 215 l 750 0 l 104 0 z "},"M":{"ha":833,"x_min":42,"x_max":792,"o":"m 42 0 l 42 992 l 354 992 l 411 428 l 415 428 l 476 992 l 792 992 l 792 0 l 585 0 l 585 222 q 588 280 585 238 q 595 381 590 322 q 605 501 600 439 q 615 621 610 564 q 622 717 619 678 q 625 765 625 756 l 619 765 l 531 219 l 300 219 l 208 767 l 203 767 q 206 717 203 757 q 214 621 208 678 q 224 501 219 564 q 235 380 229 438 q 243 279 240 322 q 246 221 246 236 l 246 0 l 42 0 z "},"N":{"ha":833,"x_min":56,"x_max":778,"o":"m 56 0 l 56 992 l 385 992 l 572 218 l 578 218 q 570 307 574 265 q 565 385 567 349 q 561 456 563 422 q 560 522 560 489 l 560 992 l 778 992 l 778 0 l 457 0 l 264 767 l 258 767 q 267 649 264 696 q 271 569 269 601 q 273 511 272 538 q 274 456 274 485 l 274 0 l 56 0 z "},"O":{"ha":833,"x_min":28,"x_max":806,"o":"m 417 -14 q 243 19 317 -14 q 122 118 169 53 q 51 278 75 183 q 28 497 28 374 q 70 777 28 664 q 199 949 113 890 q 417 1007 285 1007 q 590 973 517 1007 q 712 874 664 939 q 783 713 760 808 q 806 496 806 618 q 783 280 806 375 q 713 119 760 185 q 592 20 665 54 q 417 -14 518 -14 m 417 194 q 500 226 469 194 q 544 326 531 258 q 557 500 557 394 q 527 725 557 653 q 417 797 497 797 q 335 767 365 797 q 290 672 304 738 q 276 497 276 606 q 290 323 276 390 q 334 225 303 256 q 417 194 365 194 z "},"P":{"ha":833,"x_min":83,"x_max":792,"o":"m 83 0 l 83 992 l 450 992 q 706 910 621 992 q 792 675 792 828 q 757 503 792 582 q 646 376 722 424 q 443 329 569 329 l 313 329 l 313 0 l 83 0 m 415 531 q 487 547 457 531 q 533 594 517 563 q 549 672 549 626 q 519 758 549 725 q 419 790 489 790 l 313 790 l 313 531 l 415 531 z "},"Q":{"ha":833,"x_min":28,"x_max":806,"o":"m 547 -250 l 417 38 l 613 129 l 806 -250 l 547 -250 m 417 -14 q 243 19 317 -14 q 122 118 169 53 q 51 278 75 183 q 28 497 28 374 q 70 777 28 664 q 199 949 113 890 q 417 1007 285 1007 q 590 973 517 1007 q 712 874 664 939 q 783 713 760 808 q 806 496 806 618 q 783 280 806 375 q 713 119 760 185 q 592 20 665 54 q 417 -14 518 -14 m 417 194 q 500 226 469 194 q 544 326 531 258 q 557 500 557 394 q 527 725 557 653 q 417 797 497 797 q 335 767 365 797 q 290 672 304 738 q 276 497 276 606 q 290 323 276 390 q 334 225 303 256 q 417 194 365 194 z "},"R":{"ha":833,"x_min":83,"x_max":826,"o":"m 83 0 l 83 992 l 396 992 q 599 959 519 992 q 719 863 679 926 q 758 704 758 799 q 742 592 758 642 q 691 503 725 543 q 607 432 657 464 l 826 0 l 568 0 l 408 358 l 311 358 l 311 0 l 83 0 m 394 560 q 463 572 432 560 q 511 611 493 585 q 529 681 529 638 q 498 761 529 732 q 401 790 467 790 l 311 790 l 311 560 l 394 560 z "},"S":{"ha":833,"x_min":83,"x_max":769,"o":"m 382 -14 q 235 0 304 -14 q 83 49 165 14 l 83 282 q 246 213 169 232 q 389 194 322 194 q 458 201 429 194 q 503 225 488 208 q 519 272 519 242 q 499 327 519 307 q 435 369 478 347 q 328 426 393 390 q 202 510 253 469 q 126 604 151 551 q 101 733 101 657 q 135 881 101 819 q 244 974 169 942 q 442 1007 319 1007 q 622 987 543 1007 q 765 935 701 967 l 689 742 q 568 785 625 774 q 465 797 511 797 q 406 790 432 797 q 365 767 379 783 q 350 721 350 751 q 365 677 350 696 q 420 635 379 658 q 538 571 461 611 q 653 502 600 539 q 738 412 706 465 q 769 275 769 358 q 751 168 769 219 q 690 76 733 117 q 571 10 646 35 q 382 -14 496 -14 z "},"T":{"ha":833,"x_min":28,"x_max":806,"o":"m 294 0 l 294 783 l 28 783 l 28 992 l 806 992 l 806 783 l 538 783 l 538 0 l 294 0 z "},"U":{"ha":833,"x_min":56,"x_max":778,"o":"m 417 -14 q 224 29 306 -14 q 99 156 143 72 q 56 360 56 239 l 56 992 l 299 992 l 299 379 q 311 274 299 313 q 349 218 324 235 q 413 201 374 201 q 478 218 451 201 q 520 274 506 235 q 535 381 535 313 l 535 992 l 778 992 l 778 365 q 736 163 778 247 q 614 32 694 78 q 417 -14 533 -14 z "},"V":{"ha":833,"x_min":7,"x_max":826,"o":"m 258 0 l 7 992 l 250 992 l 375 414 q 390 347 382 386 q 406 267 397 307 q 418 194 414 226 l 425 194 q 438 267 431 226 q 451 348 444 308 q 464 414 458 388 l 583 992 l 826 992 l 576 0 l 258 0 z "},"W":{"ha":833,"x_min":7,"x_max":826,"o":"m 57 0 l 7 992 l 206 992 q 219 785 214 864 q 227 658 224 706 q 231 576 231 610 q 232 506 232 543 q 232 453 232 481 q 231 395 232 425 q 231 333 231 365 q 230 266 231 300 q 229 196 229 232 l 236 196 q 244 274 239 226 q 257 373 250 321 q 271 472 264 425 q 282 549 278 518 l 314 767 l 519 767 l 547 547 q 556 469 551 517 q 567 371 561 422 q 579 272 574 319 q 589 194 585 225 l 596 194 q 596 272 596 235 q 595 342 596 308 q 594 406 594 375 q 593 466 593 438 q 593 521 593 494 q 594 588 593 558 q 596 650 594 618 q 600 725 597 682 q 608 833 603 768 q 618 992 613 897 l 826 992 l 771 0 l 475 0 l 451 199 q 440 298 447 239 q 427 417 433 357 q 417 515 421 476 l 413 515 q 403 417 410 476 q 391 298 397 357 q 381 199 385 239 l 361 0 l 57 0 z "},"X":{"ha":833,"x_min":21,"x_max":813,"o":"m 21 0 l 299 510 l 40 992 l 292 992 l 415 742 l 533 992 l 789 992 l 533 514 l 813 0 l 553 0 l 415 283 l 274 0 l 21 0 z "},"Y":{"ha":833,"x_min":21,"x_max":813,"o":"m 296 0 l 296 383 l 21 992 l 276 992 l 419 639 l 560 992 l 813 992 l 539 383 l 539 0 l 296 0 z "},"Z":{"ha":833,"x_min":83,"x_max":764,"o":"m 83 0 l 83 165 l 489 790 l 106 790 l 106 992 l 754 992 l 754 826 l 361 208 l 764 208 l 764 0 l 83 0 z "},"[":{"ha":833,"x_min":306,"x_max":660,"o":"m 306 -233 l 306 1019 l 660 1019 l 660 847 l 518 847 l 518 -61 l 660 -61 l 660 -233 l 306 -233 z "},"\\":{"ha":833,"x_min":111,"x_max":722,"o":"m 722 -14 l 507 -14 l 111 1006 l 326 1006 l 722 -14 z "},"]":{"ha":833,"x_min":174,"x_max":528,"o":"m 528 1019 l 528 -233 l 174 -233 l 174 -61 l 315 -61 l 315 847 l 174 847 l 174 1019 l 528 1019 z "},"^":{"ha":833,"x_min":42,"x_max":792,"o":"m 42 339 l 347 994 l 463 994 l 792 339 l 590 339 l 408 710 l 240 339 l 42 339 z "},"_":{"ha":833,"x_min":0,"x_max":833,"o":"m 0 -253 l 0 -58 l 833 -58 l 833 -253 l 0 -253 z "},"`":{"ha":833,"x_min":208,"x_max":624,"o":"m 453 842 q 397 886 431 858 q 328 944 364 914 q 260 1003 292 975 q 208 1050 228 1032 l 208 1064 l 481 1064 q 526 996 499 1035 q 580 921 553 957 q 624 861 607 885 l 624 842 l 453 842 z "},"a":{"ha":833,"x_min":56,"x_max":757,"o":"m 315 -14 q 119 54 183 -14 q 56 229 56 122 q 95 372 56 318 q 205 451 135 425 q 367 481 275 478 l 526 486 l 526 513 q 497 573 526 553 q 401 593 468 593 q 300 583 357 593 q 186 546 243 572 l 113 713 q 265 765 186 749 q 426 782 343 782 q 677 717 597 782 q 757 524 757 653 l 757 0 l 576 0 l 550 92 l 544 92 q 462 21 506 43 q 380 -8 418 -1 q 315 -14 342 -14 m 376 174 q 449 188 415 174 q 505 230 483 201 q 526 301 526 258 l 526 339 l 446 338 q 353 328 390 338 q 299 301 317 319 q 281 249 281 282 q 305 192 281 211 q 376 174 329 174 z "},"b":{"ha":833,"x_min":63,"x_max":792,"o":"m 507 -14 q 399 6 453 -14 q 301 78 346 26 l 285 78 l 243 0 l 63 0 l 63 1056 l 301 1056 l 301 815 q 299 763 301 801 q 292 667 296 725 l 301 667 q 398 755 342 728 q 517 782 454 782 q 647 749 594 782 q 732 658 700 715 q 778 531 764 601 q 792 388 792 461 q 776 239 792 311 q 728 110 761 167 q 640 19 694 53 q 507 -14 586 -14 m 421 181 q 515 231 482 181 q 549 388 549 281 q 517 538 549 490 q 422 586 485 586 q 333 542 365 586 q 301 386 301 497 q 335 225 301 269 q 421 181 368 181 z "},"c":{"ha":833,"x_min":83,"x_max":736,"o":"m 454 -14 q 247 31 329 -14 q 124 162 165 75 q 83 375 83 249 q 124 591 83 500 q 248 732 164 682 q 465 782 332 782 q 604 767 535 782 q 736 722 674 753 l 664 544 q 560 578 600 569 q 483 586 519 586 q 393 564 429 586 q 338 498 357 542 q 319 389 319 454 q 342 268 319 314 q 403 201 364 222 q 490 181 442 181 q 589 194 531 181 q 707 251 647 208 l 707 44 q 583 0 647 14 q 454 -14 519 -14 z "},"d":{"ha":833,"x_min":42,"x_max":771,"o":"m 314 -14 q 185 19 238 -14 q 101 109 133 53 q 56 236 69 165 q 42 383 42 307 q 71 581 42 490 q 163 727 100 672 q 326 782 225 782 q 408 770 368 782 q 482 733 447 758 q 544 667 517 708 l 550 667 q 539 740 543 711 q 533 792 535 769 q 532 842 532 815 l 532 1056 l 771 1056 l 771 0 l 590 0 l 543 97 l 532 97 q 469 33 504 58 q 394 -3 433 8 q 314 -14 356 -14 m 418 181 q 523 231 493 181 q 553 360 553 281 l 553 379 q 542 488 553 442 q 504 560 532 535 q 424 586 476 586 q 322 532 357 586 q 286 378 286 478 q 322 227 286 274 q 418 181 358 181 z "},"e":{"ha":833,"x_min":56,"x_max":776,"o":"m 467 -14 q 239 33 331 -14 q 101 169 147 81 q 56 385 56 258 q 97 595 56 506 q 222 733 139 685 q 425 782 304 782 q 616 737 538 782 q 735 610 694 692 q 776 414 776 528 l 776 308 l 283 308 q 316 233 288 263 q 393 188 344 203 q 503 172 442 172 q 629 188 565 172 q 747 236 693 203 l 747 42 q 603 -2 678 10 q 467 -14 528 -14 m 556 471 q 539 543 556 513 q 493 590 522 574 q 424 607 464 607 q 326 568 360 607 q 288 471 293 529 l 556 471 z "},"f":{"ha":833,"x_min":61,"x_max":819,"o":"m 274 0 l 274 574 l 61 574 l 61 706 l 274 767 l 274 807 q 310 943 274 886 q 420 1031 346 1000 q 608 1063 494 1063 q 706 1056 654 1063 q 819 1029 757 1049 l 764 842 q 688 860 724 857 q 631 864 651 864 q 542 844 568 864 q 517 778 517 824 l 517 768 l 747 768 l 747 574 l 517 574 l 517 0 l 274 0 z "},"g":{"ha":833,"x_min":42,"x_max":771,"o":"m 347 -340 q 225 -332 290 -340 q 88 -297 160 -324 l 88 -94 q 229 -136 167 -124 q 347 -149 292 -149 q 490 -115 440 -149 q 539 -3 539 -81 l 539 4 q 539 50 539 31 q 539 93 539 69 l 533 93 q 442 8 493 29 q 331 -14 392 -14 q 117 90 193 -14 q 42 382 42 193 q 122 681 42 581 q 328 782 203 782 q 445 754 393 782 q 538 669 497 726 l 542 669 l 597 767 l 771 767 l 771 35 q 728 -172 771 -89 q 592 -298 685 -256 q 347 -340 499 -340 m 419 181 q 478 192 453 181 q 519 226 503 204 q 542 282 535 249 q 550 357 550 315 l 550 379 q 537 493 550 447 q 494 563 524 539 q 417 586 465 586 q 317 535 351 586 q 282 378 282 485 q 315 234 282 288 q 419 181 347 181 z "},"h":{"ha":833,"x_min":63,"x_max":778,"o":"m 63 0 l 63 1056 l 306 1056 l 306 896 q 301 783 306 839 q 293 671 296 728 l 307 671 q 362 733 332 708 q 430 770 392 758 q 518 782 468 782 q 714 706 650 782 q 778 499 778 629 l 778 0 l 535 0 l 535 418 q 513 543 535 500 q 428 586 490 586 q 360 564 388 586 q 319 487 332 542 q 306 335 306 432 l 306 0 l 63 0 z "},"i":{"ha":833,"x_min":56,"x_max":778,"o":"m 56 0 l 56 172 l 314 194 l 314 574 l 115 593 l 115 768 l 557 768 l 557 194 l 778 172 l 778 0 l 56 0 m 435 835 q 326 866 364 835 q 289 958 289 897 q 325 1048 289 1017 q 435 1079 361 1079 q 543 1048 508 1079 q 578 958 578 1017 q 544 868 578 901 q 435 835 510 835 z "},"j":{"ha":833,"x_min":42,"x_max":629,"o":"m 288 -340 q 169 -332 232 -340 q 42 -306 106 -324 l 42 -115 q 116 -131 79 -125 q 185 -139 153 -136 q 239 -142 217 -142 q 324 -126 294 -142 q 365 -70 353 -110 q 376 39 376 -31 l 376 574 l 139 592 l 139 768 l 619 768 l 619 -17 q 544 -260 619 -179 q 288 -340 469 -340 m 486 835 q 378 866 415 835 q 340 958 340 897 q 376 1048 340 1017 q 486 1079 413 1079 q 594 1048 560 1079 q 629 958 629 1017 q 595 868 629 901 q 486 835 561 835 z "},"k":{"ha":833,"x_min":56,"x_max":826,"o":"m 56 0 l 56 1056 l 299 1056 l 299 639 q 297 563 299 606 q 293 478 296 521 q 286 403 290 436 l 292 403 q 338 474 317 440 q 390 550 360 507 l 544 768 l 814 768 l 581 457 l 826 0 l 558 0 l 415 292 l 299 194 l 299 0 l 56 0 z "},"l":{"ha":833,"x_min":56,"x_max":778,"o":"m 56 0 l 56 169 l 314 194 l 314 861 l 110 879 l 110 1056 l 557 1056 l 557 194 l 778 169 l 778 0 l 56 0 z "},"m":{"ha":833,"x_min":28,"x_max":806,"o":"m 28 0 l 28 768 l 193 768 l 217 668 l 231 668 q 263 731 243 706 q 310 769 282 757 q 375 782 338 782 q 469 747 440 782 q 506 651 499 711 l 514 651 q 575 747 542 711 q 671 782 608 782 q 760 747 732 782 q 797 649 789 713 q 806 497 806 585 l 806 0 l 601 0 l 601 493 q 597 548 601 528 q 585 577 593 568 q 561 586 576 586 q 532 574 542 586 q 519 540 522 561 q 515 492 515 518 l 515 0 l 318 0 l 318 493 q 315 548 318 528 q 303 577 311 568 q 279 586 294 586 q 249 574 260 586 q 235 540 239 561 q 232 493 232 519 l 232 0 l 28 0 z "},"n":{"ha":833,"x_min":63,"x_max":778,"o":"m 63 0 l 63 768 l 243 768 l 275 671 l 289 671 q 345 731 313 707 q 422 769 378 756 q 519 782 465 782 q 715 708 653 782 q 778 499 778 633 l 778 0 l 535 0 l 535 418 q 510 547 535 508 q 432 586 485 586 q 333 520 360 586 q 306 335 306 454 l 306 0 l 63 0 z "},"o":{"ha":833,"x_min":42,"x_max":792,"o":"m 424 -14 q 258 15 329 -14 q 138 98 186 44 q 66 226 90 151 q 42 390 42 300 q 82 592 42 504 q 203 731 122 681 q 408 782 285 782 q 615 732 529 782 q 747 590 701 682 q 792 374 792 499 q 769 216 792 288 q 700 93 746 144 q 585 14 654 42 q 424 -14 517 -14 m 417 181 q 497 206 467 181 q 542 277 528 232 q 557 382 557 322 q 542 489 557 443 q 497 560 528 535 q 417 586 465 586 q 310 527 342 586 q 278 382 278 468 q 292 276 278 321 q 338 206 307 231 q 417 181 369 181 z "},"p":{"ha":833,"x_min":63,"x_max":792,"o":"m 63 -333 l 63 768 l 236 768 l 289 668 l 301 668 q 361 735 328 710 q 434 771 394 760 q 515 782 474 782 q 647 749 593 782 q 732 661 700 717 q 778 536 764 606 q 792 393 792 467 q 758 181 792 272 q 660 38 725 89 q 503 -14 596 -14 q 433 -5 468 -14 q 364 24 397 4 q 301 78 331 43 l 289 78 q 297 20 292 60 q 301 -46 301 -19 l 301 -333 l 63 -333 m 428 181 q 519 234 490 181 q 549 388 549 288 q 520 536 549 486 q 426 586 492 586 q 334 542 367 586 q 301 406 301 497 l 301 386 q 336 230 301 279 q 428 181 371 181 z "},"q":{"ha":833,"x_min":42,"x_max":771,"o":"m 532 -15 q 533 9 532 -3 q 535 40 533 21 q 540 97 536 60 l 532 97 q 438 12 497 38 q 317 -14 379 -14 q 188 19 240 -14 q 103 109 135 53 q 56 236 71 165 q 42 383 42 307 q 56 528 42 457 q 101 656 69 599 q 188 748 133 714 q 325 782 243 782 q 440 759 382 782 q 544 671 499 736 l 550 671 l 597 768 l 771 768 l 771 -333 l 532 -333 l 532 -15 m 413 181 q 519 232 488 181 q 550 356 550 283 l 550 379 q 516 536 550 486 q 415 586 482 586 q 318 535 351 586 q 285 379 285 485 q 315 231 285 281 q 413 181 346 181 z "},"r":{"ha":833,"x_min":42,"x_max":814,"o":"m 42 0 l 42 172 l 244 194 l 244 574 l 74 593 l 74 768 l 411 768 l 449 643 l 460 643 q 537 742 483 703 q 667 782 590 782 q 723 779 686 782 q 814 761 760 776 l 757 532 q 698 547 733 543 q 642 551 663 551 q 551 529 590 551 q 489 461 511 507 q 467 342 467 415 l 467 194 l 681 172 l 681 0 l 42 0 z "},"s":{"ha":833,"x_min":97,"x_max":728,"o":"m 365 -14 q 231 -3 299 -14 q 97 29 163 7 l 97 243 q 244 191 172 208 q 378 174 315 174 q 456 184 422 174 q 490 222 490 194 q 467 260 490 246 q 402 288 443 274 q 307 324 361 301 q 198 382 242 351 q 133 453 154 413 q 111 550 111 493 q 150 681 111 629 q 262 757 189 732 q 435 782 335 782 q 574 769 504 782 q 722 724 644 756 l 646 542 q 538 583 590 571 q 442 594 485 594 q 373 584 399 594 q 347 550 347 574 q 363 522 347 533 q 416 499 379 511 q 515 461 453 486 q 633 406 586 435 q 704 338 681 378 q 728 238 728 299 q 691 107 728 164 q 574 18 654 50 q 365 -14 494 -14 z "},"t":{"ha":833,"x_min":33,"x_max":736,"o":"m 514 -14 q 341 19 404 -14 q 251 119 278 53 q 225 283 225 186 l 225 574 l 33 574 l 33 692 l 250 767 l 288 940 l 468 940 l 468 768 l 733 768 l 733 574 l 468 574 l 468 319 q 489 229 468 257 q 538 194 510 201 q 585 188 565 188 q 652 194 619 188 q 736 218 685 200 l 736 25 q 622 -5 675 4 q 514 -14 568 -14 z "},"u":{"ha":833,"x_min":56,"x_max":771,"o":"m 314 -15 q 117 59 179 -15 q 56 268 56 133 l 56 768 l 299 768 l 299 343 q 324 222 299 263 q 408 181 349 181 q 485 208 460 181 q 519 281 511 235 q 528 383 528 328 l 528 768 l 771 768 l 771 0 l 590 0 l 558 96 l 544 96 q 488 35 521 60 q 413 -3 456 10 q 314 -15 369 -15 z "},"v":{"ha":833,"x_min":14,"x_max":819,"o":"m 281 0 l 14 768 l 271 768 l 386 329 q 402 268 397 289 q 414 211 407 247 l 418 211 q 431 268 425 247 q 446 329 436 289 l 563 768 l 819 768 l 543 0 l 281 0 z "},"w":{"ha":833,"x_min":0,"x_max":833,"o":"m 89 0 l 0 768 l 215 768 l 229 393 q 231 336 231 369 q 231 269 231 303 q 232 213 232 236 l 240 213 q 244 258 242 235 q 251 306 247 282 q 260 354 256 331 l 322 674 l 517 674 l 574 354 q 582 305 579 328 q 588 260 585 282 q 593 213 590 238 l 601 213 q 603 269 603 238 q 603 333 603 300 q 606 390 604 365 l 624 768 l 833 768 l 744 0 l 476 0 l 442 231 q 428 333 435 282 q 419 428 422 385 l 411 428 q 401 333 408 385 q 386 231 394 282 l 350 0 l 89 0 z "},"x":{"ha":833,"x_min":14,"x_max":819,"o":"m 14 0 l 247 392 l 25 768 l 304 768 l 414 561 l 531 768 l 808 768 l 578 390 l 819 0 l 539 0 l 411 221 l 296 0 l 14 0 z "},"y":{"ha":833,"x_min":14,"x_max":819,"o":"m 174 -340 q 122 -337 149 -340 q 67 -329 96 -335 l 67 -144 q 105 -151 86 -149 q 140 -153 124 -153 q 216 -140 183 -153 q 272 -101 249 -126 q 308 -37 296 -75 l 325 10 l 14 768 l 275 768 l 404 364 q 420 308 413 338 q 435 238 428 279 l 439 238 q 447 288 443 263 q 456 334 451 313 q 464 365 461 356 l 571 768 l 819 768 l 526 -76 q 451 -222 497 -162 q 336 -310 404 -281 q 174 -340 268 -340 z "},"z":{"ha":833,"x_min":76,"x_max":757,"o":"m 76 0 l 76 143 l 446 576 l 97 576 l 97 768 l 744 768 l 744 613 l 385 192 l 757 192 l 757 0 l 76 0 z "},"{":{"ha":833,"x_min":174,"x_max":660,"o":"m 660 -233 q 456 -212 529 -233 q 354 -140 383 -190 q 325 0 325 -89 l 325 175 q 283 262 325 233 q 174 290 240 290 l 174 482 q 284 510 243 482 q 325 597 325 538 l 325 775 q 351 909 325 858 q 450 983 378 960 q 660 1006 522 1006 l 660 822 q 602 817 629 821 q 558 798 575 813 q 542 750 542 783 l 542 561 q 506 441 542 481 q 397 390 469 401 l 397 382 q 506 331 471 369 q 542 215 542 292 l 542 24 q 574 -35 542 -22 q 660 -50 607 -47 l 660 -233 z "},"|":{"ha":833,"x_min":322,"x_max":511,"o":"m 322 -333 l 322 1056 l 511 1056 l 511 -333 l 322 -333 z "},"}":{"ha":833,"x_min":174,"x_max":660,"o":"m 174 1006 q 378 984 306 1006 q 479 912 450 963 q 508 772 508 861 l 508 597 q 551 510 508 539 q 660 482 593 482 l 660 290 q 550 263 592 290 q 508 175 508 235 l 508 -3 q 482 -136 508 -85 q 384 -210 456 -187 q 174 -233 313 -233 l 174 -50 q 232 -44 206 -49 q 275 -26 258 -40 q 292 22 292 -11 l 292 211 q 328 331 292 292 q 436 382 364 371 l 436 390 q 328 442 364 403 q 292 557 292 481 l 292 749 q 259 808 292 794 q 174 822 226 821 l 174 1006 z "},"~":{"ha":833,"x_min":63,"x_max":754,"o":"m 63 357 q 73 472 63 421 q 107 558 83 522 q 169 614 131 594 q 263 633 207 633 q 320 626 296 633 q 374 598 344 618 q 450 540 403 578 q 520 489 494 506 q 572 472 546 472 q 621 508 606 472 q 636 633 636 544 l 754 633 q 745 513 754 565 q 715 426 736 461 q 659 374 694 392 q 569 357 624 357 q 500 365 531 357 q 439 392 469 372 q 368 449 408 413 q 303 503 326 488 q 253 518 281 518 q 198 483 218 518 q 178 357 178 447 l 63 357 z "}," ":{"ha":833,"x_min":0,"x_max":0,"o":""},"¡":{"ha":833,"x_min":264,"x_max":557,"o":"m 522 385 l 557 -257 l 264 -257 l 299 385 l 522 385 m 411 751 q 512 722 469 751 q 554 622 554 692 q 512 521 554 550 q 411 492 469 492 q 313 521 354 492 q 271 622 271 550 q 313 722 271 692 q 411 751 354 751 z "},"¢":{"ha":833,"x_min":69,"x_max":764,"o":"m 407 113 q 224 172 299 124 q 110 303 149 221 q 69 501 72 386 q 113 699 72 615 q 228 832 153 782 q 407 894 303 882 l 407 1006 l 538 1006 l 538 901 q 659 883 596 897 q 764 844 722 868 l 696 657 q 605 691 657 679 q 508 703 553 703 q 406 683 451 703 q 336 619 361 663 q 311 503 311 575 q 335 390 311 432 q 403 328 358 347 q 507 308 447 308 q 630 326 564 308 q 742 376 696 344 l 742 175 q 651 135 707 151 q 538 111 594 118 l 538 -14 l 407 -14 l 407 113 z "},"£":{"ha":833,"x_min":97,"x_max":764,"o":"m 97 204 q 161 244 136 225 q 199 292 186 264 q 211 365 211 319 l 211 425 l 111 425 l 111 604 l 211 604 l 211 708 q 299 933 211 860 q 529 1007 386 1007 q 654 992 596 1007 q 764 951 713 978 l 697 760 q 628 788 657 779 q 563 797 599 797 q 483 777 510 797 q 456 704 456 757 l 456 604 l 661 604 l 661 425 l 456 425 l 456 367 q 440 298 456 328 q 399 248 425 268 q 340 213 372 228 l 763 213 l 763 0 l 97 0 l 97 204 z "},"¤":{"ha":833,"x_min":68,"x_max":765,"o":"m 551 271 q 485 246 521 254 q 414 238 450 238 q 342 245 376 238 q 276 268 307 253 l 188 182 l 69 300 l 160 390 q 134 456 142 422 q 126 526 126 489 q 135 597 126 563 q 160 664 143 631 l 68 753 l 188 874 l 278 783 q 345 808 310 800 q 414 817 381 817 q 485 808 451 817 q 551 781 519 800 l 643 874 l 765 757 l 672 665 q 697 599 689 635 q 706 526 706 564 q 697 454 706 488 q 672 389 689 421 l 761 299 l 643 181 l 551 271 m 414 408 q 479 424 451 408 q 522 467 507 440 q 538 526 538 493 q 522 588 538 560 q 478 631 506 615 q 414 647 450 647 q 352 631 379 647 q 310 588 325 615 q 296 526 296 560 q 310 467 296 493 q 351 424 324 440 q 414 408 378 408 z "},"¥":{"ha":833,"x_min":21,"x_max":813,"o":"m 299 0 l 299 138 l 106 138 l 106 279 l 299 279 l 299 367 l 106 367 l 106 510 l 261 510 l 21 992 l 278 992 l 418 651 l 554 992 l 813 992 l 569 510 l 726 510 l 726 367 l 536 367 l 536 279 l 726 279 l 726 138 l 536 138 l 536 0 l 299 0 z "},"¦":{"ha":833,"x_min":322,"x_max":511,"o":"m 322 494 l 322 1054 l 511 1054 l 511 494 l 322 494 m 322 -311 l 322 249 l 511 249 l 511 -311 l 322 -311 z "},"§":{"ha":833,"x_min":124,"x_max":711,"o":"m 383 -14 q 247 1 311 -14 q 131 46 183 15 l 131 213 q 215 176 169 193 q 305 149 261 158 q 379 139 349 139 q 454 155 431 139 q 478 200 478 171 q 469 230 478 218 q 434 256 460 242 q 358 290 408 269 q 229 357 282 324 q 150 433 176 390 q 124 536 124 475 q 158 628 124 588 q 240 697 192 669 q 165 772 190 731 q 140 864 140 813 q 217 1008 140 954 q 429 1063 294 1063 q 568 1047 501 1063 q 693 1004 635 1032 l 625 851 q 526 894 578 878 q 433 911 475 911 q 378 899 397 911 q 358 861 358 886 q 370 829 358 844 q 409 799 382 814 q 481 767 436 785 q 613 701 563 735 q 688 627 664 667 q 711 536 711 588 q 682 436 711 476 q 606 364 653 396 q 670 297 647 336 q 693 207 693 257 q 613 48 693 110 q 383 -14 532 -14 m 475 432 q 496 463 486 444 q 506 504 506 481 q 492 553 506 532 q 449 592 479 574 q 371 631 419 611 q 341 603 353 621 q 329 560 329 586 q 342 521 329 539 q 380 485 354 503 q 444 447 406 468 l 475 432 z "},"¨":{"ha":833,"x_min":129,"x_max":706,"o":"m 588 844 q 502 874 535 844 q 469 958 469 903 q 503 1046 469 1017 q 588 1075 536 1075 q 672 1045 639 1075 q 706 958 706 1015 q 672 874 706 903 q 588 844 639 844 m 246 844 q 162 874 194 844 q 129 958 129 903 q 162 1046 129 1017 q 246 1075 194 1075 q 331 1045 297 1075 q 365 958 365 1015 q 331 874 365 903 q 246 844 297 844 z "},"©":{"ha":833,"x_min":28,"x_max":806,"o":"m 418 111 q 215 162 303 111 q 77 301 126 213 q 28 501 28 390 q 82 709 28 622 q 225 842 136 796 q 418 889 314 889 q 614 840 526 889 q 753 705 701 792 q 806 501 806 618 q 752 293 806 381 q 611 158 699 206 q 418 111 524 111 m 418 263 q 256 325 314 263 q 199 503 199 388 q 256 674 199 613 q 414 736 313 736 q 494 727 456 736 q 572 699 533 718 l 529 599 q 476 617 503 611 q 422 624 449 624 q 351 592 379 624 q 324 501 324 561 q 351 406 324 436 q 426 375 378 375 q 490 384 458 375 q 551 408 521 393 l 551 294 q 487 270 519 278 q 418 263 454 263 m 418 210 q 561 246 499 210 q 660 348 624 282 q 696 501 696 414 q 658 658 696 593 q 557 756 619 722 q 418 790 494 790 q 273 754 336 790 q 174 653 210 718 q 138 501 138 589 q 176 342 138 407 q 278 243 214 276 q 418 210 342 210 z "},"ª":{"ha":833,"x_min":189,"x_max":643,"o":"m 350 500 q 234 539 279 500 q 189 656 189 578 q 217 749 189 715 q 297 797 244 782 q 424 815 349 813 l 486 818 l 486 825 q 467 869 486 854 q 408 883 447 883 q 342 873 375 883 q 265 843 308 863 l 217 949 q 316 987 263 971 q 433 1003 369 1003 q 591 953 539 1003 q 643 811 643 904 l 643 508 l 540 508 l 514 590 q 445 524 483 547 q 350 500 407 500 m 399 615 q 463 644 439 615 q 486 711 486 672 l 486 729 l 425 725 q 362 703 376 722 q 347 664 347 685 q 360 628 347 640 q 399 615 374 615 z "},"«":{"ha":833,"x_min":42,"x_max":792,"o":"m 621 57 l 382 381 l 382 399 l 621 724 l 792 631 l 629 390 l 792 150 l 621 57 m 282 57 l 42 381 l 42 399 l 282 724 l 451 631 l 289 390 l 451 150 l 282 57 z "},"¬":{"ha":833,"x_min":90,"x_max":729,"o":"m 544 161 l 544 399 l 90 399 l 90 581 l 729 581 l 729 161 l 544 161 z "},"­":{"ha":833,"x_min":208,"x_max":625,"o":"m 208 271 l 208 479 l 625 479 l 625 271 l 208 271 z "},"®":{"ha":833,"x_min":26,"x_max":806,"o":"m 411 103 q 212 155 299 103 q 76 297 125 207 q 26 499 26 386 q 81 708 26 621 q 224 842 135 794 q 417 889 314 889 q 612 840 524 889 q 753 703 700 792 q 806 496 806 615 q 751 287 806 375 q 608 151 697 199 q 411 103 518 103 m 415 206 q 560 242 497 206 q 658 344 622 278 q 694 499 694 410 q 656 653 694 589 q 554 753 618 718 q 414 788 490 788 q 271 751 333 788 q 172 649 208 715 q 136 496 136 583 q 174 339 136 404 q 275 240 211 274 q 415 206 339 206 m 260 290 l 260 713 l 400 713 q 528 680 486 713 q 569 579 569 647 q 553 508 569 539 q 499 458 538 476 l 594 290 l 478 290 l 404 438 l 368 438 l 368 290 l 260 290 m 390 522 q 441 535 422 522 q 460 575 460 547 q 444 613 460 603 q 390 624 428 624 l 368 624 l 368 522 l 390 522 z "},"¯":{"ha":833,"x_min":190,"x_max":643,"o":"m 190 867 l 190 1026 l 643 1026 l 643 867 l 190 867 z "},"°":{"ha":833,"x_min":182,"x_max":653,"o":"m 417 540 q 297 570 350 540 q 213 653 243 600 q 182 774 182 706 q 214 894 182 842 q 299 976 246 946 q 417 1006 353 1006 q 535 976 482 1006 q 621 894 589 946 q 653 774 653 842 q 621 653 653 706 q 535 570 589 600 q 417 540 482 540 m 417 686 q 482 713 458 686 q 506 774 506 739 q 479 838 506 815 q 417 861 453 861 q 355 838 381 861 q 329 774 329 815 q 355 710 329 735 q 417 686 381 686 z "},"±":{"ha":833,"x_min":97,"x_max":736,"o":"m 325 226 l 325 471 l 97 471 l 97 653 l 325 653 l 325 901 l 510 901 l 510 653 l 736 653 l 736 471 l 510 471 l 510 226 l 325 226 m 97 0 l 97 182 l 736 182 l 736 0 l 97 0 z "},"²":{"ha":833,"x_min":201,"x_max":646,"o":"m 213 578 l 213 718 l 350 863 q 406 924 386 901 q 434 964 426 947 q 442 999 442 981 q 429 1033 442 1021 q 389 1044 417 1044 q 338 1031 363 1044 q 286 988 314 1018 l 201 1096 q 294 1163 236 1136 q 426 1190 351 1190 q 569 1143 522 1190 q 617 1021 617 1096 q 597 928 617 971 q 536 843 576 886 q 438 744 496 800 l 415 724 l 646 724 l 646 578 l 213 578 z "},"³":{"ha":833,"x_min":201,"x_max":632,"o":"m 403 567 q 295 578 344 567 q 208 614 246 590 l 208 769 q 294 724 246 739 q 386 710 342 710 q 448 722 428 710 q 468 765 468 735 q 451 800 468 786 q 383 814 435 814 l 318 814 l 318 942 l 368 942 q 438 956 418 942 q 457 996 457 971 q 444 1033 457 1018 q 399 1049 431 1049 q 337 1036 367 1049 q 275 996 307 1024 l 201 1106 q 299 1163 244 1142 q 418 1185 354 1185 q 561 1146 508 1185 q 614 1039 614 1107 q 592 950 614 988 q 521 890 569 913 l 521 885 q 604 833 576 868 q 632 739 632 797 q 569 612 632 657 q 403 567 506 567 z "},"´":{"ha":833,"x_min":278,"x_max":693,"o":"m 278 861 q 327 928 301 893 q 378 998 353 963 q 421 1064 403 1033 l 693 1064 l 693 1050 q 623 987 667 1025 q 532 910 579 949 q 449 842 485 871 l 278 842 l 278 861 z "},"µ":{"ha":833,"x_min":56,"x_max":771,"o":"m 56 -333 l 56 315 l 299 315 l 299 -333 l 56 -333 m 314 -15 q 117 59 179 -15 q 56 268 56 133 l 56 768 l 299 768 l 299 343 q 324 222 299 263 q 408 181 349 181 q 485 208 460 181 q 519 281 511 235 q 528 383 528 328 l 528 768 l 771 768 l 771 0 l 590 0 l 558 96 l 544 96 q 488 35 521 60 q 413 -3 456 10 q 314 -15 369 -15 z "},"¶":{"ha":833,"x_min":42,"x_max":778,"o":"m 439 379 q 404 370 421 374 q 364 367 388 367 q 188 401 260 367 q 79 512 117 436 q 42 707 42 588 q 81 908 42 832 q 197 1020 121 985 q 382 1056 272 1056 l 778 1056 l 778 -176 l 656 -176 l 656 924 l 561 924 l 561 -176 l 439 -176 l 439 379 z "},"·":{"ha":833,"x_min":278,"x_max":554,"o":"m 418 351 q 319 381 361 351 q 278 478 278 410 q 319 576 278 547 q 418 606 361 606 q 514 576 474 606 q 554 478 554 547 q 514 381 554 410 q 418 351 474 351 z "},"¸":{"ha":833,"x_min":257,"x_max":575,"o":"m 383 -333 q 318 -328 353 -333 q 257 -315 283 -324 l 257 -187 q 301 -197 281 -193 q 339 -201 321 -201 q 381 -191 367 -201 q 394 -162 394 -181 q 371 -125 394 -139 q 299 -106 347 -111 l 343 7 l 463 7 l 446 -44 q 540 -86 504 -56 q 575 -178 575 -117 q 526 -290 575 -247 q 383 -333 478 -333 z "},"¹":{"ha":833,"x_min":188,"x_max":660,"o":"m 368 826 q 369 903 368 857 q 374 985 371 949 q 349 967 361 975 q 328 954 336 960 l 264 914 l 188 1044 l 406 1172 l 532 1172 l 532 578 l 368 578 l 368 826 m 228 578 l 228 703 l 425 719 l 488 719 l 660 703 l 660 578 l 228 578 z "},"º":{"ha":833,"x_min":181,"x_max":653,"o":"m 414 500 q 247 567 313 500 q 181 751 181 633 q 244 938 181 872 q 417 1003 307 1003 q 537 973 483 1003 q 622 888 590 943 q 653 751 653 832 q 588 566 653 632 q 414 500 524 500 m 415 628 q 474 659 456 628 q 492 751 492 690 q 483 821 492 793 q 458 863 475 849 q 415 876 442 876 q 356 845 375 876 q 338 751 338 814 q 356 659 338 690 q 415 628 375 628 z "},"»":{"ha":833,"x_min":42,"x_max":792,"o":"m 213 722 l 451 399 l 451 381 l 213 56 l 42 149 l 204 389 l 42 629 l 213 722 m 551 722 l 792 399 l 792 381 l 551 56 l 382 149 l 544 389 l 382 629 l 551 722 z "},"¼":{"ha":833,"x_min":14,"x_max":819,"o":"m 29 167 l 636 771 l 819 771 l 213 167 l 29 167 m 44 538 l 44 633 l 194 646 l 243 646 l 374 633 l 374 538 l 44 538 m 607 0 l 607 72 l 415 72 l 415 168 l 594 456 l 735 456 l 735 174 l 806 174 l 806 72 l 735 72 l 735 0 l 607 0 m 518 174 l 607 174 l 607 261 q 608 297 607 281 q 610 331 608 313 q 592 291 603 310 q 575 263 582 272 l 518 174 m 151 728 q 153 786 151 751 q 156 849 154 821 q 137 836 146 843 q 121 825 128 829 l 71 796 l 14 894 l 181 992 l 276 992 l 276 538 l 151 538 l 151 728 z "},"½":{"ha":833,"x_min":14,"x_max":821,"o":"m 29 167 l 636 771 l 819 771 l 213 167 l 29 167 m 44 538 l 44 633 l 194 646 l 243 646 l 374 633 l 374 538 l 44 538 m 489 0 l 489 107 l 593 218 q 636 265 621 247 q 658 294 651 282 q 664 321 664 307 q 654 347 664 338 q 624 357 644 357 q 585 347 603 357 q 544 314 567 336 l 479 396 q 551 447 507 426 q 653 468 594 468 q 763 432 726 468 q 799 339 799 396 q 783 269 799 301 q 736 203 767 236 q 661 128 706 169 l 643 111 l 821 111 l 821 0 l 489 0 m 151 728 q 153 786 151 751 q 156 849 154 821 q 137 836 146 843 q 121 825 128 829 l 71 796 l 14 894 l 181 992 l 276 992 l 276 538 l 151 538 l 151 728 z "},"¾":{"ha":833,"x_min":29,"x_max":819,"o":"m 29 167 l 636 771 l 819 771 l 213 167 l 29 167 m 607 0 l 607 72 l 415 72 l 415 168 l 594 456 l 735 456 l 735 174 l 806 174 l 806 72 l 735 72 l 735 0 l 607 0 m 518 174 l 607 174 l 607 261 q 608 297 607 281 q 610 331 608 313 q 592 291 603 310 q 575 263 582 272 l 518 174 m 208 532 q 127 541 165 532 q 60 568 89 550 l 60 688 q 125 653 89 664 q 196 642 161 642 q 243 651 228 642 q 258 683 258 661 q 246 710 258 700 q 194 721 233 721 l 144 721 l 144 819 l 182 819 q 235 831 221 819 q 250 860 250 842 q 240 888 250 876 q 206 900 231 900 q 158 891 181 900 q 111 860 136 882 l 54 944 q 129 988 88 972 q 221 1004 171 1004 q 331 975 290 1004 q 371 893 371 946 q 353 825 371 854 q 299 779 336 796 l 299 775 q 385 664 385 750 q 336 566 385 600 q 208 532 288 532 z "},"¿":{"ha":833,"x_min":64,"x_max":703,"o":"m 524 326 q 513 251 524 285 q 476 186 503 217 q 400 125 449 156 q 342 78 360 100 q 319 38 324 57 q 314 -1 314 18 q 335 -50 314 -32 q 390 -68 357 -68 q 489 -49 438 -68 q 608 10 540 -29 l 703 -175 q 547 -244 626 -218 q 371 -271 467 -271 q 205 -240 274 -271 q 100 -153 136 -210 q 64 -24 64 -97 q 78 75 64 29 q 124 160 92 121 q 208 232 156 199 q 264 274 244 256 q 291 310 283 292 q 299 350 299 329 l 299 385 l 524 385 l 524 326 m 410 751 q 512 722 469 751 q 554 622 554 692 q 512 521 554 550 q 410 492 469 492 q 313 521 354 492 q 271 622 271 550 q 313 722 271 692 q 410 751 354 751 z "},"À":{"ha":833,"x_min":7,"x_max":826,"o":"m 7 0 l 257 996 l 575 996 l 826 0 l 585 0 l 465 588 q 449 668 458 624 q 433 756 440 713 q 419 829 425 799 q 407 756 415 799 q 390 668 399 713 q 372 588 381 624 l 243 0 l 7 0 m 251 204 l 281 400 l 547 400 l 571 204 l 251 204 m 411 1065 q 356 1110 389 1082 q 286 1168 322 1138 q 218 1227 250 1199 q 167 1274 186 1256 l 167 1288 l 439 1288 q 484 1219 457 1258 q 538 1144 511 1181 q 582 1085 565 1108 l 582 1065 l 411 1065 z "},"Á":{"ha":833,"x_min":7,"x_max":826,"o":"m 7 0 l 257 996 l 575 996 l 826 0 l 585 0 l 465 588 q 449 668 458 624 q 433 756 440 713 q 419 829 425 799 q 407 756 415 799 q 390 668 399 713 q 372 588 381 624 l 243 0 l 7 0 m 251 204 l 281 400 l 547 400 l 571 204 l 251 204 m 292 1085 q 341 1151 315 1117 q 392 1222 367 1186 q 435 1288 417 1257 l 707 1288 l 707 1274 q 637 1210 681 1249 q 546 1133 593 1172 q 463 1065 499 1094 l 292 1065 l 292 1085 z "},"Â":{"ha":833,"x_min":7,"x_max":826,"o":"m 7 0 l 257 996 l 575 996 l 826 0 l 585 0 l 465 588 q 449 668 458 624 q 433 756 440 713 q 419 829 425 799 q 407 756 415 799 q 390 668 399 713 q 372 588 381 624 l 243 0 l 7 0 m 251 204 l 281 400 l 547 400 l 571 204 l 251 204 m 146 1085 q 198 1147 168 1110 q 256 1222 228 1183 q 300 1288 283 1260 l 535 1288 q 580 1222 554 1257 q 634 1151 606 1186 q 688 1085 663 1115 l 688 1065 l 533 1065 q 476 1110 504 1085 q 417 1167 449 1135 q 357 1109 383 1133 q 303 1065 331 1085 l 146 1065 l 146 1085 z "},"Ã":{"ha":833,"x_min":7,"x_max":826,"o":"m 7 0 l 257 996 l 575 996 l 826 0 l 585 0 l 465 588 q 449 668 458 624 q 433 756 440 713 q 419 829 425 799 q 407 756 415 799 q 390 668 399 713 q 372 588 381 624 l 243 0 l 7 0 m 251 204 l 281 400 l 547 400 l 571 204 l 251 204 m 138 1063 q 150 1155 140 1113 q 178 1228 160 1197 q 224 1277 196 1260 q 290 1294 251 1294 q 352 1285 322 1294 q 410 1262 382 1275 q 463 1239 438 1249 q 513 1229 489 1229 q 552 1247 543 1229 q 567 1296 561 1265 l 694 1296 q 647 1121 690 1178 q 540 1064 604 1064 q 479 1074 510 1064 q 419 1097 449 1083 q 362 1119 389 1110 q 311 1129 335 1129 q 282 1117 293 1129 q 265 1063 271 1104 l 138 1063 z "},"Ä":{"ha":833,"x_min":7,"x_max":826,"o":"m 7 0 l 257 996 l 575 996 l 826 0 l 585 0 l 465 588 q 449 668 458 624 q 433 756 440 713 q 419 829 425 799 q 407 756 415 799 q 390 668 399 713 q 372 588 381 624 l 243 0 l 7 0 m 251 204 l 281 400 l 547 400 l 571 204 l 251 204 m 586 1068 q 501 1097 533 1068 q 468 1182 468 1126 q 501 1269 468 1240 q 586 1299 535 1299 q 671 1269 638 1299 q 704 1182 704 1239 q 671 1097 704 1126 q 586 1068 638 1068 m 244 1068 q 160 1097 193 1068 q 128 1182 128 1126 q 160 1269 128 1240 q 244 1299 193 1299 q 330 1269 296 1299 q 364 1182 364 1239 q 330 1097 364 1126 q 244 1068 296 1068 z "},"Å":{"ha":833,"x_min":7,"x_max":826,"o":"m 7 0 l 257 996 l 575 996 l 826 0 l 585 0 l 465 588 q 449 668 458 624 q 433 756 440 713 q 419 829 425 799 q 407 756 415 799 q 390 668 399 713 q 372 588 381 624 l 243 0 l 7 0 m 251 204 l 281 400 l 547 400 l 571 204 l 251 204 m 415 1063 q 288 1110 336 1063 q 239 1235 239 1157 q 288 1358 239 1311 q 415 1406 336 1406 q 542 1358 492 1406 q 593 1235 593 1311 q 543 1110 593 1158 q 415 1063 493 1063 m 415 1178 q 456 1194 439 1178 q 472 1235 472 1210 q 456 1276 472 1260 q 415 1292 439 1292 q 375 1276 392 1292 q 358 1235 358 1260 q 373 1194 358 1210 q 415 1178 388 1178 z "},"Æ":{"ha":833,"x_min":7,"x_max":819,"o":"m 7 0 l 236 992 l 819 992 l 819 783 l 664 783 l 664 617 l 796 617 l 796 408 l 664 408 l 664 208 l 819 208 l 819 0 l 432 0 l 432 783 l 401 783 l 246 0 l 7 0 m 265 210 l 310 417 l 463 417 l 475 210 l 265 210 z "},"Ç":{"ha":833,"x_min":56,"x_max":785,"o":"m 463 -14 q 238 47 328 -14 q 101 220 147 108 q 56 483 56 332 q 88 704 56 607 q 181 869 119 801 q 328 971 242 936 q 525 1006 415 1006 q 653 992 590 1006 q 785 951 717 979 l 719 746 q 621 780 671 769 q 529 790 571 790 q 421 769 465 790 q 351 707 376 747 q 313 610 325 667 q 301 482 301 553 q 323 319 301 381 q 390 228 344 257 q 504 200 435 200 q 626 217 560 200 q 747 267 693 233 l 747 43 q 608 0 682 14 q 463 -14 535 -14 m 457 -333 q 392 -328 426 -333 q 331 -315 357 -324 l 331 -187 q 374 -197 354 -193 q 413 -201 394 -201 q 454 -191 440 -201 q 468 -162 468 -181 q 444 -125 468 -139 q 372 -106 421 -111 l 417 7 l 536 7 l 519 -44 q 613 -86 578 -56 q 649 -178 649 -117 q 600 -290 649 -247 q 457 -333 551 -333 z "},"È":{"ha":833,"x_min":83,"x_max":750,"o":"m 83 0 l 83 992 l 750 992 l 750 783 l 321 783 l 321 614 l 732 614 l 732 406 l 321 406 l 321 208 l 750 208 l 750 0 l 83 0 m 414 1065 q 358 1110 392 1082 q 289 1168 325 1138 q 221 1227 253 1199 q 169 1274 189 1256 l 169 1288 l 442 1288 q 487 1219 460 1258 q 541 1144 514 1181 q 585 1085 568 1108 l 585 1065 l 414 1065 z "},"É":{"ha":833,"x_min":83,"x_max":750,"o":"m 83 0 l 83 992 l 750 992 l 750 783 l 321 783 l 321 614 l 732 614 l 732 406 l 321 406 l 321 208 l 750 208 l 750 0 l 83 0 m 294 1085 q 344 1151 318 1117 q 394 1222 369 1186 q 438 1288 419 1257 l 710 1288 l 710 1274 q 640 1210 683 1249 q 549 1133 596 1172 q 465 1065 501 1094 l 294 1065 l 294 1085 z "},"Ê":{"ha":833,"x_min":83,"x_max":750,"o":"m 83 0 l 83 992 l 750 992 l 750 783 l 321 783 l 321 614 l 732 614 l 732 406 l 321 406 l 321 208 l 750 208 l 750 0 l 83 0 m 149 1085 q 201 1147 171 1110 q 258 1222 231 1183 q 303 1288 286 1260 l 538 1288 q 583 1222 557 1257 q 637 1151 608 1186 q 690 1085 665 1115 l 690 1065 l 536 1065 q 479 1110 507 1085 q 419 1167 451 1135 q 360 1109 386 1133 q 306 1065 333 1085 l 149 1065 l 149 1085 z "},"Ë":{"ha":833,"x_min":83,"x_max":750,"o":"m 83 0 l 83 992 l 750 992 l 750 783 l 321 783 l 321 614 l 732 614 l 732 406 l 321 406 l 321 208 l 750 208 l 750 0 l 83 0 m 589 1068 q 503 1097 536 1068 q 471 1182 471 1126 q 504 1269 471 1240 q 589 1299 538 1299 q 674 1269 640 1299 q 707 1182 707 1239 q 674 1097 707 1126 q 589 1068 640 1068 m 247 1068 q 163 1097 196 1068 q 131 1182 131 1126 q 163 1269 131 1240 q 247 1299 196 1299 q 333 1269 299 1299 q 367 1182 367 1239 q 333 1097 367 1126 q 247 1068 299 1068 z "},"Ì":{"ha":833,"x_min":97,"x_max":736,"o":"m 97 0 l 97 174 l 299 196 l 299 796 l 97 818 l 97 992 l 736 992 l 736 818 l 533 796 l 533 196 l 736 174 l 736 0 l 97 0 m 411 1065 q 356 1110 389 1082 q 286 1168 322 1138 q 218 1227 250 1199 q 167 1274 186 1256 l 167 1288 l 439 1288 q 484 1219 457 1258 q 538 1144 511 1181 q 582 1085 565 1108 l 582 1065 l 411 1065 z "},"Í":{"ha":833,"x_min":97,"x_max":736,"o":"m 97 0 l 97 174 l 299 196 l 299 796 l 97 818 l 97 992 l 736 992 l 736 818 l 533 796 l 533 196 l 736 174 l 736 0 l 97 0 m 292 1085 q 341 1151 315 1117 q 392 1222 367 1186 q 435 1288 417 1257 l 707 1288 l 707 1274 q 637 1210 681 1249 q 546 1133 593 1172 q 463 1065 499 1094 l 292 1065 l 292 1085 z "},"Î":{"ha":833,"x_min":97,"x_max":736,"o":"m 97 0 l 97 174 l 299 196 l 299 796 l 97 818 l 97 992 l 736 992 l 736 818 l 533 796 l 533 196 l 736 174 l 736 0 l 97 0 m 146 1085 q 198 1147 168 1110 q 256 1222 228 1183 q 300 1288 283 1260 l 535 1288 q 580 1222 554 1257 q 634 1151 606 1186 q 688 1085 663 1115 l 688 1065 l 533 1065 q 476 1110 504 1085 q 417 1167 449 1135 q 357 1109 383 1133 q 303 1065 331 1085 l 146 1065 l 146 1085 z "},"Ï":{"ha":833,"x_min":97,"x_max":736,"o":"m 97 0 l 97 174 l 299 196 l 299 796 l 97 818 l 97 992 l 736 992 l 736 818 l 533 796 l 533 196 l 736 174 l 736 0 l 97 0 m 586 1068 q 501 1097 533 1068 q 468 1182 468 1126 q 501 1269 468 1240 q 586 1299 535 1299 q 671 1269 638 1299 q 704 1182 704 1239 q 671 1097 704 1126 q 586 1068 638 1068 m 244 1068 q 160 1097 193 1068 q 128 1182 128 1126 q 160 1269 128 1240 q 244 1299 193 1299 q 330 1269 296 1299 q 364 1182 364 1239 q 330 1097 364 1126 q 244 1068 296 1068 z "},"Ð":{"ha":833,"x_min":0,"x_max":806,"o":"m 0 390 l 0 590 l 411 590 l 411 390 l 0 390 m 56 0 l 56 992 l 356 992 q 599 937 499 992 q 752 776 699 882 q 806 517 806 671 q 748 233 806 349 q 585 59 690 118 q 336 0 481 0 l 56 0 m 339 201 q 506 279 451 201 q 560 507 560 357 q 537 666 560 603 q 468 760 514 729 q 354 790 422 790 l 286 790 l 286 201 l 339 201 z "},"Ñ":{"ha":833,"x_min":56,"x_max":778,"o":"m 56 0 l 56 992 l 385 992 l 572 218 l 578 218 q 570 307 574 265 q 565 385 567 349 q 561 456 563 422 q 560 522 560 489 l 560 992 l 778 992 l 778 0 l 457 0 l 264 767 l 258 767 q 267 649 264 696 q 271 569 269 601 q 273 511 272 538 q 274 456 274 485 l 274 0 l 56 0 m 144 1063 q 157 1155 147 1113 q 185 1228 167 1197 q 231 1277 203 1260 q 297 1294 258 1294 q 359 1285 329 1294 q 417 1262 389 1275 q 470 1239 444 1249 q 519 1229 496 1229 q 559 1247 550 1229 q 574 1296 568 1265 l 701 1296 q 654 1121 697 1178 q 547 1064 611 1064 q 486 1074 517 1064 q 426 1097 456 1083 q 369 1119 396 1110 q 318 1129 342 1129 q 289 1117 300 1129 q 272 1063 278 1104 l 144 1063 z "},"Ò":{"ha":833,"x_min":28,"x_max":806,"o":"m 417 -14 q 243 19 317 -14 q 122 118 169 53 q 51 278 75 183 q 28 497 28 374 q 70 777 28 664 q 199 949 113 890 q 417 1007 285 1007 q 590 973 517 1007 q 712 874 664 939 q 783 713 760 808 q 806 496 806 618 q 783 280 806 375 q 713 119 760 185 q 592 20 665 54 q 417 -14 518 -14 m 417 194 q 500 226 469 194 q 544 326 531 258 q 557 500 557 394 q 527 725 557 653 q 417 797 497 797 q 335 767 365 797 q 290 672 304 738 q 276 497 276 606 q 290 323 276 390 q 334 225 303 256 q 417 194 365 194 m 411 1065 q 356 1110 389 1082 q 286 1168 322 1138 q 218 1227 250 1199 q 167 1274 186 1256 l 167 1288 l 439 1288 q 484 1219 457 1258 q 538 1144 511 1181 q 582 1085 565 1108 l 582 1065 l 411 1065 z "},"Ó":{"ha":833,"x_min":28,"x_max":806,"o":"m 417 -14 q 243 19 317 -14 q 122 118 169 53 q 51 278 75 183 q 28 497 28 374 q 70 777 28 664 q 199 949 113 890 q 417 1007 285 1007 q 590 973 517 1007 q 712 874 664 939 q 783 713 760 808 q 806 496 806 618 q 783 280 806 375 q 713 119 760 185 q 592 20 665 54 q 417 -14 518 -14 m 417 194 q 500 226 469 194 q 544 326 531 258 q 557 500 557 394 q 527 725 557 653 q 417 797 497 797 q 335 767 365 797 q 290 672 304 738 q 276 497 276 606 q 290 323 276 390 q 334 225 303 256 q 417 194 365 194 m 292 1085 q 341 1151 315 1117 q 392 1222 367 1186 q 435 1288 417 1257 l 707 1288 l 707 1274 q 637 1210 681 1249 q 546 1133 593 1172 q 463 1065 499 1094 l 292 1065 l 292 1085 z "},"Ô":{"ha":833,"x_min":28,"x_max":806,"o":"m 417 -14 q 243 19 317 -14 q 122 118 169 53 q 51 278 75 183 q 28 497 28 374 q 70 777 28 664 q 199 949 113 890 q 417 1007 285 1007 q 590 973 517 1007 q 712 874 664 939 q 783 713 760 808 q 806 496 806 618 q 783 280 806 375 q 713 119 760 185 q 592 20 665 54 q 417 -14 518 -14 m 417 194 q 500 226 469 194 q 544 326 531 258 q 557 500 557 394 q 527 725 557 653 q 417 797 497 797 q 335 767 365 797 q 290 672 304 738 q 276 497 276 606 q 290 323 276 390 q 334 225 303 256 q 417 194 365 194 m 146 1085 q 198 1147 168 1110 q 256 1222 228 1183 q 300 1288 283 1260 l 535 1288 q 580 1222 554 1257 q 634 1151 606 1186 q 688 1085 663 1115 l 688 1065 l 533 1065 q 476 1110 504 1085 q 417 1167 449 1135 q 357 1109 383 1133 q 303 1065 331 1085 l 146 1065 l 146 1085 z "},"Õ":{"ha":833,"x_min":28,"x_max":806,"o":"m 417 -14 q 243 19 317 -14 q 122 118 169 53 q 51 278 75 183 q 28 497 28 374 q 70 777 28 664 q 199 949 113 890 q 417 1007 285 1007 q 590 973 517 1007 q 712 874 664 939 q 783 713 760 808 q 806 496 806 618 q 783 280 806 375 q 713 119 760 185 q 592 20 665 54 q 417 -14 518 -14 m 417 194 q 500 226 469 194 q 544 326 531 258 q 557 500 557 394 q 527 725 557 653 q 417 797 497 797 q 335 767 365 797 q 290 672 304 738 q 276 497 276 606 q 290 323 276 390 q 334 225 303 256 q 417 194 365 194 m 138 1063 q 150 1155 140 1113 q 178 1228 160 1197 q 224 1277 196 1260 q 290 1294 251 1294 q 352 1285 322 1294 q 410 1262 382 1275 q 463 1239 438 1249 q 513 1229 489 1229 q 552 1247 543 1229 q 567 1296 561 1265 l 694 1296 q 647 1121 690 1178 q 540 1064 604 1064 q 479 1074 510 1064 q 419 1097 449 1083 q 362 1119 389 1110 q 311 1129 335 1129 q 282 1117 293 1129 q 265 1063 271 1104 l 138 1063 z "},"Ö":{"ha":833,"x_min":28,"x_max":806,"o":"m 417 -14 q 243 19 317 -14 q 122 118 169 53 q 51 278 75 183 q 28 497 28 374 q 70 777 28 664 q 199 949 113 890 q 417 1007 285 1007 q 590 973 517 1007 q 712 874 664 939 q 783 713 760 808 q 806 496 806 618 q 783 280 806 375 q 713 119 760 185 q 592 20 665 54 q 417 -14 518 -14 m 417 194 q 500 226 469 194 q 544 326 531 258 q 557 500 557 394 q 527 725 557 653 q 417 797 497 797 q 335 767 365 797 q 290 672 304 738 q 276 497 276 606 q 290 323 276 390 q 334 225 303 256 q 417 194 365 194 m 586 1068 q 501 1097 533 1068 q 468 1182 468 1126 q 501 1269 468 1240 q 586 1299 535 1299 q 671 1269 638 1299 q 704 1182 704 1239 q 671 1097 704 1126 q 586 1068 638 1068 m 244 1068 q 160 1097 193 1068 q 128 1182 128 1126 q 160 1269 128 1240 q 244 1299 193 1299 q 330 1269 296 1299 q 364 1182 364 1239 q 330 1097 364 1126 q 244 1068 296 1068 z "},"×":{"ha":833,"x_min":104,"x_max":728,"o":"m 231 181 l 106 311 l 282 490 l 104 669 l 231 801 l 413 622 l 596 801 l 728 674 l 543 490 l 724 308 l 596 181 l 413 361 l 231 181 z "},"Ø":{"ha":833,"x_min":1,"x_max":825,"o":"m 133 -65 l 1 24 l 694 1054 l 825 968 l 133 -65 m 417 -14 q 243 19 317 -14 q 122 118 169 53 q 51 278 75 183 q 28 497 28 374 q 70 777 28 664 q 199 949 113 890 q 417 1007 285 1007 q 590 973 517 1007 q 712 874 664 939 q 783 713 760 808 q 806 496 806 618 q 783 280 806 375 q 713 119 760 185 q 592 20 665 54 q 417 -14 518 -14 m 417 194 q 500 226 469 194 q 544 326 531 258 q 557 500 557 394 q 527 725 557 653 q 417 797 497 797 q 335 767 365 797 q 290 672 304 738 q 276 497 276 606 q 290 323 276 390 q 334 225 303 256 q 417 194 365 194 z "},"Ù":{"ha":833,"x_min":56,"x_max":778,"o":"m 417 -14 q 224 29 306 -14 q 99 156 143 72 q 56 360 56 239 l 56 992 l 299 992 l 299 379 q 311 274 299 313 q 349 218 324 235 q 413 201 374 201 q 478 218 451 201 q 520 274 506 235 q 535 381 535 313 l 535 992 l 778 992 l 778 365 q 736 163 778 247 q 614 32 694 78 q 417 -14 533 -14 m 411 1065 q 356 1110 389 1082 q 286 1168 322 1138 q 218 1227 250 1199 q 167 1274 186 1256 l 167 1288 l 439 1288 q 484 1219 457 1258 q 538 1144 511 1181 q 582 1085 565 1108 l 582 1065 l 411 1065 z "},"Ú":{"ha":833,"x_min":56,"x_max":778,"o":"m 417 -14 q 224 29 306 -14 q 99 156 143 72 q 56 360 56 239 l 56 992 l 299 992 l 299 379 q 311 274 299 313 q 349 218 324 235 q 413 201 374 201 q 478 218 451 201 q 520 274 506 235 q 535 381 535 313 l 535 992 l 778 992 l 778 365 q 736 163 778 247 q 614 32 694 78 q 417 -14 533 -14 m 292 1085 q 341 1151 315 1117 q 392 1222 367 1186 q 435 1288 417 1257 l 707 1288 l 707 1274 q 637 1210 681 1249 q 546 1133 593 1172 q 463 1065 499 1094 l 292 1065 l 292 1085 z "},"Û":{"ha":833,"x_min":56,"x_max":778,"o":"m 417 -14 q 224 29 306 -14 q 99 156 143 72 q 56 360 56 239 l 56 992 l 299 992 l 299 379 q 311 274 299 313 q 349 218 324 235 q 413 201 374 201 q 478 218 451 201 q 520 274 506 235 q 535 381 535 313 l 535 992 l 778 992 l 778 365 q 736 163 778 247 q 614 32 694 78 q 417 -14 533 -14 m 146 1085 q 198 1147 168 1110 q 256 1222 228 1183 q 300 1288 283 1260 l 535 1288 q 580 1222 554 1257 q 634 1151 606 1186 q 688 1085 663 1115 l 688 1065 l 533 1065 q 476 1110 504 1085 q 417 1167 449 1135 q 357 1109 383 1133 q 303 1065 331 1085 l 146 1065 l 146 1085 z "},"Ü":{"ha":833,"x_min":56,"x_max":778,"o":"m 417 -14 q 224 29 306 -14 q 99 156 143 72 q 56 360 56 239 l 56 992 l 299 992 l 299 379 q 311 274 299 313 q 349 218 324 235 q 413 201 374 201 q 478 218 451 201 q 520 274 506 235 q 535 381 535 313 l 535 992 l 778 992 l 778 365 q 736 163 778 247 q 614 32 694 78 q 417 -14 533 -14 m 586 1068 q 501 1097 533 1068 q 468 1182 468 1126 q 501 1269 468 1240 q 586 1299 535 1299 q 671 1269 638 1299 q 704 1182 704 1239 q 671 1097 704 1126 q 586 1068 638 1068 m 244 1068 q 160 1097 193 1068 q 128 1182 128 1126 q 160 1269 128 1240 q 244 1299 193 1299 q 330 1269 296 1299 q 364 1182 364 1239 q 330 1097 364 1126 q 244 1068 296 1068 z "},"Ý":{"ha":833,"x_min":21,"x_max":813,"o":"m 296 0 l 296 383 l 21 992 l 276 992 l 419 639 l 560 992 l 813 992 l 539 383 l 539 0 l 296 0 m 292 1085 q 341 1151 315 1117 q 392 1222 367 1186 q 435 1288 417 1257 l 707 1288 l 707 1274 q 637 1210 681 1249 q 546 1133 593 1172 q 463 1065 499 1094 l 292 1065 l 292 1085 z "},"Þ":{"ha":833,"x_min":83,"x_max":792,"o":"m 83 0 l 83 992 l 313 992 l 313 825 l 450 825 q 706 743 621 825 q 792 508 792 661 q 757 336 792 415 q 646 210 722 257 q 443 163 569 163 l 313 163 l 313 0 l 83 0 m 415 364 q 487 380 457 364 q 533 428 517 396 q 549 506 549 460 q 519 591 549 558 q 419 624 489 624 l 313 624 l 313 364 l 415 364 z "},"ß":{"ha":833,"x_min":63,"x_max":826,"o":"m 550 -14 q 450 -6 506 -14 q 350 26 394 3 l 350 229 q 432 191 385 207 q 518 175 479 175 q 571 188 550 175 q 592 232 592 201 q 583 258 592 247 q 552 285 575 268 q 483 331 529 301 q 415 383 444 357 q 368 442 385 410 q 351 515 351 474 q 368 591 351 560 q 409 645 385 622 q 458 688 433 668 q 499 730 482 708 q 515 782 515 751 q 486 842 515 821 q 404 863 457 863 q 333 846 360 863 q 297 797 307 829 q 286 718 286 765 l 286 0 l 63 0 l 63 746 q 106 917 63 846 q 228 1025 149 988 q 415 1063 307 1063 q 585 1033 511 1063 q 703 948 660 1004 q 746 811 746 892 q 730 724 746 760 q 690 662 714 688 q 643 617 667 636 q 603 581 619 597 q 588 549 588 565 q 601 519 588 533 q 639 490 615 506 q 693 453 663 474 q 766 393 736 424 q 811 324 796 363 q 826 226 826 285 q 797 95 826 149 q 706 14 767 42 q 550 -14 644 -14 z "},"à":{"ha":833,"x_min":56,"x_max":757,"o":"m 315 -14 q 119 54 183 -14 q 56 229 56 122 q 95 372 56 318 q 205 451 135 425 q 367 481 275 478 l 526 486 l 526 513 q 497 573 526 553 q 401 593 468 593 q 300 583 357 593 q 186 546 243 572 l 113 713 q 265 765 186 749 q 426 782 343 782 q 677 717 597 782 q 757 524 757 653 l 757 0 l 576 0 l 550 92 l 544 92 q 462 21 506 43 q 380 -8 418 -1 q 315 -14 342 -14 m 376 174 q 449 188 415 174 q 505 230 483 201 q 526 301 526 258 l 526 339 l 446 338 q 353 328 390 338 q 299 301 317 319 q 281 249 281 282 q 305 192 281 211 q 376 174 329 174 m 424 842 q 368 886 401 858 q 299 944 335 914 q 231 1003 263 975 q 179 1050 199 1032 l 179 1064 l 451 1064 q 497 996 469 1035 q 551 921 524 957 q 594 861 578 885 l 594 842 l 424 842 z "},"á":{"ha":833,"x_min":56,"x_max":757,"o":"m 315 -14 q 119 54 183 -14 q 56 229 56 122 q 95 372 56 318 q 205 451 135 425 q 367 481 275 478 l 526 486 l 526 513 q 497 573 526 553 q 401 593 468 593 q 300 583 357 593 q 186 546 243 572 l 113 713 q 265 765 186 749 q 426 782 343 782 q 677 717 597 782 q 757 524 757 653 l 757 0 l 576 0 l 550 92 l 544 92 q 462 21 506 43 q 380 -8 418 -1 q 315 -14 342 -14 m 376 174 q 449 188 415 174 q 505 230 483 201 q 526 301 526 258 l 526 339 l 446 338 q 353 328 390 338 q 299 301 317 319 q 281 249 281 282 q 305 192 281 211 q 376 174 329 174 m 304 861 q 353 928 328 893 q 404 998 379 963 q 447 1064 429 1033 l 719 1064 l 719 1050 q 649 987 693 1025 q 558 910 606 949 q 475 842 511 871 l 304 842 l 304 861 z "},"â":{"ha":833,"x_min":56,"x_max":757,"o":"m 315 -14 q 119 54 183 -14 q 56 229 56 122 q 95 372 56 318 q 205 451 135 425 q 367 481 275 478 l 526 486 l 526 513 q 497 573 526 553 q 401 593 468 593 q 300 583 357 593 q 186 546 243 572 l 113 713 q 265 765 186 749 q 426 782 343 782 q 677 717 597 782 q 757 524 757 653 l 757 0 l 576 0 l 550 92 l 544 92 q 462 21 506 43 q 380 -8 418 -1 q 315 -14 342 -14 m 376 174 q 449 188 415 174 q 505 230 483 201 q 526 301 526 258 l 526 339 l 446 338 q 353 328 390 338 q 299 301 317 319 q 281 249 281 282 q 305 192 281 211 q 376 174 329 174 m 158 861 q 210 923 181 886 q 268 998 240 960 q 313 1064 296 1036 l 547 1064 q 592 998 567 1033 q 647 927 618 963 q 700 861 675 892 l 700 842 l 546 842 q 489 886 517 861 q 429 943 461 911 q 369 885 396 910 q 315 842 343 861 l 158 842 l 158 861 z "},"ã":{"ha":833,"x_min":56,"x_max":757,"o":"m 315 -14 q 119 54 183 -14 q 56 229 56 122 q 95 372 56 318 q 205 451 135 425 q 367 481 275 478 l 526 486 l 526 513 q 497 573 526 553 q 401 593 468 593 q 300 583 357 593 q 186 546 243 572 l 113 713 q 265 765 186 749 q 426 782 343 782 q 677 717 597 782 q 757 524 757 653 l 757 0 l 576 0 l 550 92 l 544 92 q 462 21 506 43 q 380 -8 418 -1 q 315 -14 342 -14 m 376 174 q 449 188 415 174 q 505 230 483 201 q 526 301 526 258 l 526 339 l 446 338 q 353 328 390 338 q 299 301 317 319 q 281 249 281 282 q 305 192 281 211 q 376 174 329 174 m 150 839 q 163 931 153 889 q 190 1005 172 974 q 236 1053 208 1036 q 303 1071 264 1071 q 365 1061 335 1071 q 422 1038 394 1051 q 476 1015 450 1025 q 525 1006 501 1006 q 565 1024 556 1006 q 579 1072 574 1042 l 707 1072 q 660 897 703 954 q 553 840 617 840 q 492 850 522 840 q 431 873 461 860 q 374 896 401 886 q 324 906 347 906 q 294 893 306 906 q 278 839 283 881 l 150 839 z "},"ä":{"ha":833,"x_min":56,"x_max":757,"o":"m 315 -14 q 119 54 183 -14 q 56 229 56 122 q 95 372 56 318 q 205 451 135 425 q 367 481 275 478 l 526 486 l 526 513 q 497 573 526 553 q 401 593 468 593 q 300 583 357 593 q 186 546 243 572 l 113 713 q 265 765 186 749 q 426 782 343 782 q 677 717 597 782 q 757 524 757 653 l 757 0 l 576 0 l 550 92 l 544 92 q 462 21 506 43 q 380 -8 418 -1 q 315 -14 342 -14 m 376 174 q 449 188 415 174 q 505 230 483 201 q 526 301 526 258 l 526 339 l 446 338 q 353 328 390 338 q 299 301 317 319 q 281 249 281 282 q 305 192 281 211 q 376 174 329 174 m 599 844 q 513 874 546 844 q 481 958 481 903 q 514 1046 481 1017 q 599 1075 547 1075 q 683 1045 650 1075 q 717 958 717 1015 q 683 874 717 903 q 599 844 650 844 m 257 844 q 173 874 206 844 q 140 958 140 903 q 173 1046 140 1017 q 257 1075 206 1075 q 342 1045 308 1075 q 376 958 376 1015 q 342 874 376 903 q 257 844 308 844 z "},"å":{"ha":833,"x_min":56,"x_max":757,"o":"m 315 -14 q 119 54 183 -14 q 56 229 56 122 q 95 372 56 318 q 205 451 135 425 q 367 481 275 478 l 526 486 l 526 513 q 497 573 526 553 q 401 593 468 593 q 300 583 357 593 q 186 546 243 572 l 113 713 q 265 765 186 749 q 426 782 343 782 q 677 717 597 782 q 757 524 757 653 l 757 0 l 576 0 l 550 92 l 544 92 q 462 21 506 43 q 380 -8 418 -1 q 315 -14 342 -14 m 376 174 q 449 188 415 174 q 505 230 483 201 q 526 301 526 258 l 526 339 l 446 338 q 353 328 390 338 q 299 301 317 319 q 281 249 281 282 q 305 192 281 211 q 376 174 329 174 m 428 839 q 300 886 349 839 q 251 1011 251 933 q 300 1135 251 1088 q 428 1182 349 1182 q 555 1135 504 1182 q 606 1011 606 1088 q 556 887 606 935 q 428 839 506 839 m 428 954 q 468 970 451 954 q 485 1011 485 986 q 468 1052 485 1036 q 428 1068 451 1068 q 388 1052 404 1068 q 371 1011 371 1036 q 385 970 371 986 q 428 954 400 954 z "},"æ":{"ha":833,"x_min":7,"x_max":826,"o":"m 224 -14 q 65 48 122 -14 q 7 217 7 110 q 39 358 7 304 q 126 438 71 411 q 246 467 181 464 l 329 471 l 329 504 q 306 572 329 554 q 240 590 283 590 q 180 583 208 590 q 126 565 151 576 l 51 729 q 155 769 104 757 q 261 781 206 781 q 360 769 318 781 q 438 732 401 757 q 512 769 478 758 q 588 781 546 781 q 735 732 683 781 q 807 602 788 683 q 826 425 826 521 l 826 322 l 529 322 q 546 240 531 274 q 592 190 561 207 q 668 172 622 172 q 731 183 701 172 q 788 217 760 193 l 788 40 q 713 0 761 14 q 613 -14 665 -14 q 494 14 539 -14 q 411 90 449 42 q 334 13 375 40 q 224 -14 293 -14 m 272 164 q 310 180 299 164 q 326 222 322 196 q 331 282 331 249 l 331 342 l 300 342 q 240 310 263 342 q 218 235 218 279 q 232 183 218 201 q 272 164 246 164 m 640 465 q 635 534 640 507 q 617 575 629 561 q 583 589 604 589 q 539 555 549 589 q 526 465 529 521 l 640 465 z "},"ç":{"ha":833,"x_min":83,"x_max":736,"o":"m 454 -14 q 247 31 329 -14 q 124 162 165 75 q 83 375 83 249 q 124 591 83 500 q 248 732 164 682 q 465 782 332 782 q 604 767 535 782 q 736 722 674 753 l 664 544 q 560 578 600 569 q 483 586 519 586 q 393 564 429 586 q 338 498 357 542 q 319 389 319 454 q 342 268 319 314 q 403 201 364 222 q 490 181 442 181 q 589 194 531 181 q 707 251 647 208 l 707 44 q 583 0 647 14 q 454 -14 519 -14 m 443 -333 q 378 -328 413 -333 q 317 -315 343 -324 l 317 -187 q 360 -197 340 -193 q 399 -201 381 -201 q 440 -191 426 -201 q 454 -162 454 -181 q 431 -125 454 -139 q 358 -106 407 -111 l 403 7 l 522 7 l 506 -44 q 599 -86 564 -56 q 635 -178 635 -117 q 586 -290 635 -247 q 443 -333 538 -333 z "},"è":{"ha":833,"x_min":56,"x_max":776,"o":"m 467 -14 q 239 33 331 -14 q 101 169 147 81 q 56 385 56 258 q 97 595 56 506 q 222 733 139 685 q 425 782 304 782 q 616 737 538 782 q 735 610 694 692 q 776 414 776 528 l 776 308 l 283 308 q 316 233 288 263 q 393 188 344 203 q 503 172 442 172 q 629 188 565 172 q 747 236 693 203 l 747 42 q 603 -2 678 10 q 467 -14 528 -14 m 556 471 q 539 543 556 513 q 493 590 522 574 q 424 607 464 607 q 326 568 360 607 q 288 471 293 529 l 556 471 m 418 842 q 363 886 396 858 q 293 944 329 914 q 225 1003 257 975 q 174 1050 193 1032 l 174 1064 l 446 1064 q 491 996 464 1035 q 545 921 518 957 q 589 861 572 885 l 589 842 l 418 842 z "},"é":{"ha":833,"x_min":56,"x_max":776,"o":"m 467 -14 q 239 33 331 -14 q 101 169 147 81 q 56 385 56 258 q 97 595 56 506 q 222 733 139 685 q 425 782 304 782 q 616 737 538 782 q 735 610 694 692 q 776 414 776 528 l 776 308 l 283 308 q 316 233 288 263 q 393 188 344 203 q 503 172 442 172 q 629 188 565 172 q 747 236 693 203 l 747 42 q 603 -2 678 10 q 467 -14 528 -14 m 556 471 q 539 543 556 513 q 493 590 522 574 q 424 607 464 607 q 326 568 360 607 q 288 471 293 529 l 556 471 m 299 861 q 348 928 322 893 q 399 998 374 963 q 442 1064 424 1033 l 714 1064 l 714 1050 q 644 987 688 1025 q 553 910 600 949 q 469 842 506 871 l 299 842 l 299 861 z "},"ê":{"ha":833,"x_min":56,"x_max":776,"o":"m 467 -14 q 239 33 331 -14 q 101 169 147 81 q 56 385 56 258 q 97 595 56 506 q 222 733 139 685 q 425 782 304 782 q 616 737 538 782 q 735 610 694 692 q 776 414 776 528 l 776 308 l 283 308 q 316 233 288 263 q 393 188 344 203 q 503 172 442 172 q 629 188 565 172 q 747 236 693 203 l 747 42 q 603 -2 678 10 q 467 -14 528 -14 m 556 471 q 539 543 556 513 q 493 590 522 574 q 424 607 464 607 q 326 568 360 607 q 288 471 293 529 l 556 471 m 153 861 q 205 923 175 886 q 263 998 235 960 q 307 1064 290 1036 l 542 1064 q 587 998 561 1033 q 641 927 613 963 q 694 861 669 892 l 694 842 l 540 842 q 483 886 511 861 q 424 943 456 911 q 364 885 390 910 q 310 842 338 861 l 153 842 l 153 861 z "},"ë":{"ha":833,"x_min":56,"x_max":776,"o":"m 467 -14 q 239 33 331 -14 q 101 169 147 81 q 56 385 56 258 q 97 595 56 506 q 222 733 139 685 q 425 782 304 782 q 616 737 538 782 q 735 610 694 692 q 776 414 776 528 l 776 308 l 283 308 q 316 233 288 263 q 393 188 344 203 q 503 172 442 172 q 629 188 565 172 q 747 236 693 203 l 747 42 q 603 -2 678 10 q 467 -14 528 -14 m 556 471 q 539 543 556 513 q 493 590 522 574 q 424 607 464 607 q 326 568 360 607 q 288 471 293 529 l 556 471 m 593 844 q 508 874 540 844 q 475 958 475 903 q 508 1046 475 1017 q 593 1075 542 1075 q 678 1045 644 1075 q 711 958 711 1015 q 678 874 711 903 q 593 844 644 844 m 251 844 q 167 874 200 844 q 135 958 135 903 q 167 1046 135 1017 q 251 1075 200 1075 q 337 1045 303 1075 q 371 958 371 1015 q 337 874 371 903 q 251 844 303 844 z "},"ì":{"ha":833,"x_min":56,"x_max":778,"o":"m 56 0 l 56 172 l 314 194 l 314 574 l 115 593 l 115 768 l 557 768 l 557 194 l 778 172 l 778 0 l 56 0 m 411 842 q 356 886 389 858 q 286 944 322 914 q 218 1003 250 975 q 167 1050 186 1032 l 167 1064 l 439 1064 q 484 996 457 1035 q 538 921 511 957 q 582 861 565 885 l 582 842 l 411 842 z "},"í":{"ha":833,"x_min":56,"x_max":778,"o":"m 56 0 l 56 172 l 314 194 l 314 574 l 115 593 l 115 768 l 557 768 l 557 194 l 778 172 l 778 0 l 56 0 m 292 861 q 341 928 315 893 q 392 998 367 963 q 435 1064 417 1033 l 707 1064 l 707 1050 q 637 987 681 1025 q 546 910 593 949 q 463 842 499 871 l 292 842 l 292 861 z "},"î":{"ha":833,"x_min":56,"x_max":778,"o":"m 56 0 l 56 172 l 314 194 l 314 574 l 115 593 l 115 768 l 557 768 l 557 194 l 778 172 l 778 0 l 56 0 m 146 861 q 198 923 168 886 q 256 998 228 960 q 300 1064 283 1036 l 535 1064 q 580 998 554 1033 q 634 927 606 963 q 688 861 663 892 l 688 842 l 533 842 q 476 886 504 861 q 417 943 449 911 q 357 885 383 910 q 303 842 331 861 l 146 842 l 146 861 z "},"ï":{"ha":833,"x_min":56,"x_max":778,"o":"m 56 0 l 56 172 l 314 194 l 314 574 l 115 593 l 115 768 l 557 768 l 557 194 l 778 172 l 778 0 l 56 0 m 586 844 q 501 874 533 844 q 468 958 468 903 q 501 1046 468 1017 q 586 1075 535 1075 q 671 1045 638 1075 q 704 958 704 1015 q 671 874 704 903 q 586 844 638 844 m 244 844 q 160 874 193 844 q 128 958 128 903 q 160 1046 128 1017 q 244 1075 193 1075 q 330 1045 296 1075 q 364 958 364 1015 q 330 874 364 903 q 244 844 296 844 z "},"ð":{"ha":833,"x_min":42,"x_max":792,"o":"m 414 -14 q 223 26 307 -14 q 90 146 139 67 q 42 342 42 225 q 85 527 42 451 q 202 643 128 603 q 372 683 276 683 q 472 667 433 683 q 526 622 510 651 l 532 625 q 478 713 511 668 q 404 800 446 757 q 315 880 363 843 q 215 943 267 917 l 286 1065 q 504 947 410 1017 q 663 789 599 876 q 759 602 726 701 q 792 394 792 503 q 692 94 792 201 q 414 -14 592 -14 m 419 161 q 494 183 467 161 q 533 243 521 204 q 544 332 544 282 q 532 425 544 386 q 491 485 519 464 q 414 507 463 507 q 342 488 369 507 q 303 431 315 468 q 290 340 290 394 q 303 246 290 286 q 345 183 317 206 q 419 161 374 161 m 286 697 l 211 814 l 611 1065 l 685 949 l 286 697 z "},"ñ":{"ha":833,"x_min":63,"x_max":778,"o":"m 63 0 l 63 768 l 243 768 l 275 671 l 289 671 q 345 731 313 707 q 422 769 378 756 q 519 782 465 782 q 715 708 653 782 q 778 499 778 633 l 778 0 l 535 0 l 535 418 q 510 547 535 508 q 432 586 485 586 q 333 520 360 586 q 306 335 306 454 l 306 0 l 63 0 m 157 839 q 169 931 160 889 q 197 1005 179 974 q 243 1053 215 1036 q 310 1071 271 1071 q 372 1061 342 1071 q 429 1038 401 1051 q 483 1015 457 1025 q 532 1006 508 1006 q 572 1024 563 1006 q 586 1072 581 1042 l 714 1072 q 667 897 710 954 q 560 840 624 840 q 499 850 529 840 q 438 873 468 860 q 381 896 408 886 q 331 906 354 906 q 301 893 313 906 q 285 839 290 881 l 157 839 z "},"ò":{"ha":833,"x_min":42,"x_max":792,"o":"m 424 -14 q 258 15 329 -14 q 138 98 186 44 q 66 226 90 151 q 42 390 42 300 q 82 592 42 504 q 203 731 122 681 q 408 782 285 782 q 615 732 529 782 q 747 590 701 682 q 792 374 792 499 q 769 216 792 288 q 700 93 746 144 q 585 14 654 42 q 424 -14 517 -14 m 417 181 q 497 206 467 181 q 542 277 528 232 q 557 382 557 322 q 542 489 557 443 q 497 560 528 535 q 417 586 465 586 q 310 527 342 586 q 278 382 278 468 q 292 276 278 321 q 338 206 307 231 q 417 181 369 181 m 411 842 q 356 886 389 858 q 286 944 322 914 q 218 1003 250 975 q 167 1050 186 1032 l 167 1064 l 439 1064 q 484 996 457 1035 q 538 921 511 957 q 582 861 565 885 l 582 842 l 411 842 z "},"ó":{"ha":833,"x_min":42,"x_max":792,"o":"m 424 -14 q 258 15 329 -14 q 138 98 186 44 q 66 226 90 151 q 42 390 42 300 q 82 592 42 504 q 203 731 122 681 q 408 782 285 782 q 615 732 529 782 q 747 590 701 682 q 792 374 792 499 q 769 216 792 288 q 700 93 746 144 q 585 14 654 42 q 424 -14 517 -14 m 417 181 q 497 206 467 181 q 542 277 528 232 q 557 382 557 322 q 542 489 557 443 q 497 560 528 535 q 417 586 465 586 q 310 527 342 586 q 278 382 278 468 q 292 276 278 321 q 338 206 307 231 q 417 181 369 181 m 292 861 q 341 928 315 893 q 392 998 367 963 q 435 1064 417 1033 l 707 1064 l 707 1050 q 637 987 681 1025 q 546 910 593 949 q 463 842 499 871 l 292 842 l 292 861 z "},"ô":{"ha":833,"x_min":42,"x_max":792,"o":"m 424 -14 q 258 15 329 -14 q 138 98 186 44 q 66 226 90 151 q 42 390 42 300 q 82 592 42 504 q 203 731 122 681 q 408 782 285 782 q 615 732 529 782 q 747 590 701 682 q 792 374 792 499 q 769 216 792 288 q 700 93 746 144 q 585 14 654 42 q 424 -14 517 -14 m 417 181 q 497 206 467 181 q 542 277 528 232 q 557 382 557 322 q 542 489 557 443 q 497 560 528 535 q 417 586 465 586 q 310 527 342 586 q 278 382 278 468 q 292 276 278 321 q 338 206 307 231 q 417 181 369 181 m 146 861 q 198 923 168 886 q 256 998 228 960 q 300 1064 283 1036 l 535 1064 q 580 998 554 1033 q 634 927 606 963 q 688 861 663 892 l 688 842 l 533 842 q 476 886 504 861 q 417 943 449 911 q 357 885 383 910 q 303 842 331 861 l 146 842 l 146 861 z "},"õ":{"ha":833,"x_min":42,"x_max":792,"o":"m 424 -14 q 258 15 329 -14 q 138 98 186 44 q 66 226 90 151 q 42 390 42 300 q 82 592 42 504 q 203 731 122 681 q 408 782 285 782 q 615 732 529 782 q 747 590 701 682 q 792 374 792 499 q 769 216 792 288 q 700 93 746 144 q 585 14 654 42 q 424 -14 517 -14 m 417 181 q 497 206 467 181 q 542 277 528 232 q 557 382 557 322 q 542 489 557 443 q 497 560 528 535 q 417 586 465 586 q 310 527 342 586 q 278 382 278 468 q 292 276 278 321 q 338 206 307 231 q 417 181 369 181 m 138 839 q 150 931 140 889 q 178 1005 160 974 q 224 1053 196 1036 q 290 1071 251 1071 q 352 1061 322 1071 q 410 1038 382 1051 q 463 1015 438 1025 q 513 1006 489 1006 q 552 1024 543 1006 q 567 1072 561 1042 l 694 1072 q 647 897 690 954 q 540 840 604 840 q 479 850 510 840 q 419 873 449 860 q 362 896 389 886 q 311 906 335 906 q 282 893 293 906 q 265 839 271 881 l 138 839 z "},"ö":{"ha":833,"x_min":42,"x_max":792,"o":"m 424 -14 q 258 15 329 -14 q 138 98 186 44 q 66 226 90 151 q 42 390 42 300 q 82 592 42 504 q 203 731 122 681 q 408 782 285 782 q 615 732 529 782 q 747 590 701 682 q 792 374 792 499 q 769 216 792 288 q 700 93 746 144 q 585 14 654 42 q 424 -14 517 -14 m 417 181 q 497 206 467 181 q 542 277 528 232 q 557 382 557 322 q 542 489 557 443 q 497 560 528 535 q 417 586 465 586 q 310 527 342 586 q 278 382 278 468 q 292 276 278 321 q 338 206 307 231 q 417 181 369 181 m 586 844 q 501 874 533 844 q 468 958 468 903 q 501 1046 468 1017 q 586 1075 535 1075 q 671 1045 638 1075 q 704 958 704 1015 q 671 874 704 903 q 586 844 638 844 m 244 844 q 160 874 193 844 q 128 958 128 903 q 160 1046 128 1017 q 244 1075 193 1075 q 330 1045 296 1075 q 364 958 364 1015 q 330 874 364 903 q 244 844 296 844 z "},"÷":{"ha":833,"x_min":83,"x_max":750,"o":"m 83 399 l 83 581 l 750 581 l 750 399 l 83 399 m 418 103 q 340 132 371 103 q 310 221 310 161 q 340 310 310 282 q 418 338 369 338 q 495 310 465 338 q 525 221 525 282 q 494 133 525 163 q 418 103 464 103 m 418 642 q 340 671 371 642 q 310 760 310 700 q 340 849 310 821 q 418 876 369 876 q 495 849 465 876 q 525 760 525 821 q 494 672 525 701 q 418 642 464 642 z "},"ø":{"ha":833,"x_min":42,"x_max":792,"o":"m 204 -58 l 94 13 l 625 826 l 735 754 l 204 -58 m 424 -14 q 258 15 329 -14 q 138 98 186 44 q 66 226 90 151 q 42 390 42 300 q 82 592 42 504 q 203 731 122 681 q 408 782 285 782 q 615 732 529 782 q 747 590 701 682 q 792 374 792 499 q 769 216 792 288 q 700 93 746 144 q 585 14 654 42 q 424 -14 517 -14 m 417 181 q 497 206 467 181 q 542 277 528 232 q 557 382 557 322 q 542 489 557 443 q 497 560 528 535 q 417 586 465 586 q 310 527 342 586 q 278 382 278 468 q 292 276 278 321 q 338 206 307 231 q 417 181 369 181 z "},"ù":{"ha":833,"x_min":56,"x_max":771,"o":"m 314 -15 q 117 59 179 -15 q 56 268 56 133 l 56 768 l 299 768 l 299 343 q 324 222 299 263 q 408 181 349 181 q 485 208 460 181 q 519 281 511 235 q 528 383 528 328 l 528 768 l 771 768 l 771 0 l 590 0 l 558 96 l 544 96 q 488 35 521 60 q 413 -3 456 10 q 314 -15 369 -15 m 411 842 q 356 886 389 858 q 286 944 322 914 q 218 1003 250 975 q 167 1050 186 1032 l 167 1064 l 439 1064 q 484 996 457 1035 q 538 921 511 957 q 582 861 565 885 l 582 842 l 411 842 z "},"ú":{"ha":833,"x_min":56,"x_max":771,"o":"m 314 -15 q 117 59 179 -15 q 56 268 56 133 l 56 768 l 299 768 l 299 343 q 324 222 299 263 q 408 181 349 181 q 485 208 460 181 q 519 281 511 235 q 528 383 528 328 l 528 768 l 771 768 l 771 0 l 590 0 l 558 96 l 544 96 q 488 35 521 60 q 413 -3 456 10 q 314 -15 369 -15 m 292 861 q 341 928 315 893 q 392 998 367 963 q 435 1064 417 1033 l 707 1064 l 707 1050 q 637 987 681 1025 q 546 910 593 949 q 463 842 499 871 l 292 842 l 292 861 z "},"û":{"ha":833,"x_min":56,"x_max":771,"o":"m 314 -15 q 117 59 179 -15 q 56 268 56 133 l 56 768 l 299 768 l 299 343 q 324 222 299 263 q 408 181 349 181 q 485 208 460 181 q 519 281 511 235 q 528 383 528 328 l 528 768 l 771 768 l 771 0 l 590 0 l 558 96 l 544 96 q 488 35 521 60 q 413 -3 456 10 q 314 -15 369 -15 m 146 861 q 198 923 168 886 q 256 998 228 960 q 300 1064 283 1036 l 535 1064 q 580 998 554 1033 q 634 927 606 963 q 688 861 663 892 l 688 842 l 533 842 q 476 886 504 861 q 417 943 449 911 q 357 885 383 910 q 303 842 331 861 l 146 842 l 146 861 z "},"ü":{"ha":833,"x_min":56,"x_max":771,"o":"m 314 -15 q 117 59 179 -15 q 56 268 56 133 l 56 768 l 299 768 l 299 343 q 324 222 299 263 q 408 181 349 181 q 485 208 460 181 q 519 281 511 235 q 528 383 528 328 l 528 768 l 771 768 l 771 0 l 590 0 l 558 96 l 544 96 q 488 35 521 60 q 413 -3 456 10 q 314 -15 369 -15 m 586 844 q 501 874 533 844 q 468 958 468 903 q 501 1046 468 1017 q 586 1075 535 1075 q 671 1045 638 1075 q 704 958 704 1015 q 671 874 704 903 q 586 844 638 844 m 244 844 q 160 874 193 844 q 128 958 128 903 q 160 1046 128 1017 q 244 1075 193 1075 q 330 1045 296 1075 q 364 958 364 1015 q 330 874 364 903 q 244 844 296 844 z "},"ý":{"ha":833,"x_min":14,"x_max":819,"o":"m 174 -340 q 122 -337 149 -340 q 67 -329 96 -335 l 67 -144 q 105 -151 86 -149 q 140 -153 124 -153 q 216 -140 183 -153 q 272 -101 249 -126 q 308 -37 296 -75 l 325 10 l 14 768 l 275 768 l 404 364 q 420 308 413 338 q 435 238 428 279 l 439 238 q 447 288 443 263 q 456 334 451 313 q 464 365 461 356 l 571 768 l 819 768 l 526 -76 q 451 -222 497 -162 q 336 -310 404 -281 q 174 -340 268 -340 m 292 861 q 341 928 315 893 q 392 998 367 963 q 435 1064 417 1033 l 707 1064 l 707 1050 q 637 987 681 1025 q 546 910 593 949 q 463 842 499 871 l 292 842 l 292 861 z "},"þ":{"ha":833,"x_min":63,"x_max":792,"o":"m 63 -333 l 63 1056 l 303 1056 l 303 864 q 300 772 303 814 q 290 668 297 729 l 301 668 q 361 735 328 710 q 434 771 394 760 q 515 782 474 782 q 647 749 593 782 q 732 661 700 717 q 778 536 764 606 q 792 393 792 467 q 758 181 792 272 q 660 38 725 89 q 503 -14 596 -14 q 433 -5 468 -14 q 364 24 397 4 q 301 78 331 43 l 289 78 q 297 20 292 60 q 301 -46 301 -19 l 301 -333 l 63 -333 m 428 181 q 519 234 490 181 q 549 388 549 288 q 520 536 549 486 q 426 586 492 586 q 334 542 367 586 q 301 406 301 497 l 301 386 q 336 230 301 279 q 428 181 371 181 z "},"ÿ":{"ha":833,"x_min":14,"x_max":819,"o":"m 174 -340 q 122 -337 149 -340 q 67 -329 96 -335 l 67 -144 q 105 -151 86 -149 q 140 -153 124 -153 q 216 -140 183 -153 q 272 -101 249 -126 q 308 -37 296 -75 l 325 10 l 14 768 l 275 768 l 404 364 q 420 308 413 338 q 435 238 428 279 l 439 238 q 447 288 443 263 q 456 334 451 313 q 464 365 461 356 l 571 768 l 819 768 l 526 -76 q 451 -222 497 -162 q 336 -310 404 -281 q 174 -340 268 -340 m 586 844 q 501 874 533 844 q 468 958 468 903 q 501 1046 468 1017 q 586 1075 535 1075 q 671 1045 638 1075 q 704 958 704 1015 q 671 874 704 903 q 586 844 638 844 m 244 844 q 160 874 193 844 q 128 958 128 903 q 160 1046 128 1017 q 244 1075 193 1075 q 330 1045 296 1075 q 364 958 364 1015 q 330 874 364 903 q 244 844 296 844 z "},"Ā":{"ha":833,"x_min":7,"x_max":826,"o":"m 7 0 l 257 996 l 575 996 l 826 0 l 585 0 l 465 588 q 449 668 458 624 q 433 756 440 713 q 419 829 425 799 q 407 756 415 799 q 390 668 399 713 q 372 588 381 624 l 243 0 l 7 0 m 251 204 l 281 400 l 547 400 l 571 204 l 251 204 m 190 1090 l 190 1250 l 643 1250 l 643 1090 l 190 1090 z "},"ā":{"ha":833,"x_min":56,"x_max":757,"o":"m 315 -14 q 119 54 183 -14 q 56 229 56 122 q 95 372 56 318 q 205 451 135 425 q 367 481 275 478 l 526 486 l 526 513 q 497 573 526 553 q 401 593 468 593 q 300 583 357 593 q 186 546 243 572 l 113 713 q 265 765 186 749 q 426 782 343 782 q 677 717 597 782 q 757 524 757 653 l 757 0 l 576 0 l 550 92 l 544 92 q 462 21 506 43 q 380 -8 418 -1 q 315 -14 342 -14 m 376 174 q 449 188 415 174 q 505 230 483 201 q 526 301 526 258 l 526 339 l 446 338 q 353 328 390 338 q 299 301 317 319 q 281 249 281 282 q 305 192 281 211 q 376 174 329 174 m 203 867 l 203 1026 l 656 1026 l 656 867 l 203 867 z "},"Ă":{"ha":833,"x_min":7,"x_max":826,"o":"m 7 0 l 257 996 l 575 996 l 826 0 l 585 0 l 465 588 q 449 668 458 624 q 433 756 440 713 q 419 829 425 799 q 407 756 415 799 q 390 668 399 713 q 372 588 381 624 l 243 0 l 7 0 m 251 204 l 281 400 l 547 400 l 571 204 l 251 204 m 414 1065 q 235 1131 300 1065 q 168 1317 171 1197 l 306 1317 q 327 1260 313 1281 q 364 1233 342 1240 q 414 1225 386 1225 q 487 1244 458 1225 q 524 1317 515 1264 l 664 1317 q 593 1131 660 1197 q 414 1065 526 1065 z "},"ă":{"ha":833,"x_min":56,"x_max":757,"o":"m 315 -14 q 119 54 183 -14 q 56 229 56 122 q 95 372 56 318 q 205 451 135 425 q 367 481 275 478 l 526 486 l 526 513 q 497 573 526 553 q 401 593 468 593 q 300 583 357 593 q 186 546 243 572 l 113 713 q 265 765 186 749 q 426 782 343 782 q 677 717 597 782 q 757 524 757 653 l 757 0 l 576 0 l 550 92 l 544 92 q 462 21 506 43 q 380 -8 418 -1 q 315 -14 342 -14 m 376 174 q 449 188 415 174 q 505 230 483 201 q 526 301 526 258 l 526 339 l 446 338 q 353 328 390 338 q 299 301 317 319 q 281 249 281 282 q 305 192 281 211 q 376 174 329 174 m 426 842 q 248 908 313 842 q 181 1093 183 974 l 318 1093 q 340 1037 325 1057 q 376 1009 354 1017 q 426 1001 399 1001 q 499 1021 471 1001 q 536 1093 528 1040 l 676 1093 q 606 908 672 974 q 426 842 539 842 z "},"Ą":{"ha":833,"x_min":7,"x_max":868,"o":"m 7 0 l 257 996 l 575 996 l 826 0 l 585 0 l 465 588 q 449 668 458 624 q 433 756 440 713 q 419 829 425 799 q 407 756 415 799 q 390 668 399 713 q 372 588 381 624 l 243 0 l 7 0 m 251 204 l 281 400 l 547 400 l 571 204 l 251 204 m 757 -333 q 624 -292 674 -333 q 575 -178 575 -250 q 588 -112 575 -146 q 631 -44 600 -79 q 717 29 663 -8 l 826 0 q 764 -74 782 -46 q 746 -132 746 -101 q 760 -169 746 -156 q 801 -183 775 -183 q 838 -178 819 -183 q 868 -168 856 -174 l 868 -314 q 821 -327 849 -321 q 757 -333 793 -333 z "},"ą":{"ha":833,"x_min":56,"x_max":764,"o":"m 315 -14 q 119 54 183 -14 q 56 229 56 122 q 95 372 56 318 q 205 451 135 425 q 367 481 275 478 l 526 486 l 526 513 q 497 573 526 553 q 401 593 468 593 q 300 583 357 593 q 186 546 243 572 l 113 713 q 265 765 186 749 q 426 782 343 782 q 677 717 597 782 q 757 524 757 653 l 757 0 l 576 0 l 550 92 l 544 92 q 462 21 506 43 q 380 -8 418 -1 q 315 -14 342 -14 m 376 174 q 449 188 415 174 q 505 230 483 201 q 526 301 526 258 l 526 339 l 446 338 q 353 328 390 338 q 299 301 317 319 q 281 249 281 282 q 305 192 281 211 q 376 174 329 174 m 653 -333 q 520 -292 569 -333 q 471 -178 471 -250 q 483 -112 471 -146 q 527 -44 496 -79 q 613 29 558 -8 l 722 0 q 660 -74 678 -46 q 642 -132 642 -101 q 656 -169 642 -156 q 697 -183 671 -183 q 733 -178 715 -183 q 764 -168 751 -174 l 764 -314 q 717 -327 744 -321 q 653 -333 689 -333 z "},"Ć":{"ha":833,"x_min":56,"x_max":786,"o":"m 463 -14 q 238 47 328 -14 q 101 220 147 108 q 56 483 56 332 q 88 704 56 607 q 181 869 119 801 q 328 971 242 936 q 525 1006 415 1006 q 653 992 590 1006 q 785 951 717 979 l 719 746 q 621 780 671 769 q 529 790 571 790 q 421 769 465 790 q 351 707 376 747 q 313 610 325 667 q 301 482 301 553 q 323 319 301 381 q 390 228 344 257 q 504 200 435 200 q 626 217 560 200 q 747 267 693 233 l 747 43 q 608 0 682 14 q 463 -14 535 -14 m 371 1085 q 420 1151 394 1117 q 471 1222 446 1186 q 514 1288 496 1257 l 786 1288 l 786 1274 q 716 1210 760 1249 q 625 1133 672 1172 q 542 1065 578 1094 l 371 1065 l 371 1085 z "},"ć":{"ha":833,"x_min":83,"x_max":736,"o":"m 454 -14 q 247 31 329 -14 q 124 162 165 75 q 83 375 83 249 q 124 591 83 500 q 248 732 164 682 q 465 782 332 782 q 604 767 535 782 q 736 722 674 753 l 664 544 q 560 578 600 569 q 483 586 519 586 q 393 564 429 586 q 338 498 357 542 q 319 389 319 454 q 342 268 319 314 q 403 201 364 222 q 490 181 442 181 q 589 194 531 181 q 707 251 647 208 l 707 44 q 583 0 647 14 q 454 -14 519 -14 m 310 861 q 359 928 333 893 q 410 998 385 963 q 453 1064 435 1033 l 725 1064 l 725 1050 q 655 987 699 1025 q 564 910 611 949 q 481 842 517 871 l 310 842 l 310 861 z "},"Ĉ":{"ha":833,"x_min":56,"x_max":785,"o":"m 463 -14 q 238 47 328 -14 q 101 220 147 108 q 56 483 56 332 q 88 704 56 607 q 181 869 119 801 q 328 971 242 936 q 525 1006 415 1006 q 653 992 590 1006 q 785 951 717 979 l 719 746 q 621 780 671 769 q 529 790 571 790 q 421 769 465 790 q 351 707 376 747 q 313 610 325 667 q 301 482 301 553 q 323 319 301 381 q 390 228 344 257 q 504 200 435 200 q 626 217 560 200 q 747 267 693 233 l 747 43 q 608 0 682 14 q 463 -14 535 -14 m 225 1085 q 277 1147 247 1110 q 335 1222 307 1183 q 379 1288 363 1260 l 614 1288 q 659 1222 633 1257 q 713 1151 685 1186 q 767 1085 742 1115 l 767 1065 l 613 1065 q 556 1110 583 1085 q 496 1167 528 1135 q 436 1109 463 1133 q 382 1065 410 1085 l 225 1065 l 225 1085 z "},"ĉ":{"ha":833,"x_min":83,"x_max":736,"o":"m 454 -14 q 247 31 329 -14 q 124 162 165 75 q 83 375 83 249 q 124 591 83 500 q 248 732 164 682 q 465 782 332 782 q 604 767 535 782 q 736 722 674 753 l 664 544 q 560 578 600 569 q 483 586 519 586 q 393 564 429 586 q 338 498 357 542 q 319 389 319 454 q 342 268 319 314 q 403 201 364 222 q 490 181 442 181 q 589 194 531 181 q 707 251 647 208 l 707 44 q 583 0 647 14 q 454 -14 519 -14 m 164 861 q 216 923 186 886 q 274 998 246 960 q 318 1064 301 1036 l 553 1064 q 598 998 572 1033 q 652 927 624 963 q 706 861 681 892 l 706 842 l 551 842 q 494 886 522 861 q 435 943 467 911 q 375 885 401 910 q 321 842 349 861 l 164 842 l 164 861 z "},"Ċ":{"ha":833,"x_min":56,"x_max":785,"o":"m 463 -14 q 238 47 328 -14 q 101 220 147 108 q 56 483 56 332 q 88 704 56 607 q 181 869 119 801 q 328 971 242 936 q 525 1006 415 1006 q 653 992 590 1006 q 785 951 717 979 l 719 746 q 621 780 671 769 q 529 790 571 790 q 421 769 465 790 q 351 707 376 747 q 313 610 325 667 q 301 482 301 553 q 323 319 301 381 q 390 228 344 257 q 504 200 435 200 q 626 217 560 200 q 747 267 693 233 l 747 43 q 608 0 682 14 q 463 -14 535 -14 m 499 1058 q 390 1090 428 1058 q 353 1182 353 1121 q 389 1272 353 1240 q 499 1303 425 1303 q 607 1272 572 1303 q 642 1182 642 1240 q 608 1092 642 1125 q 499 1058 574 1058 z "},"ċ":{"ha":833,"x_min":83,"x_max":736,"o":"m 454 -14 q 247 31 329 -14 q 124 162 165 75 q 83 375 83 249 q 124 591 83 500 q 248 732 164 682 q 465 782 332 782 q 604 767 535 782 q 736 722 674 753 l 664 544 q 560 578 600 569 q 483 586 519 586 q 393 564 429 586 q 338 498 357 542 q 319 389 319 454 q 342 268 319 314 q 403 201 364 222 q 490 181 442 181 q 589 194 531 181 q 707 251 647 208 l 707 44 q 583 0 647 14 q 454 -14 519 -14 m 438 835 q 329 866 367 835 q 292 958 292 897 q 328 1048 292 1017 q 438 1079 364 1079 q 546 1048 511 1079 q 581 958 581 1017 q 547 868 581 901 q 438 835 513 835 z "},"Č":{"ha":833,"x_min":56,"x_max":785,"o":"m 463 -14 q 238 47 328 -14 q 101 220 147 108 q 56 483 56 332 q 88 704 56 607 q 181 869 119 801 q 328 971 242 936 q 525 1006 415 1006 q 653 992 590 1006 q 785 951 717 979 l 719 746 q 621 780 671 769 q 529 790 571 790 q 421 769 465 790 q 351 707 376 747 q 313 610 325 667 q 301 482 301 553 q 323 319 301 381 q 390 228 344 257 q 504 200 435 200 q 626 217 560 200 q 747 267 693 233 l 747 43 q 608 0 682 14 q 463 -14 535 -14 m 379 1065 q 335 1133 363 1094 q 277 1208 307 1171 q 225 1268 247 1244 l 225 1288 l 382 1288 q 438 1243 411 1268 q 496 1186 464 1218 q 556 1244 528 1219 q 613 1288 583 1269 l 767 1288 l 767 1268 q 717 1207 746 1243 q 660 1133 688 1171 q 614 1065 632 1096 l 379 1065 z "},"č":{"ha":833,"x_min":83,"x_max":736,"o":"m 454 -14 q 247 31 329 -14 q 124 162 165 75 q 83 375 83 249 q 124 591 83 500 q 248 732 164 682 q 465 782 332 782 q 604 767 535 782 q 736 722 674 753 l 664 544 q 560 578 600 569 q 483 586 519 586 q 393 564 429 586 q 338 498 357 542 q 319 389 319 454 q 342 268 319 314 q 403 201 364 222 q 490 181 442 181 q 589 194 531 181 q 707 251 647 208 l 707 44 q 583 0 647 14 q 454 -14 519 -14 m 318 842 q 274 909 301 871 q 216 984 246 947 q 164 1044 186 1021 l 164 1064 l 321 1064 q 376 1019 350 1044 q 435 963 403 994 q 494 1021 467 996 q 551 1064 522 1046 l 706 1064 l 706 1044 q 656 983 685 1019 q 599 910 626 947 q 553 842 571 872 l 318 842 z "},"Ď":{"ha":833,"x_min":56,"x_max":806,"o":"m 56 0 l 56 992 l 356 992 q 599 937 499 992 q 752 776 699 882 q 806 517 806 671 q 748 233 806 349 q 585 59 690 118 q 336 0 481 0 l 56 0 m 339 201 q 506 279 451 201 q 560 507 560 357 q 537 666 560 603 q 468 760 514 729 q 354 790 422 790 l 286 790 l 286 201 l 339 201 m 279 1065 q 235 1133 263 1094 q 177 1208 207 1171 q 125 1268 147 1244 l 125 1288 l 282 1288 q 338 1243 311 1268 q 396 1186 364 1218 q 456 1244 428 1219 q 513 1288 483 1269 l 667 1288 l 667 1268 q 617 1207 646 1243 q 560 1133 588 1171 q 514 1065 532 1096 l 279 1065 z "},"ď":{"ha":833,"x_min":28,"x_max":1007,"o":"m 282 -14 q 164 19 213 -14 q 85 108 115 51 q 42 235 56 164 q 28 381 28 306 q 56 581 28 489 q 142 727 83 672 q 294 782 201 782 q 367 770 333 782 q 431 733 401 758 q 489 667 461 708 l 494 667 q 483 740 488 711 q 478 792 479 769 q 476 842 476 815 l 476 1056 l 715 1056 l 715 0 l 535 0 l 488 97 l 476 97 q 387 12 435 38 q 282 -14 339 -14 m 369 181 q 467 230 436 181 q 497 360 497 279 l 497 379 q 487 484 497 438 q 450 558 476 531 q 375 586 424 586 q 309 563 333 586 q 274 494 285 540 q 263 378 263 449 q 288 224 263 268 q 369 181 314 181 m 746 844 q 757 892 751 865 q 768 948 763 918 q 778 1006 774 978 q 786 1056 783 1033 l 1007 1056 l 1007 1040 q 972 976 990 1008 q 934 908 954 943 q 889 833 914 874 l 746 833 l 746 844 z "},"Đ":{"ha":833,"x_min":0,"x_max":806,"o":"m 0 390 l 0 590 l 411 590 l 411 390 l 0 390 m 56 0 l 56 992 l 356 992 q 599 937 499 992 q 752 776 699 882 q 806 517 806 671 q 748 233 806 349 q 585 59 690 118 q 336 0 481 0 l 56 0 m 339 201 q 506 279 451 201 q 560 507 560 357 q 537 666 560 603 q 468 760 514 729 q 354 790 422 790 l 286 790 l 286 201 l 339 201 z "},"đ":{"ha":833,"x_min":42,"x_max":833,"o":"m 314 -14 q 185 18 238 -14 q 101 104 133 50 q 56 227 69 158 q 42 369 42 296 q 71 561 42 474 q 163 701 100 649 q 326 754 225 754 q 408 742 368 754 q 482 706 447 731 q 544 639 517 681 l 550 639 q 539 714 543 683 q 533 773 535 744 q 532 842 532 801 l 532 1056 l 771 1056 l 771 0 l 590 0 l 543 97 l 532 97 q 469 33 504 58 q 394 -3 433 8 q 314 -14 356 -14 m 418 181 q 523 227 493 181 q 553 346 553 274 l 553 365 q 542 467 553 424 q 504 535 532 511 q 424 558 476 558 q 322 508 357 558 q 286 364 286 458 q 322 224 286 267 q 418 181 358 181 m 367 799 l 367 951 l 833 951 l 833 799 l 367 799 z "},"Ē":{"ha":833,"x_min":83,"x_max":750,"o":"m 83 0 l 83 992 l 750 992 l 750 783 l 321 783 l 321 614 l 732 614 l 732 406 l 321 406 l 321 208 l 750 208 l 750 0 l 83 0 m 193 1090 l 193 1250 l 646 1250 l 646 1090 l 193 1090 z "},"ē":{"ha":833,"x_min":56,"x_max":776,"o":"m 467 -14 q 239 33 331 -14 q 101 169 147 81 q 56 385 56 258 q 97 595 56 506 q 222 733 139 685 q 425 782 304 782 q 616 737 538 782 q 735 610 694 692 q 776 414 776 528 l 776 308 l 283 308 q 316 233 288 263 q 393 188 344 203 q 503 172 442 172 q 629 188 565 172 q 747 236 693 203 l 747 42 q 603 -2 678 10 q 467 -14 528 -14 m 556 471 q 539 543 556 513 q 493 590 522 574 q 424 607 464 607 q 326 568 360 607 q 288 471 293 529 l 556 471 m 197 867 l 197 1026 l 650 1026 l 650 867 l 197 867 z "},"Ĕ":{"ha":833,"x_min":83,"x_max":750,"o":"m 83 0 l 83 992 l 750 992 l 750 783 l 321 783 l 321 614 l 732 614 l 732 406 l 321 406 l 321 208 l 750 208 l 750 0 l 83 0 m 417 1065 q 238 1131 303 1065 q 171 1317 174 1197 l 308 1317 q 330 1260 315 1281 q 367 1233 344 1240 q 417 1225 389 1225 q 490 1244 461 1225 q 526 1317 518 1264 l 667 1317 q 596 1131 663 1197 q 417 1065 529 1065 z "},"ĕ":{"ha":833,"x_min":56,"x_max":776,"o":"m 467 -14 q 239 33 331 -14 q 101 169 147 81 q 56 385 56 258 q 97 595 56 506 q 222 733 139 685 q 425 782 304 782 q 616 737 538 782 q 735 610 694 692 q 776 414 776 528 l 776 308 l 283 308 q 316 233 288 263 q 393 188 344 203 q 503 172 442 172 q 629 188 565 172 q 747 236 693 203 l 747 42 q 603 -2 678 10 q 467 -14 528 -14 m 556 471 q 539 543 556 513 q 493 590 522 574 q 424 607 464 607 q 326 568 360 607 q 288 471 293 529 l 556 471 m 421 842 q 242 908 307 842 q 175 1093 178 974 l 313 1093 q 334 1037 319 1057 q 371 1009 349 1017 q 421 1001 393 1001 q 494 1021 465 1001 q 531 1093 522 1040 l 671 1093 q 600 908 667 974 q 421 842 533 842 z "},"Ė":{"ha":833,"x_min":83,"x_max":750,"o":"m 83 0 l 83 992 l 750 992 l 750 783 l 321 783 l 321 614 l 732 614 l 732 406 l 321 406 l 321 208 l 750 208 l 750 0 l 83 0 m 422 1058 q 314 1090 351 1058 q 276 1182 276 1121 q 313 1272 276 1240 q 422 1303 349 1303 q 531 1272 496 1303 q 565 1182 565 1240 q 531 1092 565 1125 q 422 1058 497 1058 z "},"ė":{"ha":833,"x_min":56,"x_max":776,"o":"m 467 -14 q 239 33 331 -14 q 101 169 147 81 q 56 385 56 258 q 97 595 56 506 q 222 733 139 685 q 425 782 304 782 q 616 737 538 782 q 735 610 694 692 q 776 414 776 528 l 776 308 l 283 308 q 316 233 288 263 q 393 188 344 203 q 503 172 442 172 q 629 188 565 172 q 747 236 693 203 l 747 42 q 603 -2 678 10 q 467 -14 528 -14 m 556 471 q 539 543 556 513 q 493 590 522 574 q 424 607 464 607 q 326 568 360 607 q 288 471 293 529 l 556 471 m 426 835 q 318 866 356 835 q 281 958 281 897 q 317 1048 281 1017 q 426 1079 353 1079 q 535 1048 500 1079 q 569 958 569 1017 q 535 868 569 901 q 426 835 501 835 z "},"Ę":{"ha":833,"x_min":83,"x_max":750,"o":"m 83 0 l 83 992 l 750 992 l 750 783 l 321 783 l 321 614 l 732 614 l 732 406 l 321 406 l 321 208 l 750 208 l 750 0 l 83 0 m 600 -333 q 467 -292 517 -333 q 418 -178 418 -250 q 431 -112 418 -146 q 474 -44 443 -79 q 560 29 506 -8 l 669 0 q 607 -74 625 -46 q 589 -132 589 -101 q 603 -169 589 -156 q 644 -183 618 -183 q 681 -178 663 -183 q 711 -168 699 -174 l 711 -314 q 664 -327 692 -321 q 600 -333 636 -333 z "},"ę":{"ha":833,"x_min":56,"x_max":776,"o":"m 629 -333 q 496 -292 546 -333 q 446 -175 446 -251 q 472 -76 446 -118 q 542 1 499 -35 q 638 71 586 36 l 747 42 q 674 -17 703 13 q 631 -75 644 -47 q 617 -129 617 -103 q 631 -169 617 -156 q 672 -183 646 -183 q 708 -178 690 -183 q 739 -168 726 -174 l 739 -314 q 692 -327 719 -321 q 629 -333 665 -333 m 467 -14 q 239 33 331 -14 q 101 169 147 81 q 56 385 56 258 q 97 595 56 506 q 222 733 139 685 q 425 782 304 782 q 616 737 538 782 q 735 610 694 692 q 776 414 776 528 l 776 308 l 283 308 q 316 233 288 263 q 393 188 344 203 q 503 172 442 172 q 629 188 565 172 q 747 236 693 203 l 747 42 q 603 -2 678 10 q 467 -14 528 -14 m 556 471 q 539 543 556 513 q 493 590 522 574 q 424 607 464 607 q 326 568 360 607 q 288 471 293 529 l 556 471 z "},"Ě":{"ha":833,"x_min":83,"x_max":750,"o":"m 83 0 l 83 992 l 750 992 l 750 783 l 321 783 l 321 614 l 732 614 l 732 406 l 321 406 l 321 208 l 750 208 l 750 0 l 83 0 m 303 1065 q 258 1133 286 1094 q 201 1208 231 1171 q 149 1268 171 1244 l 149 1288 l 306 1288 q 361 1243 335 1268 q 419 1186 388 1218 q 479 1244 451 1219 q 536 1288 507 1269 l 690 1288 l 690 1268 q 640 1207 669 1243 q 583 1133 611 1171 q 538 1065 556 1096 l 303 1065 z "},"ě":{"ha":833,"x_min":56,"x_max":776,"o":"m 467 -14 q 239 33 331 -14 q 101 169 147 81 q 56 385 56 258 q 97 595 56 506 q 222 733 139 685 q 425 782 304 782 q 616 737 538 782 q 735 610 694 692 q 776 414 776 528 l 776 308 l 283 308 q 316 233 288 263 q 393 188 344 203 q 503 172 442 172 q 629 188 565 172 q 747 236 693 203 l 747 42 q 603 -2 678 10 q 467 -14 528 -14 m 556 471 q 539 543 556 513 q 493 590 522 574 q 424 607 464 607 q 326 568 360 607 q 288 471 293 529 l 556 471 m 307 842 q 263 909 290 871 q 205 984 235 947 q 153 1044 175 1021 l 153 1064 l 310 1064 q 365 1019 339 1044 q 424 963 392 994 q 483 1021 456 996 q 540 1064 511 1046 l 694 1064 l 694 1044 q 644 983 674 1019 q 588 910 615 947 q 542 842 560 872 l 307 842 z "},"Ĝ":{"ha":833,"x_min":28,"x_max":778,"o":"m 490 -14 q 229 47 332 -14 q 77 219 126 107 q 28 486 28 332 q 80 765 28 649 q 235 944 132 882 q 488 1006 338 1006 q 646 988 574 1006 q 775 943 718 969 l 703 746 q 609 783 657 769 q 511 796 561 796 q 378 762 433 796 q 296 660 324 728 q 268 493 268 593 q 291 339 268 406 q 360 235 314 272 q 479 199 407 199 q 516 201 496 199 q 560 210 536 204 l 560 388 l 444 388 l 444 581 l 778 581 l 778 46 q 630 0 699 14 q 490 -14 561 -14 m 188 1085 q 240 1147 210 1110 q 297 1222 269 1183 q 342 1288 325 1260 l 576 1288 q 622 1222 596 1257 q 676 1151 647 1186 q 729 1085 704 1115 l 729 1065 l 575 1065 q 518 1110 546 1085 q 458 1167 490 1135 q 399 1109 425 1133 q 344 1065 372 1085 l 188 1065 l 188 1085 z "},"ĝ":{"ha":833,"x_min":42,"x_max":771,"o":"m 347 -340 q 225 -332 290 -340 q 88 -297 160 -324 l 88 -94 q 229 -136 167 -124 q 347 -149 292 -149 q 490 -115 440 -149 q 539 -3 539 -81 l 539 4 q 539 50 539 31 q 539 93 539 69 l 533 93 q 442 8 493 29 q 331 -14 392 -14 q 117 90 193 -14 q 42 382 42 193 q 122 681 42 581 q 328 782 203 782 q 445 754 393 782 q 538 669 497 726 l 542 669 l 597 767 l 771 767 l 771 35 q 728 -172 771 -89 q 592 -298 685 -256 q 347 -340 499 -340 m 419 181 q 478 192 453 181 q 519 226 503 204 q 542 282 535 249 q 550 357 550 315 l 550 379 q 537 493 550 447 q 494 563 524 539 q 417 586 465 586 q 317 535 351 586 q 282 378 282 485 q 315 234 282 288 q 419 181 347 181 m 146 861 q 198 923 168 886 q 256 998 228 960 q 300 1064 283 1036 l 535 1064 q 580 998 554 1033 q 634 927 606 963 q 688 861 663 892 l 688 842 l 533 842 q 476 886 504 861 q 417 943 449 911 q 357 885 383 910 q 303 842 331 861 l 146 842 l 146 861 z "},"Ğ":{"ha":833,"x_min":28,"x_max":778,"o":"m 490 -14 q 229 47 332 -14 q 77 219 126 107 q 28 486 28 332 q 80 765 28 649 q 235 944 132 882 q 488 1006 338 1006 q 646 988 574 1006 q 775 943 718 969 l 703 746 q 609 783 657 769 q 511 796 561 796 q 378 762 433 796 q 296 660 324 728 q 268 493 268 593 q 291 339 268 406 q 360 235 314 272 q 479 199 407 199 q 516 201 496 199 q 560 210 536 204 l 560 388 l 444 388 l 444 581 l 778 581 l 778 46 q 630 0 699 14 q 490 -14 561 -14 m 456 1065 q 277 1131 342 1065 q 210 1317 213 1197 l 347 1317 q 369 1260 354 1281 q 406 1233 383 1240 q 456 1225 428 1225 q 528 1244 500 1225 q 565 1317 557 1264 l 706 1317 q 635 1131 701 1197 q 456 1065 568 1065 z "},"ğ":{"ha":833,"x_min":42,"x_max":771,"o":"m 347 -340 q 225 -332 290 -340 q 88 -297 160 -324 l 88 -94 q 229 -136 167 -124 q 347 -149 292 -149 q 490 -115 440 -149 q 539 -3 539 -81 l 539 4 q 539 50 539 31 q 539 93 539 69 l 533 93 q 442 8 493 29 q 331 -14 392 -14 q 117 90 193 -14 q 42 382 42 193 q 122 681 42 581 q 328 782 203 782 q 445 754 393 782 q 538 669 497 726 l 542 669 l 597 767 l 771 767 l 771 35 q 728 -172 771 -89 q 592 -298 685 -256 q 347 -340 499 -340 m 419 181 q 478 192 453 181 q 519 226 503 204 q 542 282 535 249 q 550 357 550 315 l 550 379 q 537 493 550 447 q 494 563 524 539 q 417 586 465 586 q 317 535 351 586 q 282 378 282 485 q 315 234 282 288 q 419 181 347 181 m 414 842 q 235 908 300 842 q 168 1093 171 974 l 306 1093 q 327 1037 313 1057 q 364 1009 342 1017 q 414 1001 386 1001 q 487 1021 458 1001 q 524 1093 515 1040 l 664 1093 q 593 908 660 974 q 414 842 526 842 z "},"Ġ":{"ha":833,"x_min":28,"x_max":778,"o":"m 490 -14 q 229 47 332 -14 q 77 219 126 107 q 28 486 28 332 q 80 765 28 649 q 235 944 132 882 q 488 1006 338 1006 q 646 988 574 1006 q 775 943 718 969 l 703 746 q 609 783 657 769 q 511 796 561 796 q 378 762 433 796 q 296 660 324 728 q 268 493 268 593 q 291 339 268 406 q 360 235 314 272 q 479 199 407 199 q 516 201 496 199 q 560 210 536 204 l 560 388 l 444 388 l 444 581 l 778 581 l 778 46 q 630 0 699 14 q 490 -14 561 -14 m 461 1058 q 353 1090 390 1058 q 315 1182 315 1121 q 351 1272 315 1240 q 461 1303 388 1303 q 569 1272 535 1303 q 604 1182 604 1240 q 570 1092 604 1125 q 461 1058 536 1058 z "},"ġ":{"ha":833,"x_min":42,"x_max":771,"o":"m 347 -340 q 225 -332 290 -340 q 88 -297 160 -324 l 88 -94 q 229 -136 167 -124 q 347 -149 292 -149 q 490 -115 440 -149 q 539 -3 539 -81 l 539 4 q 539 50 539 31 q 539 93 539 69 l 533 93 q 442 8 493 29 q 331 -14 392 -14 q 117 90 193 -14 q 42 382 42 193 q 122 681 42 581 q 328 782 203 782 q 445 754 393 782 q 538 669 497 726 l 542 669 l 597 767 l 771 767 l 771 35 q 728 -172 771 -89 q 592 -298 685 -256 q 347 -340 499 -340 m 419 181 q 478 192 453 181 q 519 226 503 204 q 542 282 535 249 q 550 357 550 315 l 550 379 q 537 493 550 447 q 494 563 524 539 q 417 586 465 586 q 317 535 351 586 q 282 378 282 485 q 315 234 282 288 q 419 181 347 181 m 419 835 q 311 866 349 835 q 274 958 274 897 q 310 1048 274 1017 q 419 1079 346 1079 q 528 1048 493 1079 q 563 958 563 1017 q 528 868 563 901 q 419 835 494 835 z "},"Ģ":{"ha":833,"x_min":28,"x_max":778,"o":"m 490 -14 q 229 47 332 -14 q 77 219 126 107 q 28 486 28 332 q 80 765 28 649 q 235 944 132 882 q 488 1006 338 1006 q 646 988 574 1006 q 775 943 718 969 l 703 746 q 609 783 657 769 q 511 796 561 796 q 378 762 433 796 q 296 660 324 728 q 268 493 268 593 q 291 339 268 406 q 360 235 314 272 q 479 199 407 199 q 516 201 496 199 q 560 210 536 204 l 560 388 l 444 388 l 444 581 l 778 581 l 778 46 q 630 0 699 14 q 490 -14 561 -14 m 325 -287 q 341 -223 333 -260 q 354 -149 349 -186 q 361 -85 360 -112 l 583 -85 l 583 -100 q 551 -168 568 -135 q 515 -235 535 -201 q 469 -307 496 -269 l 325 -307 l 325 -287 z "},"ģ":{"ha":833,"x_min":42,"x_max":771,"o":"m 308 843 q 338 914 322 878 q 372 988 353 950 q 415 1064 392 1025 l 560 1064 l 560 1053 q 547 983 554 1025 q 533 900 539 942 q 525 828 528 858 l 308 828 l 308 843 m 347 -340 q 225 -332 290 -340 q 88 -297 160 -324 l 88 -94 q 229 -136 167 -124 q 347 -149 292 -149 q 490 -115 440 -149 q 539 -3 539 -81 l 539 4 q 539 50 539 31 q 539 93 539 69 l 533 93 q 442 8 493 29 q 331 -14 392 -14 q 117 90 193 -14 q 42 382 42 193 q 122 681 42 581 q 328 782 203 782 q 445 754 393 782 q 538 669 497 726 l 542 669 l 597 767 l 771 767 l 771 35 q 728 -172 771 -89 q 592 -298 685 -256 q 347 -340 499 -340 m 419 181 q 478 192 453 181 q 519 226 503 204 q 542 282 535 249 q 550 357 550 315 l 550 379 q 537 493 550 447 q 494 563 524 539 q 417 586 465 586 q 317 535 351 586 q 282 378 282 485 q 315 234 282 288 q 419 181 347 181 z "},"Ĥ":{"ha":833,"x_min":56,"x_max":778,"o":"m 56 0 l 56 992 l 301 992 l 301 621 l 532 621 l 532 992 l 778 992 l 778 0 l 532 0 l 532 413 l 301 413 l 301 0 l 56 0 m 146 1085 q 198 1147 168 1110 q 256 1222 228 1183 q 300 1288 283 1260 l 535 1288 q 580 1222 554 1257 q 634 1151 606 1186 q 688 1085 663 1115 l 688 1065 l 533 1065 q 476 1110 504 1085 q 417 1167 449 1135 q 357 1109 383 1133 q 303 1065 331 1085 l 146 1065 l 146 1085 z "},"ĥ":{"ha":833,"x_min":-89,"x_max":778,"o":"m 63 0 l 63 1056 l 306 1056 l 306 896 q 301 783 306 839 q 293 671 296 728 l 307 671 q 362 733 332 708 q 430 770 392 758 q 518 782 468 782 q 714 706 650 782 q 778 499 778 629 l 778 0 l 535 0 l 535 418 q 513 543 535 500 q 428 586 490 586 q 360 564 388 586 q 319 487 332 542 q 306 335 306 432 l 306 0 l 63 0 m -89 1149 q -37 1210 -67 1174 q 21 1285 -7 1247 q 65 1351 49 1324 l 300 1351 q 345 1285 319 1321 q 399 1215 371 1250 q 453 1149 428 1179 l 453 1129 l 299 1129 q 242 1174 269 1149 q 182 1231 214 1199 q 122 1173 149 1197 q 68 1129 96 1149 l -89 1129 l -89 1149 z "},"Ħ":{"ha":833,"x_min":0,"x_max":833,"o":"m 0 724 l 0 874 l 833 874 l 833 724 l 0 724 m 69 0 l 69 992 l 315 992 l 315 621 l 518 621 l 518 992 l 764 992 l 764 0 l 518 0 l 518 413 l 315 413 l 315 0 l 69 0 z "},"ħ":{"ha":833,"x_min":0,"x_max":778,"o":"m 0 799 l 0 951 l 528 951 l 528 799 l 0 799 m 63 0 l 63 1056 l 306 1056 l 306 896 q 301 748 306 824 q 293 615 296 672 l 307 615 q 362 678 332 653 q 430 715 392 703 q 518 726 468 726 q 714 650 650 726 q 778 443 778 574 l 778 0 l 535 0 l 535 363 q 513 488 535 444 q 428 531 490 531 q 360 508 388 531 q 319 431 332 486 q 306 279 306 376 l 306 0 l 63 0 z "},"Ĩ":{"ha":833,"x_min":97,"x_max":736,"o":"m 97 0 l 97 174 l 299 196 l 299 796 l 97 818 l 97 992 l 736 992 l 736 818 l 533 796 l 533 196 l 736 174 l 736 0 l 97 0 m 138 1063 q 150 1155 140 1113 q 178 1228 160 1197 q 224 1277 196 1260 q 290 1294 251 1294 q 352 1285 322 1294 q 410 1262 382 1275 q 463 1239 438 1249 q 513 1229 489 1229 q 552 1247 543 1229 q 567 1296 561 1265 l 694 1296 q 647 1121 690 1178 q 540 1064 604 1064 q 479 1074 510 1064 q 419 1097 449 1083 q 362 1119 389 1110 q 311 1129 335 1129 q 282 1117 293 1129 q 265 1063 271 1104 l 138 1063 z "},"ĩ":{"ha":833,"x_min":56,"x_max":778,"o":"m 56 0 l 56 172 l 314 194 l 314 574 l 115 593 l 115 768 l 557 768 l 557 194 l 778 172 l 778 0 l 56 0 m 138 839 q 150 931 140 889 q 178 1005 160 974 q 224 1053 196 1036 q 290 1071 251 1071 q 352 1061 322 1071 q 410 1038 382 1051 q 463 1015 438 1025 q 513 1006 489 1006 q 552 1024 543 1006 q 567 1072 561 1042 l 694 1072 q 647 897 690 954 q 540 840 604 840 q 479 850 510 840 q 419 873 449 860 q 362 896 389 886 q 311 906 335 906 q 282 893 293 906 q 265 839 271 881 l 138 839 z "},"Ī":{"ha":833,"x_min":97,"x_max":736,"o":"m 97 0 l 97 174 l 299 196 l 299 796 l 97 818 l 97 992 l 736 992 l 736 818 l 533 796 l 533 196 l 736 174 l 736 0 l 97 0 m 190 1090 l 190 1250 l 643 1250 l 643 1090 l 190 1090 z "},"ī":{"ha":833,"x_min":56,"x_max":778,"o":"m 56 0 l 56 172 l 314 194 l 314 574 l 115 593 l 115 768 l 557 768 l 557 194 l 778 172 l 778 0 l 56 0 m 190 867 l 190 1026 l 643 1026 l 643 867 l 190 867 z "},"Ĭ":{"ha":833,"x_min":97,"x_max":736,"o":"m 97 0 l 97 174 l 299 196 l 299 796 l 97 818 l 97 992 l 736 992 l 736 818 l 533 796 l 533 196 l 736 174 l 736 0 l 97 0 m 414 1065 q 235 1131 300 1065 q 168 1317 171 1197 l 306 1317 q 327 1260 313 1281 q 364 1233 342 1240 q 414 1225 386 1225 q 487 1244 458 1225 q 524 1317 515 1264 l 664 1317 q 593 1131 660 1197 q 414 1065 526 1065 z "},"ĭ":{"ha":833,"x_min":56,"x_max":778,"o":"m 56 0 l 56 172 l 314 194 l 314 574 l 115 593 l 115 768 l 557 768 l 557 194 l 778 172 l 778 0 l 56 0 m 414 842 q 235 908 300 842 q 168 1093 171 974 l 306 1093 q 327 1037 313 1057 q 364 1009 342 1017 q 414 1001 386 1001 q 487 1021 458 1001 q 524 1093 515 1040 l 664 1093 q 593 908 660 974 q 414 842 526 842 z "},"Į":{"ha":833,"x_min":97,"x_max":736,"o":"m 97 0 l 97 174 l 299 196 l 299 796 l 97 818 l 97 992 l 736 992 l 736 818 l 533 796 l 533 196 l 736 174 l 736 0 l 97 0 m 531 -333 q 398 -292 447 -333 q 349 -178 349 -250 q 361 -112 349 -146 q 405 -44 374 -79 q 490 29 436 -8 l 600 0 q 538 -74 556 -46 q 519 -132 519 -101 q 534 -169 519 -156 q 575 -183 549 -183 q 611 -178 593 -183 q 642 -168 629 -174 l 642 -314 q 594 -327 622 -321 q 531 -333 567 -333 z "},"į":{"ha":833,"x_min":56,"x_max":778,"o":"m 56 0 l 56 172 l 314 194 l 314 574 l 115 593 l 115 768 l 557 768 l 557 194 l 778 172 l 778 0 l 56 0 m 435 835 q 326 866 364 835 q 289 958 289 897 q 325 1048 289 1017 q 435 1079 361 1079 q 543 1048 508 1079 q 578 958 578 1017 q 544 868 578 901 q 435 835 510 835 m 600 -333 q 467 -292 517 -333 q 418 -178 418 -250 q 431 -112 418 -146 q 474 -44 443 -79 q 560 29 506 -8 l 669 0 q 607 -74 625 -46 q 589 -132 589 -101 q 603 -169 589 -156 q 644 -183 618 -183 q 681 -178 663 -183 q 711 -168 699 -174 l 711 -314 q 664 -327 692 -321 q 600 -333 636 -333 z "},"İ":{"ha":833,"x_min":97,"x_max":736,"o":"m 97 0 l 97 174 l 299 196 l 299 796 l 97 818 l 97 992 l 736 992 l 736 818 l 533 796 l 533 196 l 736 174 l 736 0 l 97 0 m 419 1058 q 311 1090 349 1058 q 274 1182 274 1121 q 310 1272 274 1240 q 419 1303 346 1303 q 528 1272 493 1303 q 563 1182 563 1240 q 528 1092 563 1125 q 419 1058 494 1058 z "},"Ĳ":{"ha":833,"x_min":103,"x_max":729,"o":"m 363 -14 q 289 -11 332 -14 q 197 -1 246 -8 q 103 15 149 6 l 103 228 q 183 214 150 219 q 242 206 215 208 q 296 203 268 203 q 410 223 368 203 q 472 299 453 243 q 490 460 490 354 l 490 992 l 729 992 l 729 426 q 694 189 729 288 q 580 38 660 90 q 363 -14 500 -14 m 103 349 l 103 992 l 338 992 l 338 349 l 103 349 z "},"ĳ":{"ha":833,"x_min":76,"x_max":757,"o":"m 399 -340 q 294 -332 350 -340 q 181 -306 238 -324 l 181 -115 q 244 -131 213 -125 q 303 -139 276 -136 q 350 -142 331 -142 q 435 -126 406 -142 q 476 -70 464 -110 q 488 39 488 -31 l 488 768 l 731 768 l 731 -17 q 656 -260 731 -179 q 399 -340 581 -340 m 96 0 l 96 768 l 339 768 l 339 0 l 96 0 m 222 835 q 114 866 151 835 q 76 958 76 897 q 113 1048 76 1017 q 222 1079 149 1079 q 331 1048 296 1079 q 365 958 365 1017 q 331 868 365 901 q 222 835 297 835 m 614 835 q 506 866 543 835 q 468 958 468 897 q 504 1048 468 1017 q 614 1079 540 1079 q 722 1048 688 1079 q 757 958 757 1017 q 723 868 757 901 q 614 835 689 835 z "},"Ĵ":{"ha":833,"x_min":90,"x_max":867,"o":"m 343 -14 q 226 -8 292 -14 q 90 10 160 -3 l 90 222 q 217 202 163 207 q 297 197 271 197 q 409 221 371 197 q 462 291 447 244 q 476 404 476 338 l 476 992 l 715 992 l 715 371 q 680 152 715 238 q 563 26 644 67 q 343 -14 482 -14 m 325 1085 q 377 1147 347 1110 q 435 1222 407 1183 q 479 1288 463 1260 l 714 1288 q 759 1222 733 1257 q 813 1151 785 1186 q 867 1085 842 1115 l 867 1065 l 713 1065 q 656 1110 683 1085 q 596 1167 628 1135 q 536 1109 563 1133 q 482 1065 510 1085 l 325 1065 l 325 1085 z "},"ĵ":{"ha":833,"x_min":42,"x_max":771,"o":"m 288 -340 q 169 -332 232 -340 q 42 -306 106 -324 l 42 -115 q 116 -131 79 -125 q 185 -139 153 -136 q 239 -142 217 -142 q 324 -126 294 -142 q 365 -70 353 -110 q 376 39 376 -31 l 376 574 l 139 592 l 139 768 l 619 768 l 619 -17 q 544 -260 619 -179 q 288 -340 469 -340 m 229 861 q 281 923 251 886 q 339 998 311 960 q 383 1064 367 1036 l 618 1064 q 663 998 638 1033 q 717 927 689 963 q 771 861 746 892 l 771 842 l 617 842 q 560 886 588 861 q 500 943 532 911 q 440 885 467 910 q 386 842 414 861 l 229 842 l 229 861 z "},"Ķ":{"ha":833,"x_min":56,"x_max":799,"o":"m 56 0 l 56 992 l 292 992 l 292 539 q 320 599 306 571 q 350 656 335 628 l 538 992 l 799 992 l 525 549 l 796 0 l 525 0 l 357 364 l 292 306 l 292 0 l 56 0 m 272 -287 q 288 -223 281 -260 q 301 -149 296 -186 q 308 -85 307 -112 l 531 -85 l 531 -100 q 499 -168 515 -135 q 463 -235 482 -201 q 417 -307 443 -269 l 272 -307 l 272 -287 z "},"ķ":{"ha":833,"x_min":56,"x_max":826,"o":"m 56 0 l 56 1056 l 299 1056 l 299 639 q 297 563 299 606 q 293 478 296 521 q 286 403 290 436 l 292 403 q 338 474 317 440 q 390 550 360 507 l 544 768 l 814 768 l 581 457 l 826 0 l 558 0 l 415 292 l 299 194 l 299 0 l 56 0 m 289 -287 q 305 -223 297 -260 q 318 -149 313 -186 q 325 -85 324 -112 l 547 -85 l 547 -100 q 515 -168 532 -135 q 479 -235 499 -201 q 433 -307 460 -269 l 289 -307 l 289 -287 z "},"ĸ":{"ha":833,"x_min":56,"x_max":826,"o":"m 56 0 l 56 768 l 299 768 l 299 639 q 297 563 299 606 q 293 478 296 521 q 286 403 290 436 l 292 403 q 338 474 317 440 q 390 550 360 507 l 544 768 l 814 768 l 581 457 l 826 0 l 558 0 l 415 292 l 299 194 l 299 0 l 56 0 z "},"Ĺ":{"ha":833,"x_min":96,"x_max":750,"o":"m 104 0 l 104 992 l 347 992 l 347 215 l 750 215 l 750 0 l 104 0 m 96 1085 q 145 1151 119 1117 q 196 1222 171 1186 q 239 1288 221 1257 l 511 1288 l 511 1274 q 441 1210 485 1249 q 350 1133 397 1172 q 267 1065 303 1094 l 96 1065 l 96 1085 z "},"ĺ":{"ha":833,"x_min":56,"x_max":778,"o":"m 56 0 l 56 169 l 314 194 l 314 861 l 110 879 l 110 1056 l 557 1056 l 557 194 l 778 169 l 778 0 l 56 0 m 292 1149 q 341 1215 315 1181 q 392 1285 367 1250 q 435 1351 417 1321 l 707 1351 l 707 1338 q 637 1274 681 1313 q 546 1197 593 1236 q 463 1129 499 1158 l 292 1129 l 292 1149 z "},"Ļ":{"ha":833,"x_min":104,"x_max":750,"o":"m 104 0 l 104 992 l 347 992 l 347 215 l 750 215 l 750 0 l 104 0 m 294 -287 q 310 -223 303 -260 q 324 -149 318 -186 q 331 -85 329 -112 l 553 -85 l 553 -100 q 521 -168 538 -135 q 485 -235 504 -201 q 439 -307 465 -269 l 294 -307 l 294 -287 z "},"ļ":{"ha":833,"x_min":56,"x_max":778,"o":"m 56 0 l 56 169 l 314 194 l 314 861 l 110 879 l 110 1056 l 557 1056 l 557 194 l 778 169 l 778 0 l 56 0 m 292 -287 q 308 -223 300 -260 q 321 -149 315 -186 q 328 -85 326 -112 l 550 -85 l 550 -100 q 518 -168 535 -135 q 482 -235 501 -201 q 436 -307 463 -269 l 292 -307 l 292 -287 z "},"Ľ":{"ha":833,"x_min":104,"x_max":750,"o":"m 486 781 q 497 828 492 801 q 508 884 503 854 q 519 942 514 914 q 526 992 524 969 l 747 992 l 747 976 q 713 912 731 944 q 674 844 694 879 q 629 769 654 810 l 486 769 l 486 781 m 104 0 l 104 992 l 347 992 l 347 215 l 750 215 l 750 0 l 104 0 z "},"ľ":{"ha":833,"x_min":56,"x_max":885,"o":"m 624 844 q 635 892 629 865 q 646 948 640 918 q 656 1006 651 978 q 664 1056 661 1033 l 885 1056 l 885 1040 q 850 976 868 1008 q 812 908 832 943 q 767 833 792 874 l 624 833 l 624 844 m 56 0 l 56 169 l 314 194 l 314 861 l 110 879 l 110 1056 l 557 1056 l 557 194 l 778 169 l 778 0 l 56 0 z "},"Ŀ":{"ha":833,"x_min":104,"x_max":771,"o":"m 104 0 l 104 992 l 347 992 l 347 215 l 750 215 l 750 0 l 104 0 m 635 435 q 536 464 578 435 q 494 561 494 493 q 536 660 494 631 q 635 689 578 689 q 731 660 690 689 q 771 561 771 631 q 731 464 771 493 q 635 435 690 435 z "},"ŀ":{"ha":833,"x_min":56,"x_max":972,"o":"m 836 417 q 738 446 779 417 q 696 543 696 475 q 738 642 696 613 q 836 671 779 671 q 932 642 892 671 q 972 543 972 613 q 932 446 972 475 q 836 417 892 417 m 56 0 l 56 169 l 314 194 l 314 861 l 110 879 l 110 1056 l 557 1056 l 557 194 l 778 169 l 778 0 l 56 0 z "},"Ł":{"ha":833,"x_min":1,"x_max":792,"o":"m 90 294 l 1 449 l 522 767 l 614 614 l 90 294 m 146 0 l 146 992 l 389 992 l 389 215 l 792 215 l 792 0 l 146 0 z "},"ł":{"ha":833,"x_min":56,"x_max":778,"o":"m 228 308 l 140 464 l 636 743 l 726 589 l 228 308 m 56 0 l 56 169 l 314 194 l 314 861 l 110 879 l 110 1056 l 557 1056 l 557 194 l 778 169 l 778 0 l 56 0 z "},"Ń":{"ha":833,"x_min":56,"x_max":778,"o":"m 56 0 l 56 992 l 385 992 l 572 218 l 578 218 q 570 307 574 265 q 565 385 567 349 q 561 456 563 422 q 560 522 560 489 l 560 992 l 778 992 l 778 0 l 457 0 l 264 767 l 258 767 q 267 649 264 696 q 271 569 269 601 q 273 511 272 538 q 274 456 274 485 l 274 0 l 56 0 m 299 1085 q 348 1151 322 1117 q 399 1222 374 1186 q 442 1288 424 1257 l 714 1288 l 714 1274 q 644 1210 688 1249 q 553 1133 600 1172 q 469 1065 506 1094 l 299 1065 l 299 1085 z "},"ń":{"ha":833,"x_min":63,"x_max":778,"o":"m 63 0 l 63 768 l 243 768 l 275 671 l 289 671 q 345 731 313 707 q 422 769 378 756 q 519 782 465 782 q 715 708 653 782 q 778 499 778 633 l 778 0 l 535 0 l 535 418 q 510 547 535 508 q 432 586 485 586 q 333 520 360 586 q 306 335 306 454 l 306 0 l 63 0 m 311 861 q 360 928 335 893 q 411 998 386 963 q 454 1064 436 1033 l 726 1064 l 726 1050 q 656 987 700 1025 q 565 910 613 949 q 482 842 518 871 l 311 842 l 311 861 z "},"Ņ":{"ha":833,"x_min":56,"x_max":778,"o":"m 56 0 l 56 992 l 385 992 l 572 218 l 578 218 q 570 307 574 265 q 565 385 567 349 q 561 456 563 422 q 560 522 560 489 l 560 992 l 778 992 l 778 0 l 457 0 l 264 767 l 258 767 q 267 649 264 696 q 271 569 269 601 q 273 511 272 538 q 274 456 274 485 l 274 0 l 56 0 m 267 -287 q 283 -223 275 -260 q 296 -149 290 -186 q 303 -85 301 -112 l 525 -85 l 525 -100 q 493 -168 510 -135 q 457 -235 476 -201 q 411 -307 438 -269 l 267 -307 l 267 -287 z "},"ņ":{"ha":833,"x_min":63,"x_max":778,"o":"m 63 0 l 63 768 l 243 768 l 275 671 l 289 671 q 345 731 313 707 q 422 769 378 756 q 519 782 465 782 q 715 708 653 782 q 778 499 778 633 l 778 0 l 535 0 l 535 418 q 510 547 535 508 q 432 586 485 586 q 333 520 360 586 q 306 335 306 454 l 306 0 l 63 0 m 276 -287 q 292 -223 285 -260 q 306 -149 300 -186 q 313 -85 311 -112 l 535 -85 l 535 -100 q 503 -168 519 -135 q 467 -235 486 -201 q 421 -307 447 -269 l 276 -307 l 276 -287 z "},"Ň":{"ha":833,"x_min":56,"x_max":778,"o":"m 56 0 l 56 992 l 385 992 l 572 218 l 578 218 q 570 307 574 265 q 565 385 567 349 q 561 456 563 422 q 560 522 560 489 l 560 992 l 778 992 l 778 0 l 457 0 l 264 767 l 258 767 q 267 649 264 696 q 271 569 269 601 q 273 511 272 538 q 274 456 274 485 l 274 0 l 56 0 m 307 1065 q 263 1133 290 1094 q 205 1208 235 1171 q 153 1268 175 1244 l 153 1288 l 310 1288 q 365 1243 339 1268 q 424 1186 392 1218 q 483 1244 456 1219 q 540 1288 511 1269 l 694 1288 l 694 1268 q 644 1207 674 1243 q 588 1133 615 1171 q 542 1065 560 1096 l 307 1065 z "},"ň":{"ha":833,"x_min":63,"x_max":778,"o":"m 63 0 l 63 768 l 243 768 l 275 671 l 289 671 q 345 731 313 707 q 422 769 378 756 q 519 782 465 782 q 715 708 653 782 q 778 499 778 633 l 778 0 l 535 0 l 535 418 q 510 547 535 508 q 432 586 485 586 q 333 520 360 586 q 306 335 306 454 l 306 0 l 63 0 m 319 842 q 275 909 303 871 q 217 984 247 947 q 165 1044 188 1021 l 165 1064 l 322 1064 q 378 1019 351 1044 q 436 963 404 994 q 496 1021 468 996 q 553 1064 524 1046 l 707 1064 l 707 1044 q 657 983 686 1019 q 600 910 628 947 q 554 842 572 872 l 319 842 z "},"ŉ":{"ha":833,"x_min":-215,"x_max":778,"o":"m 76 0 l 76 768 l 257 768 l 289 671 l 303 671 q 358 731 326 707 q 431 769 389 756 q 526 782 474 782 q 717 708 657 782 q 778 499 778 633 l 778 0 l 535 0 l 535 418 q 512 543 535 500 q 436 586 489 586 q 344 519 369 586 q 319 335 319 453 l 319 0 l 76 0 m -215 596 q -198 690 -207 638 q -181 797 -189 742 q -166 902 -172 851 q -157 992 -160 953 l 56 992 l 64 976 q 36 845 53 914 q 0 712 19 776 q -42 596 -19 647 l -215 596 z "},"Ŋ":{"ha":833,"x_min":56,"x_max":778,"o":"m 444 -317 q 369 -312 406 -317 q 308 -301 333 -307 l 308 -125 q 361 -134 333 -129 q 424 -139 389 -139 q 512 -124 476 -139 q 565 -79 547 -110 q 583 1 583 -49 l 583 181 l 778 181 l 778 -3 q 688 -237 778 -158 q 444 -317 597 -317 m 56 0 l 56 992 l 385 992 l 572 218 l 578 218 q 570 307 574 265 q 565 385 567 349 q 561 456 563 422 q 560 522 560 489 l 560 992 l 778 992 l 778 0 l 457 0 l 264 767 l 258 767 q 267 649 264 696 q 271 569 269 601 q 273 511 272 538 q 274 456 274 485 l 274 0 l 56 0 z "},"ŋ":{"ha":833,"x_min":63,"x_max":778,"o":"m 500 -333 q 429 -328 469 -333 q 364 -317 389 -324 l 364 -126 q 403 -135 386 -132 q 443 -139 421 -139 q 505 -116 475 -139 q 535 -24 535 -93 l 535 178 l 778 178 l 778 -69 q 751 -199 778 -139 q 663 -297 724 -260 q 500 -333 603 -333 m 63 0 l 63 768 l 243 768 l 275 671 l 289 671 q 345 731 313 707 q 422 769 378 756 q 519 782 465 782 q 715 708 653 782 q 778 499 778 633 l 778 0 l 535 0 l 535 418 q 510 547 535 508 q 432 586 485 586 q 333 520 360 586 q 306 335 306 454 l 306 0 l 63 0 z "},"Ō":{"ha":833,"x_min":28,"x_max":806,"o":"m 417 -14 q 243 19 317 -14 q 122 118 169 53 q 51 278 75 183 q 28 497 28 374 q 70 777 28 664 q 199 949 113 890 q 417 1007 285 1007 q 590 973 517 1007 q 712 874 664 939 q 783 713 760 808 q 806 496 806 618 q 783 280 806 375 q 713 119 760 185 q 592 20 665 54 q 417 -14 518 -14 m 417 194 q 500 226 469 194 q 544 326 531 258 q 557 500 557 394 q 527 725 557 653 q 417 797 497 797 q 335 767 365 797 q 290 672 304 738 q 276 497 276 606 q 290 323 276 390 q 334 225 303 256 q 417 194 365 194 m 190 1090 l 190 1250 l 643 1250 l 643 1090 l 190 1090 z "},"ō":{"ha":833,"x_min":42,"x_max":792,"o":"m 424 -14 q 258 15 329 -14 q 138 98 186 44 q 66 226 90 151 q 42 390 42 300 q 82 592 42 504 q 203 731 122 681 q 408 782 285 782 q 615 732 529 782 q 747 590 701 682 q 792 374 792 499 q 769 216 792 288 q 700 93 746 144 q 585 14 654 42 q 424 -14 517 -14 m 417 181 q 497 206 467 181 q 542 277 528 232 q 557 382 557 322 q 542 489 557 443 q 497 560 528 535 q 417 586 465 586 q 310 527 342 586 q 278 382 278 468 q 292 276 278 321 q 338 206 307 231 q 417 181 369 181 m 190 867 l 190 1026 l 643 1026 l 643 867 l 190 867 z "},"Ŏ":{"ha":833,"x_min":28,"x_max":806,"o":"m 417 -14 q 243 19 317 -14 q 122 118 169 53 q 51 278 75 183 q 28 497 28 374 q 70 777 28 664 q 199 949 113 890 q 417 1007 285 1007 q 590 973 517 1007 q 712 874 664 939 q 783 713 760 808 q 806 496 806 618 q 783 280 806 375 q 713 119 760 185 q 592 20 665 54 q 417 -14 518 -14 m 417 194 q 500 226 469 194 q 544 326 531 258 q 557 500 557 394 q 527 725 557 653 q 417 797 497 797 q 335 767 365 797 q 290 672 304 738 q 276 497 276 606 q 290 323 276 390 q 334 225 303 256 q 417 194 365 194 m 414 1065 q 235 1131 300 1065 q 168 1317 171 1197 l 306 1317 q 327 1260 313 1281 q 364 1233 342 1240 q 414 1225 386 1225 q 487 1244 458 1225 q 524 1317 515 1264 l 664 1317 q 593 1131 660 1197 q 414 1065 526 1065 z "},"ŏ":{"ha":833,"x_min":42,"x_max":792,"o":"m 424 -14 q 258 15 329 -14 q 138 98 186 44 q 66 226 90 151 q 42 390 42 300 q 82 592 42 504 q 203 731 122 681 q 408 782 285 782 q 615 732 529 782 q 747 590 701 682 q 792 374 792 499 q 769 216 792 288 q 700 93 746 144 q 585 14 654 42 q 424 -14 517 -14 m 417 181 q 497 206 467 181 q 542 277 528 232 q 557 382 557 322 q 542 489 557 443 q 497 560 528 535 q 417 586 465 586 q 310 527 342 586 q 278 382 278 468 q 292 276 278 321 q 338 206 307 231 q 417 181 369 181 m 414 842 q 235 908 300 842 q 168 1093 171 974 l 306 1093 q 327 1037 313 1057 q 364 1009 342 1017 q 414 1001 386 1001 q 487 1021 458 1001 q 524 1093 515 1040 l 664 1093 q 593 908 660 974 q 414 842 526 842 z "},"Ő":{"ha":833,"x_min":28,"x_max":806,"o":"m 417 -14 q 243 19 317 -14 q 122 118 169 53 q 51 278 75 183 q 28 497 28 374 q 70 777 28 664 q 199 949 113 890 q 417 1007 285 1007 q 590 973 517 1007 q 712 874 664 939 q 783 713 760 808 q 806 496 806 618 q 783 280 806 375 q 713 119 760 185 q 592 20 665 54 q 417 -14 518 -14 m 417 194 q 500 226 469 194 q 544 326 531 258 q 557 500 557 394 q 527 725 557 653 q 417 797 497 797 q 335 767 365 797 q 290 672 304 738 q 276 497 276 606 q 290 323 276 390 q 334 225 303 256 q 417 194 365 194 m 431 1085 q 486 1160 461 1124 q 531 1231 511 1197 q 564 1288 551 1264 l 792 1288 l 792 1274 q 733 1210 772 1249 q 649 1131 693 1171 q 571 1065 606 1092 l 431 1065 l 431 1085 m 151 1085 q 206 1161 182 1124 q 250 1231 231 1199 q 283 1288 269 1264 l 510 1288 l 510 1274 q 451 1210 490 1249 q 368 1132 413 1171 q 286 1065 324 1093 l 151 1065 l 151 1085 z "},"ő":{"ha":833,"x_min":42,"x_max":792,"o":"m 424 -14 q 258 15 329 -14 q 138 98 186 44 q 66 226 90 151 q 42 390 42 300 q 82 592 42 504 q 203 731 122 681 q 408 782 285 782 q 615 732 529 782 q 747 590 701 682 q 792 374 792 499 q 769 216 792 288 q 700 93 746 144 q 585 14 654 42 q 424 -14 517 -14 m 417 181 q 497 206 467 181 q 542 277 528 232 q 557 382 557 322 q 542 489 557 443 q 497 560 528 535 q 417 586 465 586 q 310 527 342 586 q 278 382 278 468 q 292 276 278 321 q 338 206 307 231 q 417 181 369 181 m 431 861 q 486 937 461 900 q 531 1007 511 974 q 564 1064 551 1040 l 792 1064 l 792 1050 q 733 986 772 1025 q 649 908 693 947 q 571 842 606 868 l 431 842 l 431 861 m 151 861 q 206 938 182 900 q 250 1008 231 975 q 283 1064 269 1040 l 510 1064 l 510 1050 q 451 986 490 1025 q 368 908 413 947 q 286 842 324 869 l 151 842 l 151 861 z "},"Œ":{"ha":833,"x_min":28,"x_max":819,"o":"m 344 -14 q 161 48 231 -14 q 60 224 92 110 q 28 499 28 339 q 45 710 28 617 q 99 870 63 804 q 194 971 136 936 q 333 1006 253 1006 q 386 1003 356 1006 q 451 992 417 1000 l 819 992 l 819 783 l 628 783 l 628 617 l 796 617 l 796 410 l 628 410 l 628 208 l 819 208 l 819 0 l 458 0 q 401 -11 428 -8 q 344 -14 374 -14 m 381 199 q 403 201 394 199 q 417 207 411 204 l 417 785 q 403 791 411 789 q 383 793 394 793 q 333 775 354 793 q 297 721 311 757 q 274 628 282 685 q 267 497 267 572 q 275 329 267 396 q 308 231 283 263 q 381 199 332 199 z "},"œ":{"ha":833,"x_min":6,"x_max":826,"o":"m 258 -14 q 119 37 175 -14 q 34 178 63 88 q 6 386 6 268 q 21 544 6 472 q 67 668 36 615 q 147 749 99 721 q 258 778 194 778 q 357 755 315 778 q 429 686 399 732 q 474 736 450 717 q 526 766 497 756 q 592 776 556 776 q 719 735 667 776 q 799 616 772 693 q 826 429 826 539 l 826 321 l 507 321 q 522 218 507 257 q 565 162 536 179 q 633 144 593 144 q 708 158 669 144 q 789 203 746 172 l 789 40 q 703 -1 749 13 q 613 -14 657 -14 q 505 10 549 -14 q 431 81 461 35 q 357 10 400 33 q 258 -14 314 -14 m 258 151 q 305 176 288 151 q 330 253 322 201 q 338 383 338 306 q 330 513 338 463 q 305 589 322 564 q 258 614 288 614 q 200 558 219 614 q 181 383 181 501 q 200 209 181 267 q 258 151 219 151 m 663 464 q 653 554 663 519 q 627 606 643 589 q 589 624 611 624 q 560 616 575 624 q 534 590 546 608 q 515 540 522 571 q 507 464 507 510 l 663 464 z "},"Ŕ":{"ha":833,"x_min":83,"x_max":826,"o":"m 83 0 l 83 992 l 396 992 q 599 959 519 992 q 719 863 679 926 q 758 704 758 799 q 742 592 758 642 q 691 503 725 543 q 607 432 657 464 l 826 0 l 568 0 l 408 358 l 311 358 l 311 0 l 83 0 m 394 560 q 463 572 432 560 q 511 611 493 585 q 529 681 529 638 q 498 761 529 732 q 401 790 467 790 l 311 790 l 311 560 l 394 560 m 292 1085 q 341 1151 315 1117 q 392 1222 367 1186 q 435 1288 417 1257 l 707 1288 l 707 1274 q 637 1210 681 1249 q 546 1133 593 1172 q 463 1065 499 1094 l 292 1065 l 292 1085 z "},"ŕ":{"ha":833,"x_min":42,"x_max":814,"o":"m 42 0 l 42 172 l 244 194 l 244 574 l 74 593 l 74 768 l 411 768 l 449 643 l 460 643 q 537 742 483 703 q 667 782 590 782 q 723 779 686 782 q 814 761 760 776 l 757 532 q 698 547 733 543 q 642 551 663 551 q 551 529 590 551 q 489 461 511 507 q 467 342 467 415 l 467 194 l 681 172 l 681 0 l 42 0 m 311 861 q 360 928 335 893 q 411 998 386 963 q 454 1064 436 1033 l 726 1064 l 726 1050 q 656 987 700 1025 q 565 910 613 949 q 482 842 518 871 l 311 842 l 311 861 z "},"Ŗ":{"ha":833,"x_min":83,"x_max":826,"o":"m 83 0 l 83 992 l 396 992 q 599 959 519 992 q 719 863 679 926 q 758 704 758 799 q 742 592 758 642 q 691 503 725 543 q 607 432 657 464 l 826 0 l 568 0 l 408 358 l 311 358 l 311 0 l 83 0 m 394 560 q 463 572 432 560 q 511 611 493 585 q 529 681 529 638 q 498 761 529 732 q 401 790 467 790 l 311 790 l 311 560 l 394 560 m 297 -287 q 313 -223 306 -260 q 326 -149 321 -186 q 333 -85 332 -112 l 556 -85 l 556 -100 q 524 -168 540 -135 q 488 -235 507 -201 q 442 -307 468 -269 l 297 -307 l 297 -287 z "},"ŗ":{"ha":833,"x_min":42,"x_max":814,"o":"m 42 0 l 42 172 l 244 194 l 244 574 l 74 593 l 74 768 l 411 768 l 449 643 l 460 643 q 537 742 483 703 q 667 782 590 782 q 723 779 686 782 q 814 761 760 776 l 757 532 q 698 547 733 543 q 642 551 663 551 q 551 529 590 551 q 489 461 511 507 q 467 342 467 415 l 467 194 l 681 172 l 681 0 l 42 0 m 225 -287 q 241 -223 233 -260 q 254 -149 249 -186 q 261 -85 260 -112 l 483 -85 l 483 -100 q 451 -168 468 -135 q 415 -235 435 -201 q 369 -307 396 -269 l 225 -307 l 225 -287 z "},"Ř":{"ha":833,"x_min":83,"x_max":826,"o":"m 83 0 l 83 992 l 396 992 q 599 959 519 992 q 719 863 679 926 q 758 704 758 799 q 742 592 758 642 q 691 503 725 543 q 607 432 657 464 l 826 0 l 568 0 l 408 358 l 311 358 l 311 0 l 83 0 m 394 560 q 463 572 432 560 q 511 611 493 585 q 529 681 529 638 q 498 761 529 732 q 401 790 467 790 l 311 790 l 311 560 l 394 560 m 300 1065 q 256 1133 283 1094 q 198 1208 228 1171 q 146 1268 168 1244 l 146 1288 l 303 1288 q 358 1243 332 1268 q 417 1186 385 1218 q 476 1244 449 1219 q 533 1288 504 1269 l 688 1288 l 688 1268 q 638 1207 667 1243 q 581 1133 608 1171 q 535 1065 553 1096 l 300 1065 z "},"ř":{"ha":833,"x_min":42,"x_max":814,"o":"m 42 0 l 42 172 l 244 194 l 244 574 l 74 593 l 74 768 l 411 768 l 449 643 l 460 643 q 537 742 483 703 q 667 782 590 782 q 723 779 686 782 q 814 761 760 776 l 757 532 q 698 547 733 543 q 642 551 663 551 q 551 529 590 551 q 489 461 511 507 q 467 342 467 415 l 467 194 l 681 172 l 681 0 l 42 0 m 319 842 q 275 909 303 871 q 217 984 247 947 q 165 1044 188 1021 l 165 1064 l 322 1064 q 378 1019 351 1044 q 436 963 404 994 q 496 1021 468 996 q 553 1064 524 1046 l 707 1064 l 707 1044 q 657 983 686 1019 q 600 910 628 947 q 554 842 572 872 l 319 842 z "},"Ś":{"ha":833,"x_min":83,"x_max":769,"o":"m 382 -14 q 235 0 304 -14 q 83 49 165 14 l 83 282 q 246 213 169 232 q 389 194 322 194 q 458 201 429 194 q 503 225 488 208 q 519 272 519 242 q 499 327 519 307 q 435 369 478 347 q 328 426 393 390 q 202 510 253 469 q 126 604 151 551 q 101 733 101 657 q 135 881 101 819 q 244 974 169 942 q 442 1007 319 1007 q 622 987 543 1007 q 765 935 701 967 l 689 742 q 568 785 625 774 q 465 797 511 797 q 406 790 432 797 q 365 767 379 783 q 350 721 350 751 q 365 677 350 696 q 420 635 379 658 q 538 571 461 611 q 653 502 600 539 q 738 412 706 465 q 769 275 769 358 q 751 168 769 219 q 690 76 733 117 q 571 10 646 35 q 382 -14 496 -14 m 314 1085 q 363 1151 338 1117 q 414 1222 389 1186 q 457 1288 439 1257 l 729 1288 l 729 1274 q 659 1210 703 1249 q 568 1133 615 1172 q 485 1065 521 1094 l 314 1065 l 314 1085 z "},"ś":{"ha":833,"x_min":97,"x_max":728,"o":"m 365 -14 q 231 -3 299 -14 q 97 29 163 7 l 97 243 q 244 191 172 208 q 378 174 315 174 q 456 184 422 174 q 490 222 490 194 q 467 260 490 246 q 402 288 443 274 q 307 324 361 301 q 198 382 242 351 q 133 453 154 413 q 111 550 111 493 q 150 681 111 629 q 262 757 189 732 q 435 782 335 782 q 574 769 504 782 q 722 724 644 756 l 646 542 q 538 583 590 571 q 442 594 485 594 q 373 584 399 594 q 347 550 347 574 q 363 522 347 533 q 416 499 379 511 q 515 461 453 486 q 633 406 586 435 q 704 338 681 378 q 728 238 728 299 q 691 107 728 164 q 574 18 654 50 q 365 -14 494 -14 m 299 861 q 348 928 322 893 q 399 998 374 963 q 442 1064 424 1033 l 714 1064 l 714 1050 q 644 987 688 1025 q 553 910 600 949 q 469 842 506 871 l 299 842 l 299 861 z "},"Ŝ":{"ha":833,"x_min":83,"x_max":769,"o":"m 382 -14 q 235 0 304 -14 q 83 49 165 14 l 83 282 q 246 213 169 232 q 389 194 322 194 q 458 201 429 194 q 503 225 488 208 q 519 272 519 242 q 499 327 519 307 q 435 369 478 347 q 328 426 393 390 q 202 510 253 469 q 126 604 151 551 q 101 733 101 657 q 135 881 101 819 q 244 974 169 942 q 442 1007 319 1007 q 622 987 543 1007 q 765 935 701 967 l 689 742 q 568 785 625 774 q 465 797 511 797 q 406 790 432 797 q 365 767 379 783 q 350 721 350 751 q 365 677 350 696 q 420 635 379 658 q 538 571 461 611 q 653 502 600 539 q 738 412 706 465 q 769 275 769 358 q 751 168 769 219 q 690 76 733 117 q 571 10 646 35 q 382 -14 496 -14 m 168 1085 q 220 1147 190 1110 q 278 1222 250 1183 q 322 1288 306 1260 l 557 1288 q 602 1222 576 1257 q 656 1151 628 1186 q 710 1085 685 1115 l 710 1065 l 556 1065 q 499 1110 526 1085 q 439 1167 471 1135 q 379 1109 406 1133 q 325 1065 353 1085 l 168 1065 l 168 1085 z "},"ŝ":{"ha":833,"x_min":97,"x_max":728,"o":"m 365 -14 q 231 -3 299 -14 q 97 29 163 7 l 97 243 q 244 191 172 208 q 378 174 315 174 q 456 184 422 174 q 490 222 490 194 q 467 260 490 246 q 402 288 443 274 q 307 324 361 301 q 198 382 242 351 q 133 453 154 413 q 111 550 111 493 q 150 681 111 629 q 262 757 189 732 q 435 782 335 782 q 574 769 504 782 q 722 724 644 756 l 646 542 q 538 583 590 571 q 442 594 485 594 q 373 584 399 594 q 347 550 347 574 q 363 522 347 533 q 416 499 379 511 q 515 461 453 486 q 633 406 586 435 q 704 338 681 378 q 728 238 728 299 q 691 107 728 164 q 574 18 654 50 q 365 -14 494 -14 m 153 861 q 205 923 175 886 q 263 998 235 960 q 307 1064 290 1036 l 542 1064 q 587 998 561 1033 q 641 927 613 963 q 694 861 669 892 l 694 842 l 540 842 q 483 886 511 861 q 424 943 456 911 q 364 885 390 910 q 310 842 338 861 l 153 842 l 153 861 z "},"Ş":{"ha":833,"x_min":83,"x_max":769,"o":"m 382 -14 q 235 0 304 -14 q 83 49 165 14 l 83 282 q 246 213 169 232 q 389 194 322 194 q 458 201 429 194 q 503 225 488 208 q 519 272 519 242 q 499 327 519 307 q 435 369 478 347 q 328 426 393 390 q 202 510 253 469 q 126 604 151 551 q 101 733 101 657 q 135 881 101 819 q 244 974 169 942 q 442 1007 319 1007 q 622 987 543 1007 q 765 935 701 967 l 689 742 q 568 785 625 774 q 465 797 511 797 q 406 790 432 797 q 365 767 379 783 q 350 721 350 751 q 365 677 350 696 q 420 635 379 658 q 538 571 461 611 q 653 502 600 539 q 738 412 706 465 q 769 275 769 358 q 751 168 769 219 q 690 76 733 117 q 571 10 646 35 q 382 -14 496 -14 m 401 -333 q 336 -328 371 -333 q 275 -315 301 -324 l 275 -187 q 319 -197 299 -193 q 357 -201 339 -201 q 399 -191 385 -201 q 413 -162 413 -181 q 389 -125 413 -139 q 317 -106 365 -111 l 361 7 l 481 7 l 464 -44 q 558 -86 522 -56 q 593 -178 593 -117 q 544 -290 593 -247 q 401 -333 496 -333 z "},"ş":{"ha":833,"x_min":97,"x_max":728,"o":"m 365 -14 q 231 -3 299 -14 q 97 29 163 7 l 97 243 q 244 191 172 208 q 378 174 315 174 q 456 184 422 174 q 490 222 490 194 q 467 260 490 246 q 402 288 443 274 q 307 324 361 301 q 198 382 242 351 q 133 453 154 413 q 111 550 111 493 q 150 681 111 629 q 262 757 189 732 q 435 782 335 782 q 574 769 504 782 q 722 724 644 756 l 646 542 q 538 583 590 571 q 442 594 485 594 q 373 584 399 594 q 347 550 347 574 q 363 522 347 533 q 416 499 379 511 q 515 461 453 486 q 633 406 586 435 q 704 338 681 378 q 728 238 728 299 q 691 107 728 164 q 574 18 654 50 q 365 -14 494 -14 m 408 -333 q 343 -328 378 -333 q 282 -315 308 -324 l 282 -187 q 326 -197 306 -193 q 364 -201 346 -201 q 406 -191 392 -201 q 419 -162 419 -181 q 396 -125 419 -139 q 324 -106 372 -111 l 368 7 l 488 7 l 471 -44 q 565 -86 529 -56 q 600 -178 600 -117 q 551 -290 600 -247 q 408 -333 503 -333 z "},"Š":{"ha":833,"x_min":83,"x_max":769,"o":"m 382 -14 q 235 0 304 -14 q 83 49 165 14 l 83 282 q 246 213 169 232 q 389 194 322 194 q 458 201 429 194 q 503 225 488 208 q 519 272 519 242 q 499 327 519 307 q 435 369 478 347 q 328 426 393 390 q 202 510 253 469 q 126 604 151 551 q 101 733 101 657 q 135 881 101 819 q 244 974 169 942 q 442 1007 319 1007 q 622 987 543 1007 q 765 935 701 967 l 689 742 q 568 785 625 774 q 465 797 511 797 q 406 790 432 797 q 365 767 379 783 q 350 721 350 751 q 365 677 350 696 q 420 635 379 658 q 538 571 461 611 q 653 502 600 539 q 738 412 706 465 q 769 275 769 358 q 751 168 769 219 q 690 76 733 117 q 571 10 646 35 q 382 -14 496 -14 m 322 1065 q 278 1133 306 1094 q 220 1208 250 1171 q 168 1268 190 1244 l 168 1288 l 325 1288 q 381 1243 354 1268 q 439 1186 407 1218 q 499 1244 471 1219 q 556 1288 526 1269 l 710 1288 l 710 1268 q 660 1207 689 1243 q 603 1133 631 1171 q 557 1065 575 1096 l 322 1065 z "},"š":{"ha":833,"x_min":97,"x_max":728,"o":"m 365 -14 q 231 -3 299 -14 q 97 29 163 7 l 97 243 q 244 191 172 208 q 378 174 315 174 q 456 184 422 174 q 490 222 490 194 q 467 260 490 246 q 402 288 443 274 q 307 324 361 301 q 198 382 242 351 q 133 453 154 413 q 111 550 111 493 q 150 681 111 629 q 262 757 189 732 q 435 782 335 782 q 574 769 504 782 q 722 724 644 756 l 646 542 q 538 583 590 571 q 442 594 485 594 q 373 584 399 594 q 347 550 347 574 q 363 522 347 533 q 416 499 379 511 q 515 461 453 486 q 633 406 586 435 q 704 338 681 378 q 728 238 728 299 q 691 107 728 164 q 574 18 654 50 q 365 -14 494 -14 m 307 842 q 263 909 290 871 q 205 984 235 947 q 153 1044 175 1021 l 153 1064 l 310 1064 q 365 1019 339 1044 q 424 963 392 994 q 483 1021 456 996 q 540 1064 511 1046 l 694 1064 l 694 1044 q 644 983 674 1019 q 588 910 615 947 q 542 842 560 872 l 307 842 z "},"Ț":{"ha":833,"x_min":28,"x_max":806,"o":"m 294 0 l 294 783 l 28 783 l 28 992 l 806 992 l 806 783 l 538 783 l 538 0 l 294 0 m 268 -287 q 284 -223 276 -260 q 297 -149 292 -186 q 304 -85 303 -112 l 526 -85 l 526 -100 q 494 -168 511 -135 q 458 -235 478 -201 q 413 -307 439 -269 l 268 -307 l 268 -287 z "},"ț":{"ha":833,"x_min":33,"x_max":736,"o":"m 514 -14 q 341 19 404 -14 q 251 119 278 53 q 225 283 225 186 l 225 574 l 33 574 l 33 692 l 250 767 l 288 940 l 468 940 l 468 768 l 733 768 l 733 574 l 468 574 l 468 319 q 489 229 468 257 q 538 194 510 201 q 585 188 565 188 q 652 194 619 188 q 736 218 685 200 l 736 25 q 622 -5 675 4 q 514 -14 568 -14 m 346 -287 q 362 -223 354 -260 q 375 -149 369 -186 q 382 -85 381 -112 l 604 -85 l 604 -100 q 572 -168 589 -135 q 536 -235 556 -201 q 490 -307 517 -269 l 346 -307 l 346 -287 z "},"Ť":{"ha":833,"x_min":28,"x_max":806,"o":"m 294 0 l 294 783 l 28 783 l 28 992 l 806 992 l 806 783 l 538 783 l 538 0 l 294 0 m 300 1065 q 256 1133 283 1094 q 198 1208 228 1171 q 146 1268 168 1244 l 146 1288 l 303 1288 q 358 1243 332 1268 q 417 1186 385 1218 q 476 1244 449 1219 q 533 1288 504 1269 l 688 1288 l 688 1268 q 638 1207 667 1243 q 581 1133 608 1171 q 535 1065 553 1096 l 300 1065 z "},"ť":{"ha":833,"x_min":33,"x_max":811,"o":"m 550 844 q 561 892 556 865 q 572 948 567 918 q 583 1006 578 978 q 590 1056 588 1033 l 811 1056 l 811 1040 q 776 976 794 1008 q 738 908 758 943 q 693 833 718 874 l 550 833 l 550 844 m 514 -14 q 341 19 404 -14 q 251 119 278 53 q 225 283 225 186 l 225 574 l 33 574 l 33 692 l 250 767 l 288 940 l 468 940 l 468 768 l 733 768 l 733 574 l 468 574 l 468 319 q 489 229 468 257 q 538 194 510 201 q 585 188 565 188 q 652 194 619 188 q 736 218 685 200 l 736 25 q 622 -5 675 4 q 514 -14 568 -14 z "},"Ŧ":{"ha":833,"x_min":28,"x_max":806,"o":"m 142 383 l 142 586 l 692 586 l 692 383 l 142 383 m 294 0 l 294 783 l 28 783 l 28 992 l 806 992 l 806 783 l 538 783 l 538 0 l 294 0 z "},"ŧ":{"ha":833,"x_min":33,"x_max":736,"o":"m 33 315 l 33 469 l 736 469 l 736 315 l 33 315 m 514 -14 q 341 19 404 -14 q 251 119 278 53 q 225 283 225 186 l 225 574 l 33 574 l 33 692 l 250 767 l 288 940 l 468 940 l 468 768 l 733 768 l 733 574 l 468 574 l 468 319 q 489 229 468 257 q 538 194 510 201 q 585 188 565 188 q 652 194 619 188 q 736 218 685 200 l 736 25 q 622 -5 675 4 q 514 -14 568 -14 z "},"Ũ":{"ha":833,"x_min":56,"x_max":778,"o":"m 417 -14 q 224 29 306 -14 q 99 156 143 72 q 56 360 56 239 l 56 992 l 299 992 l 299 379 q 311 274 299 313 q 349 218 324 235 q 413 201 374 201 q 478 218 451 201 q 520 274 506 235 q 535 381 535 313 l 535 992 l 778 992 l 778 365 q 736 163 778 247 q 614 32 694 78 q 417 -14 533 -14 m 138 1063 q 150 1155 140 1113 q 178 1228 160 1197 q 224 1277 196 1260 q 290 1294 251 1294 q 352 1285 322 1294 q 410 1262 382 1275 q 463 1239 438 1249 q 513 1229 489 1229 q 552 1247 543 1229 q 567 1296 561 1265 l 694 1296 q 647 1121 690 1178 q 540 1064 604 1064 q 479 1074 510 1064 q 419 1097 449 1083 q 362 1119 389 1110 q 311 1129 335 1129 q 282 1117 293 1129 q 265 1063 271 1104 l 138 1063 z "},"ũ":{"ha":833,"x_min":56,"x_max":771,"o":"m 314 -15 q 117 59 179 -15 q 56 268 56 133 l 56 768 l 299 768 l 299 343 q 324 222 299 263 q 408 181 349 181 q 485 208 460 181 q 519 281 511 235 q 528 383 528 328 l 528 768 l 771 768 l 771 0 l 590 0 l 558 96 l 544 96 q 488 35 521 60 q 413 -3 456 10 q 314 -15 369 -15 m 138 839 q 150 931 140 889 q 178 1005 160 974 q 224 1053 196 1036 q 290 1071 251 1071 q 352 1061 322 1071 q 410 1038 382 1051 q 463 1015 438 1025 q 513 1006 489 1006 q 552 1024 543 1006 q 567 1072 561 1042 l 694 1072 q 647 897 690 954 q 540 840 604 840 q 479 850 510 840 q 419 873 449 860 q 362 896 389 886 q 311 906 335 906 q 282 893 293 906 q 265 839 271 881 l 138 839 z "},"Ū":{"ha":833,"x_min":56,"x_max":778,"o":"m 417 -14 q 224 29 306 -14 q 99 156 143 72 q 56 360 56 239 l 56 992 l 299 992 l 299 379 q 311 274 299 313 q 349 218 324 235 q 413 201 374 201 q 478 218 451 201 q 520 274 506 235 q 535 381 535 313 l 535 992 l 778 992 l 778 365 q 736 163 778 247 q 614 32 694 78 q 417 -14 533 -14 m 190 1090 l 190 1250 l 643 1250 l 643 1090 l 190 1090 z "},"ū":{"ha":833,"x_min":56,"x_max":771,"o":"m 314 -15 q 117 59 179 -15 q 56 268 56 133 l 56 768 l 299 768 l 299 343 q 324 222 299 263 q 408 181 349 181 q 485 208 460 181 q 519 281 511 235 q 528 383 528 328 l 528 768 l 771 768 l 771 0 l 590 0 l 558 96 l 544 96 q 488 35 521 60 q 413 -3 456 10 q 314 -15 369 -15 m 190 867 l 190 1026 l 643 1026 l 643 867 l 190 867 z "},"Ŭ":{"ha":833,"x_min":56,"x_max":778,"o":"m 417 -14 q 224 29 306 -14 q 99 156 143 72 q 56 360 56 239 l 56 992 l 299 992 l 299 379 q 311 274 299 313 q 349 218 324 235 q 413 201 374 201 q 478 218 451 201 q 520 274 506 235 q 535 381 535 313 l 535 992 l 778 992 l 778 365 q 736 163 778 247 q 614 32 694 78 q 417 -14 533 -14 m 414 1065 q 235 1131 300 1065 q 168 1317 171 1197 l 306 1317 q 327 1260 313 1281 q 364 1233 342 1240 q 414 1225 386 1225 q 487 1244 458 1225 q 524 1317 515 1264 l 664 1317 q 593 1131 660 1197 q 414 1065 526 1065 z "},"ŭ":{"ha":833,"x_min":56,"x_max":771,"o":"m 314 -15 q 117 59 179 -15 q 56 268 56 133 l 56 768 l 299 768 l 299 343 q 324 222 299 263 q 408 181 349 181 q 485 208 460 181 q 519 281 511 235 q 528 383 528 328 l 528 768 l 771 768 l 771 0 l 590 0 l 558 96 l 544 96 q 488 35 521 60 q 413 -3 456 10 q 314 -15 369 -15 m 414 842 q 235 908 300 842 q 168 1093 171 974 l 306 1093 q 327 1037 313 1057 q 364 1009 342 1017 q 414 1001 386 1001 q 487 1021 458 1001 q 524 1093 515 1040 l 664 1093 q 593 908 660 974 q 414 842 526 842 z "},"Ů":{"ha":833,"x_min":56,"x_max":778,"o":"m 417 -14 q 224 29 306 -14 q 99 156 143 72 q 56 360 56 239 l 56 992 l 299 992 l 299 379 q 311 274 299 313 q 349 218 324 235 q 413 201 374 201 q 478 218 451 201 q 520 274 506 235 q 535 381 535 313 l 535 992 l 778 992 l 778 365 q 736 163 778 247 q 614 32 694 78 q 417 -14 533 -14 m 415 1063 q 288 1110 336 1063 q 239 1235 239 1157 q 288 1358 239 1311 q 415 1406 336 1406 q 542 1358 492 1406 q 593 1235 593 1311 q 543 1110 593 1158 q 415 1063 493 1063 m 415 1178 q 456 1194 439 1178 q 472 1235 472 1210 q 456 1276 472 1260 q 415 1292 439 1292 q 375 1276 392 1292 q 358 1235 358 1260 q 373 1194 358 1210 q 415 1178 388 1178 z "},"ů":{"ha":833,"x_min":56,"x_max":771,"o":"m 314 -15 q 117 59 179 -15 q 56 268 56 133 l 56 768 l 299 768 l 299 343 q 324 222 299 263 q 408 181 349 181 q 485 208 460 181 q 519 281 511 235 q 528 383 528 328 l 528 768 l 771 768 l 771 0 l 590 0 l 558 96 l 544 96 q 488 35 521 60 q 413 -3 456 10 q 314 -15 369 -15 m 415 839 q 288 886 336 839 q 239 1011 239 933 q 288 1135 239 1088 q 415 1182 336 1182 q 542 1135 492 1182 q 593 1011 593 1088 q 543 887 593 935 q 415 839 493 839 m 415 954 q 456 970 439 954 q 472 1011 472 986 q 456 1052 472 1036 q 415 1068 439 1068 q 375 1052 392 1068 q 358 1011 358 1036 q 373 970 358 986 q 415 954 388 954 z "},"Ű":{"ha":833,"x_min":56,"x_max":792,"o":"m 417 -14 q 224 29 306 -14 q 99 156 143 72 q 56 360 56 239 l 56 992 l 299 992 l 299 379 q 311 274 299 313 q 349 218 324 235 q 413 201 374 201 q 478 218 451 201 q 520 274 506 235 q 535 381 535 313 l 535 992 l 778 992 l 778 365 q 736 163 778 247 q 614 32 694 78 q 417 -14 533 -14 m 431 1085 q 486 1160 461 1124 q 531 1231 511 1197 q 564 1288 551 1264 l 792 1288 l 792 1274 q 733 1210 772 1249 q 649 1131 693 1171 q 571 1065 606 1092 l 431 1065 l 431 1085 m 151 1085 q 206 1161 182 1124 q 250 1231 231 1199 q 283 1288 269 1264 l 510 1288 l 510 1274 q 451 1210 490 1249 q 368 1132 413 1171 q 286 1065 324 1093 l 151 1065 l 151 1085 z "},"ű":{"ha":833,"x_min":56,"x_max":792,"o":"m 314 -15 q 117 59 179 -15 q 56 268 56 133 l 56 768 l 299 768 l 299 343 q 324 222 299 263 q 408 181 349 181 q 485 208 460 181 q 519 281 511 235 q 528 383 528 328 l 528 768 l 771 768 l 771 0 l 590 0 l 558 96 l 544 96 q 488 35 521 60 q 413 -3 456 10 q 314 -15 369 -15 m 431 861 q 486 937 461 900 q 531 1007 511 974 q 564 1064 551 1040 l 792 1064 l 792 1050 q 733 986 772 1025 q 649 908 693 947 q 571 842 606 868 l 431 842 l 431 861 m 151 861 q 206 938 182 900 q 250 1008 231 975 q 283 1064 269 1040 l 510 1064 l 510 1050 q 451 986 490 1025 q 368 908 413 947 q 286 842 324 869 l 151 842 l 151 861 z "},"Ų":{"ha":833,"x_min":56,"x_max":778,"o":"m 464 -333 q 331 -293 379 -333 q 282 -172 282 -253 q 301 -88 282 -126 q 367 -15 321 -50 q 493 57 413 21 l 604 28 q 514 -30 547 -3 q 467 -81 481 -57 q 453 -129 453 -106 q 468 -169 453 -156 q 510 -183 483 -183 q 544 -178 526 -183 q 575 -168 563 -174 l 575 -314 q 528 -327 556 -321 q 464 -333 500 -333 m 417 -14 q 224 29 306 -14 q 99 156 143 72 q 56 360 56 239 l 56 992 l 299 992 l 299 379 q 311 274 299 313 q 349 218 324 235 q 413 201 374 201 q 478 218 451 201 q 520 274 506 235 q 535 381 535 313 l 535 992 l 778 992 l 778 365 q 736 163 778 247 q 614 32 694 78 q 417 -14 533 -14 z "},"ų":{"ha":833,"x_min":56,"x_max":779,"o":"m 314 -15 q 117 59 179 -15 q 56 268 56 133 l 56 768 l 299 768 l 299 343 q 324 222 299 263 q 408 181 349 181 q 485 208 460 181 q 519 281 511 235 q 528 383 528 328 l 528 768 l 771 768 l 771 0 l 590 0 l 558 96 l 544 96 q 488 35 521 60 q 413 -3 456 10 q 314 -15 369 -15 m 668 -333 q 535 -292 585 -333 q 486 -178 486 -250 q 499 -112 486 -146 q 542 -44 511 -79 q 628 29 574 -8 l 738 0 q 675 -74 693 -46 q 657 -132 657 -101 q 672 -169 657 -156 q 713 -183 686 -183 q 749 -178 731 -183 q 779 -168 767 -174 l 779 -314 q 732 -327 760 -321 q 668 -333 704 -333 z "},"Ŵ":{"ha":833,"x_min":7,"x_max":826,"o":"m 57 0 l 7 992 l 206 992 q 219 785 214 864 q 227 658 224 706 q 231 576 231 610 q 232 506 232 543 q 232 453 232 481 q 231 395 232 425 q 231 333 231 365 q 230 266 231 300 q 229 196 229 232 l 236 196 q 244 274 239 226 q 257 373 250 321 q 271 472 264 425 q 282 549 278 518 l 314 767 l 519 767 l 547 547 q 556 469 551 517 q 567 371 561 422 q 579 272 574 319 q 589 194 585 225 l 596 194 q 596 272 596 235 q 595 342 596 308 q 594 406 594 375 q 593 466 593 438 q 593 521 593 494 q 594 588 593 558 q 596 650 594 618 q 600 725 597 682 q 608 833 603 768 q 618 992 613 897 l 826 992 l 771 0 l 475 0 l 451 199 q 440 298 447 239 q 427 417 433 357 q 417 515 421 476 l 413 515 q 403 417 410 476 q 391 298 397 357 q 381 199 385 239 l 361 0 l 57 0 m 146 1085 q 198 1147 168 1110 q 256 1222 228 1183 q 300 1288 283 1260 l 535 1288 q 580 1222 554 1257 q 634 1151 606 1186 q 688 1085 663 1115 l 688 1065 l 533 1065 q 476 1110 504 1085 q 417 1167 449 1135 q 357 1109 383 1133 q 303 1065 331 1085 l 146 1065 l 146 1085 z "},"ŵ":{"ha":833,"x_min":0,"x_max":833,"o":"m 89 0 l 0 768 l 215 768 l 229 393 q 231 336 231 369 q 231 269 231 303 q 232 213 232 236 l 240 213 q 244 258 242 235 q 251 306 247 282 q 260 354 256 331 l 322 674 l 517 674 l 574 354 q 582 305 579 328 q 588 260 585 282 q 593 213 590 238 l 601 213 q 603 269 603 238 q 603 333 603 300 q 606 390 604 365 l 624 768 l 833 768 l 744 0 l 476 0 l 442 231 q 428 333 435 282 q 419 428 422 385 l 411 428 q 401 333 408 385 q 386 231 394 282 l 350 0 l 89 0 m 150 861 q 202 923 172 886 q 260 998 232 960 q 304 1064 288 1036 l 539 1064 q 584 998 558 1033 q 638 927 610 963 q 692 861 667 892 l 692 842 l 538 842 q 481 886 508 861 q 421 943 453 911 q 361 885 388 910 q 307 842 335 861 l 150 842 l 150 861 z "},"Ŷ":{"ha":833,"x_min":21,"x_max":813,"o":"m 296 0 l 296 383 l 21 992 l 276 992 l 419 639 l 560 992 l 813 992 l 539 383 l 539 0 l 296 0 m 146 1085 q 198 1147 168 1110 q 256 1222 228 1183 q 300 1288 283 1260 l 535 1288 q 580 1222 554 1257 q 634 1151 606 1186 q 688 1085 663 1115 l 688 1065 l 533 1065 q 476 1110 504 1085 q 417 1167 449 1135 q 357 1109 383 1133 q 303 1065 331 1085 l 146 1065 l 146 1085 z "},"ŷ":{"ha":833,"x_min":14,"x_max":819,"o":"m 174 -340 q 122 -337 149 -340 q 67 -329 96 -335 l 67 -144 q 105 -151 86 -149 q 140 -153 124 -153 q 216 -140 183 -153 q 272 -101 249 -126 q 308 -37 296 -75 l 325 10 l 14 768 l 275 768 l 404 364 q 420 308 413 338 q 435 238 428 279 l 439 238 q 447 288 443 263 q 456 334 451 313 q 464 365 461 356 l 571 768 l 819 768 l 526 -76 q 451 -222 497 -162 q 336 -310 404 -281 q 174 -340 268 -340 m 146 861 q 198 923 168 886 q 256 998 228 960 q 300 1064 283 1036 l 535 1064 q 580 998 554 1033 q 634 927 606 963 q 688 861 663 892 l 688 842 l 533 842 q 476 886 504 861 q 417 943 449 911 q 357 885 383 910 q 303 842 331 861 l 146 842 l 146 861 z "},"Ÿ":{"ha":833,"x_min":21,"x_max":813,"o":"m 296 0 l 296 383 l 21 992 l 276 992 l 419 639 l 560 992 l 813 992 l 539 383 l 539 0 l 296 0 m 586 1068 q 501 1097 533 1068 q 468 1182 468 1126 q 501 1269 468 1240 q 586 1299 535 1299 q 671 1269 638 1299 q 704 1182 704 1239 q 671 1097 704 1126 q 586 1068 638 1068 m 244 1068 q 160 1097 193 1068 q 128 1182 128 1126 q 160 1269 128 1240 q 244 1299 193 1299 q 330 1269 296 1299 q 364 1182 364 1239 q 330 1097 364 1126 q 244 1068 296 1068 z "},"Ź":{"ha":833,"x_min":83,"x_max":764,"o":"m 83 0 l 83 165 l 489 790 l 106 790 l 106 992 l 754 992 l 754 826 l 361 208 l 764 208 l 764 0 l 83 0 m 303 1085 q 352 1151 326 1117 q 403 1222 378 1186 q 446 1288 428 1257 l 718 1288 l 718 1274 q 648 1210 692 1249 q 557 1133 604 1172 q 474 1065 510 1094 l 303 1065 l 303 1085 z "},"ź":{"ha":833,"x_min":76,"x_max":757,"o":"m 76 0 l 76 143 l 446 576 l 97 576 l 97 768 l 744 768 l 744 613 l 385 192 l 757 192 l 757 0 l 76 0 m 301 861 q 351 928 325 893 q 401 998 376 963 q 444 1064 426 1033 l 717 1064 l 717 1050 q 647 987 690 1025 q 556 910 603 949 q 472 842 508 871 l 301 842 l 301 861 z "},"Ż":{"ha":833,"x_min":83,"x_max":764,"o":"m 83 0 l 83 165 l 489 790 l 106 790 l 106 992 l 754 992 l 754 826 l 361 208 l 764 208 l 764 0 l 83 0 m 431 1058 q 322 1090 360 1058 q 285 1182 285 1121 q 321 1272 285 1240 q 431 1303 357 1303 q 539 1272 504 1303 q 574 1182 574 1240 q 540 1092 574 1125 q 431 1058 506 1058 z "},"ż":{"ha":833,"x_min":76,"x_max":757,"o":"m 76 0 l 76 143 l 446 576 l 97 576 l 97 768 l 744 768 l 744 613 l 385 192 l 757 192 l 757 0 l 76 0 m 429 835 q 321 866 358 835 q 283 958 283 897 q 319 1048 283 1017 q 429 1079 356 1079 q 538 1048 503 1079 q 572 958 572 1017 q 538 868 572 901 q 429 835 504 835 z "},"Ž":{"ha":833,"x_min":83,"x_max":764,"o":"m 83 0 l 83 165 l 489 790 l 106 790 l 106 992 l 754 992 l 754 826 l 361 208 l 764 208 l 764 0 l 83 0 m 311 1065 q 267 1133 294 1094 q 209 1208 239 1171 q 157 1268 179 1244 l 157 1288 l 314 1288 q 369 1243 343 1268 q 428 1186 396 1218 q 488 1244 460 1219 q 544 1288 515 1269 l 699 1288 l 699 1268 q 649 1207 678 1243 q 592 1133 619 1171 q 546 1065 564 1096 l 311 1065 z "},"ž":{"ha":833,"x_min":76,"x_max":757,"o":"m 76 0 l 76 143 l 446 576 l 97 576 l 97 768 l 744 768 l 744 613 l 385 192 l 757 192 l 757 0 l 76 0 m 310 842 q 265 909 293 871 q 208 984 238 947 q 156 1044 178 1021 l 156 1064 l 313 1064 q 368 1019 342 1044 q 426 963 394 994 q 486 1021 458 996 q 543 1064 514 1046 l 697 1064 l 697 1044 q 647 983 676 1019 q 590 910 618 947 q 544 842 563 872 l 310 842 z "},"ſ":{"ha":833,"x_min":265,"x_max":744,"o":"m 265 790 q 299 951 265 892 q 394 1036 332 1010 q 539 1063 456 1063 q 661 1052 611 1063 q 744 1028 711 1042 l 694 847 q 644 863 671 858 q 590 868 618 868 q 524 844 542 868 q 507 771 507 819 l 507 0 l 265 0 l 265 790 z "},"ƒ":{"ha":833,"x_min":35,"x_max":819,"o":"m 304 -340 q 107 -278 179 -340 q 35 -112 35 -215 q 42 -53 35 -79 q 60 -6 49 -28 l 260 -57 q 251 -83 254 -71 q 249 -108 249 -94 q 260 -141 249 -131 q 288 -151 271 -151 q 318 -137 307 -151 q 329 -96 329 -122 l 329 574 l 144 574 l 144 706 l 329 767 l 329 807 q 363 943 329 886 q 464 1031 396 1000 q 636 1063 532 1063 q 721 1056 676 1063 q 819 1029 765 1049 l 764 842 q 703 860 732 857 q 658 864 675 864 q 592 844 611 864 q 572 778 572 824 l 572 768 l 747 768 l 747 574 l 572 574 l 572 -68 q 537 -224 572 -164 q 441 -312 501 -283 q 304 -340 381 -340 z "},"Ǻ":{"ha":833,"x_min":7,"x_max":826,"o":"m 7 0 l 257 996 l 575 996 l 826 0 l 585 0 l 465 588 q 449 668 458 624 q 433 756 440 713 q 419 829 425 799 q 407 756 415 799 q 390 668 399 713 q 372 588 381 624 l 243 0 l 7 0 m 251 204 l 281 400 l 547 400 l 571 204 l 251 204 m 415 886 q 288 933 336 886 q 239 1058 239 981 q 288 1182 239 1135 q 415 1229 336 1229 q 542 1182 492 1229 q 593 1058 593 1135 q 543 934 593 982 q 415 886 493 886 m 415 1001 q 456 1017 439 1001 q 472 1058 472 1033 q 456 1099 472 1083 q 415 1115 439 1115 q 375 1099 392 1115 q 358 1058 358 1083 q 373 1017 358 1033 q 415 1001 388 1001 m 292 1290 q 341 1357 315 1322 q 392 1427 367 1392 q 435 1493 417 1463 l 707 1493 l 707 1479 q 637 1416 681 1454 q 546 1339 593 1378 q 463 1271 499 1300 l 292 1271 l 292 1290 z "},"ǻ":{"ha":833,"x_min":56,"x_max":757,"o":"m 315 -14 q 119 54 183 -14 q 56 229 56 122 q 95 372 56 318 q 205 451 135 425 q 367 481 275 478 l 526 486 l 526 513 q 497 573 526 553 q 401 593 468 593 q 300 583 357 593 q 186 546 243 572 l 113 713 q 265 765 186 749 q 426 782 343 782 q 677 717 597 782 q 757 524 757 653 l 757 0 l 576 0 l 550 92 l 544 92 q 462 21 506 43 q 380 -8 418 -1 q 315 -14 342 -14 m 376 174 q 449 188 415 174 q 505 230 483 201 q 526 301 526 258 l 526 339 l 446 338 q 353 328 390 338 q 299 301 317 319 q 281 249 281 282 q 305 192 281 211 q 376 174 329 174 m 428 839 q 300 886 349 839 q 251 1011 251 933 q 300 1135 251 1088 q 428 1182 349 1182 q 555 1135 504 1182 q 606 1011 606 1088 q 556 887 606 935 q 428 839 506 839 m 428 954 q 468 970 451 954 q 485 1011 485 986 q 468 1052 485 1036 q 428 1068 451 1068 q 388 1052 404 1068 q 371 1011 371 1036 q 385 970 371 986 q 428 954 400 954 m 304 1275 q 353 1342 328 1307 q 404 1412 379 1376 q 447 1478 429 1447 l 719 1478 l 719 1464 q 649 1401 693 1439 q 558 1324 606 1363 q 475 1256 511 1285 l 304 1256 l 304 1275 z "},"Ǽ":{"ha":833,"x_min":7,"x_max":819,"o":"m 7 0 l 236 992 l 819 992 l 819 783 l 664 783 l 664 617 l 796 617 l 796 408 l 664 408 l 664 208 l 819 208 l 819 0 l 432 0 l 432 783 l 401 783 l 246 0 l 7 0 m 265 210 l 310 417 l 463 417 l 475 210 l 265 210 m 336 1085 q 385 1151 360 1117 q 436 1222 411 1186 q 479 1288 461 1257 l 751 1288 l 751 1274 q 681 1210 725 1249 q 590 1133 638 1172 q 507 1065 543 1094 l 336 1065 l 336 1085 z "},"ǽ":{"ha":833,"x_min":7,"x_max":826,"o":"m 224 -14 q 65 48 122 -14 q 7 217 7 110 q 39 358 7 304 q 126 438 71 411 q 246 467 181 464 l 329 471 l 329 504 q 306 572 329 554 q 240 590 283 590 q 180 583 208 590 q 126 565 151 576 l 51 729 q 155 769 104 757 q 261 781 206 781 q 360 769 318 781 q 438 732 401 757 q 512 769 478 758 q 588 781 546 781 q 735 732 683 781 q 807 602 788 683 q 826 425 826 521 l 826 322 l 529 322 q 546 240 531 274 q 592 190 561 207 q 668 172 622 172 q 731 183 701 172 q 788 217 760 193 l 788 40 q 713 0 761 14 q 613 -14 665 -14 q 494 14 539 -14 q 411 90 449 42 q 334 13 375 40 q 224 -14 293 -14 m 272 164 q 310 180 299 164 q 326 222 322 196 q 331 282 331 249 l 331 342 l 300 342 q 240 310 263 342 q 218 235 218 279 q 232 183 218 201 q 272 164 246 164 m 640 465 q 635 534 640 507 q 617 575 629 561 q 583 589 604 589 q 539 555 549 589 q 526 465 529 521 l 640 465 m 292 861 q 341 928 315 893 q 392 998 367 963 q 435 1064 417 1033 l 707 1064 l 707 1050 q 637 987 681 1025 q 546 910 593 949 q 463 842 499 871 l 292 842 l 292 861 z "},"Ǿ":{"ha":833,"x_min":1,"x_max":825,"o":"m 133 -65 l 1 24 l 694 1054 l 825 968 l 133 -65 m 417 -14 q 243 19 317 -14 q 122 118 169 53 q 51 278 75 183 q 28 497 28 374 q 70 777 28 664 q 199 949 113 890 q 417 1007 285 1007 q 590 973 517 1007 q 712 874 664 939 q 783 713 760 808 q 806 496 806 618 q 783 280 806 375 q 713 119 760 185 q 592 20 665 54 q 417 -14 518 -14 m 417 194 q 500 226 469 194 q 544 326 531 258 q 557 500 557 394 q 527 725 557 653 q 417 797 497 797 q 335 767 365 797 q 290 672 304 738 q 276 497 276 606 q 290 323 276 390 q 334 225 303 256 q 417 194 365 194 m 292 1085 q 341 1151 315 1117 q 392 1222 367 1186 q 435 1288 417 1257 l 707 1288 l 707 1274 q 637 1210 681 1249 q 546 1133 593 1172 q 463 1065 499 1094 l 292 1065 l 292 1085 z "},"ǿ":{"ha":833,"x_min":42,"x_max":792,"o":"m 204 -58 l 94 13 l 625 826 l 735 754 l 204 -58 m 424 -14 q 258 15 329 -14 q 138 98 186 44 q 66 226 90 151 q 42 390 42 300 q 82 592 42 504 q 203 731 122 681 q 408 782 285 782 q 615 732 529 782 q 747 590 701 682 q 792 374 792 499 q 769 216 792 288 q 700 93 746 144 q 585 14 654 42 q 424 -14 517 -14 m 417 181 q 497 206 467 181 q 542 277 528 232 q 557 382 557 322 q 542 489 557 443 q 497 560 528 535 q 417 586 465 586 q 310 527 342 586 q 278 382 278 468 q 292 276 278 321 q 338 206 307 231 q 417 181 369 181 m 292 861 q 341 928 315 893 q 392 998 367 963 q 435 1064 417 1033 l 707 1064 l 707 1050 q 637 987 681 1025 q 546 910 593 949 q 463 842 499 871 l 292 842 l 292 861 z "},"Ș":{"ha":833,"x_min":83,"x_max":769,"o":"m 382 -14 q 235 0 304 -14 q 83 49 165 14 l 83 282 q 246 213 169 232 q 389 194 322 194 q 458 201 429 194 q 503 225 488 208 q 519 272 519 242 q 499 327 519 307 q 435 369 478 347 q 328 426 393 390 q 202 510 253 469 q 126 604 151 551 q 101 733 101 657 q 135 881 101 819 q 244 974 169 942 q 442 1007 319 1007 q 622 987 543 1007 q 765 935 701 967 l 689 742 q 568 785 625 774 q 465 797 511 797 q 406 790 432 797 q 365 767 379 783 q 350 721 350 751 q 365 677 350 696 q 420 635 379 658 q 538 571 461 611 q 653 502 600 539 q 738 412 706 465 q 769 275 769 358 q 751 168 769 219 q 690 76 733 117 q 571 10 646 35 q 382 -14 496 -14 m 267 -287 q 283 -223 275 -260 q 296 -149 290 -186 q 303 -85 301 -112 l 525 -85 l 525 -100 q 493 -168 510 -135 q 457 -235 476 -201 q 411 -307 438 -269 l 267 -307 l 267 -287 z "},"ș":{"ha":833,"x_min":97,"x_max":728,"o":"m 365 -14 q 231 -3 299 -14 q 97 29 163 7 l 97 243 q 244 191 172 208 q 378 174 315 174 q 456 184 422 174 q 490 222 490 194 q 467 260 490 246 q 402 288 443 274 q 307 324 361 301 q 198 382 242 351 q 133 453 154 413 q 111 550 111 493 q 150 681 111 629 q 262 757 189 732 q 435 782 335 782 q 574 769 504 782 q 722 724 644 756 l 646 542 q 538 583 590 571 q 442 594 485 594 q 373 584 399 594 q 347 550 347 574 q 363 522 347 533 q 416 499 379 511 q 515 461 453 486 q 633 406 586 435 q 704 338 681 378 q 728 238 728 299 q 691 107 728 164 q 574 18 654 50 q 365 -14 494 -14 m 274 -287 q 290 -223 282 -260 q 303 -149 297 -186 q 310 -85 308 -112 l 532 -85 l 532 -100 q 500 -168 517 -135 q 464 -235 483 -201 q 418 -307 444 -269 l 274 -307 l 274 -287 z "},"ˆ":{"ha":833,"x_min":146,"x_max":688,"o":"m 146 861 q 198 923 168 886 q 256 998 228 960 q 300 1064 283 1036 l 535 1064 q 580 998 554 1033 q 634 927 606 963 q 688 861 663 892 l 688 842 l 533 842 q 476 886 504 861 q 417 943 449 911 q 357 885 383 910 q 303 842 331 861 l 146 842 l 146 861 z "},"ˇ":{"ha":833,"x_min":146,"x_max":688,"o":"m 300 842 q 256 909 283 871 q 198 984 228 947 q 146 1044 168 1021 l 146 1064 l 303 1064 q 358 1019 332 1044 q 417 963 385 994 q 476 1021 449 996 q 533 1064 504 1046 l 688 1064 l 688 1044 q 638 983 667 1019 q 581 910 608 947 q 535 842 553 872 l 300 842 z "},"ˉ":{"ha":833,"x_min":190,"x_max":643,"o":"m 190 867 l 190 1026 l 643 1026 l 643 867 l 190 867 z "},"˘":{"ha":833,"x_min":168,"x_max":664,"o":"m 414 842 q 235 908 300 842 q 168 1093 171 974 l 306 1093 q 327 1037 313 1057 q 364 1009 342 1017 q 414 1001 386 1001 q 487 1021 458 1001 q 524 1093 515 1040 l 664 1093 q 593 908 660 974 q 414 842 526 842 z "},"˙":{"ha":833,"x_min":274,"x_max":563,"o":"m 419 835 q 311 866 349 835 q 274 958 274 897 q 310 1048 274 1017 q 419 1079 346 1079 q 528 1048 493 1079 q 563 958 563 1017 q 528 868 563 901 q 419 835 494 835 z "},"˚":{"ha":833,"x_min":239,"x_max":593,"o":"m 415 839 q 288 886 336 839 q 239 1011 239 933 q 288 1135 239 1088 q 415 1182 336 1182 q 542 1135 492 1182 q 593 1011 593 1088 q 543 887 593 935 q 415 839 493 839 m 415 954 q 456 970 439 954 q 472 1011 472 986 q 456 1052 472 1036 q 415 1068 439 1068 q 375 1052 392 1068 q 358 1011 358 1036 q 373 970 358 986 q 415 954 388 954 z "},"˛":{"ha":833,"x_min":279,"x_max":572,"o":"m 461 -333 q 328 -292 378 -333 q 279 -178 279 -250 q 292 -112 279 -146 q 335 -44 304 -79 q 421 29 367 -8 l 531 0 q 468 -74 486 -46 q 450 -132 450 -101 q 465 -169 450 -156 q 506 -183 479 -183 q 542 -178 524 -183 q 572 -168 560 -174 l 572 -314 q 525 -327 553 -321 q 461 -333 497 -333 z "},"˜":{"ha":833,"x_min":138,"x_max":694,"o":"m 138 839 q 150 931 140 889 q 178 1005 160 974 q 224 1053 196 1036 q 290 1071 251 1071 q 352 1061 322 1071 q 410 1038 382 1051 q 463 1015 438 1025 q 513 1006 489 1006 q 552 1024 543 1006 q 567 1072 561 1042 l 694 1072 q 647 897 690 954 q 540 840 604 840 q 479 850 510 840 q 419 873 449 860 q 362 896 389 886 q 311 906 335 906 q 282 893 293 906 q 265 839 271 881 l 138 839 z "},"˝":{"ha":833,"x_min":108,"x_max":749,"o":"m 388 861 q 443 937 418 900 q 488 1007 468 974 q 521 1064 508 1040 l 749 1064 l 749 1050 q 690 986 729 1025 q 606 908 650 947 q 528 842 563 868 l 388 842 l 388 861 m 108 861 q 163 938 139 900 q 207 1008 188 975 q 240 1064 226 1040 l 467 1064 l 467 1050 q 408 986 447 1025 q 325 908 369 947 q 243 842 281 869 l 108 842 l 108 861 z "},"΄":{"ha":833,"x_min":353,"x_max":610,"o":"m 353 864 q 364 918 358 888 q 375 982 369 949 q 385 1047 381 1015 q 392 1104 389 1079 l 610 1104 l 610 1088 q 577 1010 594 1050 q 540 928 560 969 q 493 842 519 886 l 353 842 l 353 864 z "},"΅":{"ha":833,"x_min":118,"x_max":715,"o":"m 340 953 q 353 1017 347 979 q 365 1095 360 1056 q 372 1164 371 1135 l 569 1164 l 569 1150 q 537 1085 556 1119 q 496 1015 518 1051 q 449 942 474 979 l 340 942 l 340 953 m 215 857 q 144 881 169 857 q 118 956 118 906 q 144 1033 118 1008 q 215 1057 169 1057 q 287 1033 260 1057 q 314 956 314 1008 q 287 881 314 906 q 215 857 260 857 m 617 857 q 543 881 569 857 q 517 956 517 906 q 543 1033 517 1008 q 617 1057 569 1057 q 688 1033 661 1057 q 715 956 715 1008 q 688 881 715 906 q 617 857 661 857 z "},"Ά":{"ha":833,"x_min":-49,"x_max":826,"o":"m 7 0 l 257 996 l 575 996 l 826 0 l 585 0 l 465 588 q 449 668 458 624 q 433 756 440 713 q 419 829 425 799 q 407 756 415 799 q 390 668 399 713 q 372 588 381 624 l 243 0 l 7 0 m 251 204 l 281 400 l 547 400 l 571 204 l 251 204 m -49 864 q -37 918 -43 888 q -26 982 -32 949 q -17 1047 -21 1015 q -10 1104 -12 1079 l 208 1104 l 208 1088 q 176 1010 193 1050 q 138 928 158 969 q 92 842 118 886 l -49 842 l -49 864 z "},"·":{"ha":833,"x_min":278,"x_max":554,"o":"m 418 522 q 319 551 361 522 q 278 649 278 581 q 319 747 278 718 q 418 776 361 776 q 514 747 474 776 q 554 649 554 718 q 514 551 554 581 q 418 522 474 522 z "},"Έ":{"ha":833,"x_min":-81,"x_max":750,"o":"m 176 0 l 176 992 l 750 992 l 750 783 l 401 783 l 401 614 l 735 614 l 735 406 l 401 406 l 401 208 l 750 208 l 750 0 l 176 0 m -81 864 q -69 918 -75 888 q -58 982 -64 949 q -49 1047 -53 1015 q -42 1104 -44 1079 l 176 1104 l 176 1088 q 144 1010 161 1050 q 106 928 126 969 q 60 842 86 886 l -81 842 l -81 864 z "},"Ή":{"ha":833,"x_min":-101,"x_max":778,"o":"m 139 0 l 139 992 l 372 992 l 372 621 l 544 621 l 544 992 l 778 992 l 778 0 l 544 0 l 544 413 l 372 413 l 372 0 l 139 0 m -101 864 q -90 918 -96 888 q -79 982 -85 949 q -69 1047 -74 1015 q -62 1104 -65 1079 l 156 1104 l 156 1088 q 123 1010 140 1050 q 85 928 106 969 q 39 842 65 886 l -101 842 l -101 864 z "},"Ί":{"ha":833,"x_min":-64,"x_max":806,"o":"m 167 0 l 167 174 l 368 196 l 368 796 l 167 818 l 167 992 l 806 992 l 806 818 l 603 796 l 603 196 l 806 174 l 806 0 l 167 0 m -64 864 q -53 918 -58 888 q -42 982 -47 949 q -32 1047 -36 1015 q -25 1104 -28 1079 l 193 1104 l 193 1088 q 160 1010 178 1050 q 123 928 143 969 q 76 842 103 886 l -64 842 l -64 864 z "},"Ό":{"ha":833,"x_min":-60,"x_max":806,"o":"m 417 -14 q 243 19 317 -14 q 122 118 169 53 q 51 278 75 183 q 28 497 28 374 q 70 777 28 664 q 199 949 113 890 q 417 1007 285 1007 q 590 973 517 1007 q 712 874 664 939 q 783 713 760 808 q 806 496 806 618 q 783 280 806 375 q 713 119 760 185 q 592 20 665 54 q 417 -14 518 -14 m 417 194 q 500 226 469 194 q 544 326 531 258 q 557 500 557 394 q 527 725 557 653 q 417 797 497 797 q 335 767 365 797 q 290 672 304 738 q 276 497 276 606 q 290 323 276 390 q 334 225 303 256 q 417 194 365 194 m -60 864 q -49 918 -54 888 q -37 982 -43 949 q -28 1047 -32 1015 q -21 1104 -24 1079 l 197 1104 l 197 1088 q 165 1010 182 1050 q 127 928 147 969 q 81 842 107 886 l -60 842 l -60 864 z "},"Ύ":{"ha":833,"x_min":-93,"x_max":835,"o":"m 399 0 l 399 383 l 178 992 l 408 992 l 510 639 l 608 992 l 835 992 l 617 383 l 617 0 l 399 0 m -93 864 q -82 918 -87 888 q -71 982 -76 949 q -61 1047 -65 1015 q -54 1104 -57 1079 l 164 1104 l 164 1088 q 131 1010 149 1050 q 94 928 114 969 q 47 842 74 886 l -93 842 l -93 864 z "},"Ώ":{"ha":833,"x_min":-68,"x_max":826,"o":"m 7 0 l 7 183 l 183 183 q 97 276 133 219 q 42 410 61 333 q 22 576 22 486 q 69 814 22 718 q 203 958 115 910 q 413 1007 290 1007 q 620 960 532 1007 q 758 817 708 913 q 807 575 807 721 q 788 413 807 488 q 733 279 769 338 q 643 183 697 221 l 826 183 l 826 0 l 486 0 l 486 204 q 569 338 543 253 q 594 538 594 424 q 576 698 594 635 q 517 792 557 761 q 415 824 478 824 q 314 793 353 824 q 256 699 275 763 q 238 538 238 636 q 249 394 238 458 q 284 282 261 329 q 342 204 307 235 l 342 0 l 7 0 m -68 864 q -57 918 -62 888 q -46 982 -51 949 q -36 1047 -40 1015 q -29 1104 -32 1079 l 189 1104 l 189 1088 q 156 1010 174 1050 q 119 928 139 969 q 72 842 99 886 l -68 842 l -68 864 z "},"ΐ":{"ha":833,"x_min":100,"x_max":714,"o":"m 517 -14 q 381 9 442 -14 q 285 88 321 32 q 250 246 250 144 l 250 768 l 493 768 l 493 254 q 504 208 493 225 q 535 185 515 192 q 576 178 554 178 q 644 185 613 178 q 714 206 675 192 l 714 26 q 628 -3 678 8 q 517 -14 578 -14 m 322 953 q 335 1017 329 979 q 347 1095 342 1056 q 354 1164 353 1135 l 551 1164 l 551 1150 q 519 1085 538 1119 q 478 1015 500 1051 q 431 942 456 979 l 322 942 l 322 953 m 197 857 q 126 881 151 857 q 100 956 100 906 q 126 1033 100 1008 q 197 1057 151 1057 q 269 1033 242 1057 q 296 956 296 1008 q 269 881 296 906 q 197 857 242 857 m 599 857 q 525 881 551 857 q 499 956 499 906 q 525 1033 499 1008 q 599 1057 551 1057 q 670 1033 643 1057 q 697 956 697 1008 q 670 881 697 906 q 599 857 643 857 z "},"Α":{"ha":833,"x_min":7,"x_max":826,"o":"m 7 0 l 257 996 l 575 996 l 826 0 l 585 0 l 465 588 q 449 668 458 624 q 433 756 440 713 q 419 829 425 799 q 407 756 415 799 q 390 668 399 713 q 372 588 381 624 l 243 0 l 7 0 m 251 204 l 281 400 l 547 400 l 571 204 l 251 204 z "},"Β":{"ha":833,"x_min":83,"x_max":792,"o":"m 83 0 l 83 992 l 417 992 q 688 931 603 992 q 774 749 774 869 q 728 596 774 650 q 631 526 683 542 l 631 519 q 712 480 675 507 q 770 408 749 453 q 792 293 792 363 q 750 136 792 201 q 633 35 708 71 q 451 0 557 0 l 83 0 m 431 192 q 531 228 500 192 q 563 311 563 264 q 549 368 563 343 q 505 408 535 393 q 426 424 475 424 l 303 424 l 303 192 l 431 192 m 418 603 q 516 634 485 603 q 547 708 547 665 q 515 776 547 751 q 414 800 483 800 l 303 800 l 303 603 l 418 603 z "},"Γ":{"ha":833,"x_min":104,"x_max":750,"o":"m 104 0 l 104 992 l 750 992 l 750 792 l 350 792 l 350 0 l 104 0 z "},"Δ":{"ha":833,"x_min":7,"x_max":826,"o":"m 7 0 l 7 140 l 275 997 l 561 997 l 826 139 l 826 0 l 7 0 m 257 200 l 574 200 l 444 693 q 436 725 442 706 q 425 766 431 744 q 417 801 419 788 q 409 765 415 788 q 397 723 403 743 q 389 692 392 703 l 257 200 z "},"Ε":{"ha":833,"x_min":83,"x_max":750,"o":"m 83 0 l 83 992 l 750 992 l 750 783 l 321 783 l 321 614 l 732 614 l 732 406 l 321 406 l 321 208 l 750 208 l 750 0 l 83 0 z "},"Ζ":{"ha":833,"x_min":83,"x_max":764,"o":"m 83 0 l 83 165 l 489 790 l 106 790 l 106 992 l 754 992 l 754 826 l 361 208 l 764 208 l 764 0 l 83 0 z "},"Η":{"ha":833,"x_min":56,"x_max":778,"o":"m 56 0 l 56 992 l 301 992 l 301 621 l 532 621 l 532 992 l 778 992 l 778 0 l 532 0 l 532 413 l 301 413 l 301 0 l 56 0 z "},"Θ":{"ha":833,"x_min":28,"x_max":806,"o":"m 326 408 l 326 600 l 508 600 l 508 408 l 326 408 m 417 -14 q 243 19 317 -14 q 122 118 169 53 q 51 278 75 183 q 28 497 28 374 q 70 777 28 664 q 199 949 113 890 q 417 1007 285 1007 q 590 973 517 1007 q 712 874 664 939 q 783 713 760 808 q 806 496 806 618 q 783 280 806 375 q 713 119 760 185 q 592 20 665 54 q 417 -14 518 -14 m 417 194 q 500 226 469 194 q 544 326 531 258 q 557 500 557 394 q 527 725 557 653 q 417 797 497 797 q 335 767 365 797 q 290 672 304 738 q 276 497 276 606 q 290 323 276 390 q 334 225 303 256 q 417 194 365 194 z "},"Ι":{"ha":833,"x_min":97,"x_max":736,"o":"m 97 0 l 97 174 l 299 196 l 299 796 l 97 818 l 97 992 l 736 992 l 736 818 l 533 796 l 533 196 l 736 174 l 736 0 l 97 0 z "},"Κ":{"ha":833,"x_min":56,"x_max":799,"o":"m 56 0 l 56 992 l 292 992 l 292 539 q 320 599 306 571 q 350 656 335 628 l 538 992 l 799 992 l 525 549 l 796 0 l 525 0 l 357 364 l 292 306 l 292 0 l 56 0 z "},"Λ":{"ha":833,"x_min":7,"x_max":826,"o":"m 7 0 l 275 992 l 557 992 l 826 0 l 560 0 l 454 539 q 442 608 450 565 q 426 696 433 651 q 417 767 419 740 q 407 697 414 740 q 393 610 400 653 q 381 540 386 567 l 274 0 l 7 0 z "},"Μ":{"ha":833,"x_min":42,"x_max":792,"o":"m 42 0 l 42 992 l 354 992 l 411 428 l 415 428 l 476 992 l 792 992 l 792 0 l 585 0 l 585 222 q 588 280 585 238 q 595 381 590 322 q 605 501 600 439 q 615 621 610 564 q 622 717 619 678 q 625 765 625 756 l 619 765 l 531 219 l 300 219 l 208 767 l 203 767 q 206 717 203 757 q 214 621 208 678 q 224 501 219 564 q 235 380 229 438 q 243 279 240 322 q 246 221 246 236 l 246 0 l 42 0 z "},"Ν":{"ha":833,"x_min":56,"x_max":778,"o":"m 56 0 l 56 992 l 385 992 l 572 218 l 578 218 q 570 307 574 265 q 565 385 567 349 q 561 456 563 422 q 560 522 560 489 l 560 992 l 778 992 l 778 0 l 457 0 l 264 767 l 258 767 q 267 649 264 696 q 271 569 269 601 q 273 511 272 538 q 274 456 274 485 l 274 0 l 56 0 z "},"Ξ":{"ha":833,"x_min":56,"x_max":778,"o":"m 56 0 l 56 201 l 778 201 l 778 0 l 56 0 m 139 415 l 139 614 l 694 614 l 694 415 l 139 415 m 83 793 l 83 992 l 750 992 l 750 793 l 83 793 z "},"Ο":{"ha":833,"x_min":28,"x_max":806,"o":"m 417 -14 q 243 19 317 -14 q 122 118 169 53 q 51 278 75 183 q 28 497 28 374 q 70 777 28 664 q 199 949 113 890 q 417 1007 285 1007 q 590 973 517 1007 q 712 874 664 939 q 783 713 760 808 q 806 496 806 618 q 783 280 806 375 q 713 119 760 185 q 592 20 665 54 q 417 -14 518 -14 m 417 194 q 500 226 469 194 q 544 326 531 258 q 557 500 557 394 q 527 725 557 653 q 417 797 497 797 q 335 767 365 797 q 290 672 304 738 q 276 497 276 606 q 290 323 276 390 q 334 225 303 256 q 417 194 365 194 z "},"Π":{"ha":833,"x_min":56,"x_max":778,"o":"m 56 0 l 56 992 l 778 992 l 778 0 l 532 0 l 532 789 l 301 789 l 301 0 l 56 0 z "},"Ρ":{"ha":833,"x_min":83,"x_max":792,"o":"m 83 0 l 83 992 l 450 992 q 706 910 621 992 q 792 675 792 828 q 757 503 792 582 q 646 376 722 424 q 443 329 569 329 l 313 329 l 313 0 l 83 0 m 415 531 q 487 547 457 531 q 533 594 517 563 q 549 672 549 626 q 519 758 549 725 q 419 790 489 790 l 313 790 l 313 531 l 415 531 z "},"Σ":{"ha":833,"x_min":83,"x_max":764,"o":"m 83 0 l 83 192 l 378 521 l 92 806 l 92 992 l 724 992 l 724 793 l 518 793 q 440 794 478 793 q 361 800 401 794 l 642 522 l 346 193 q 434 199 392 197 q 525 201 476 201 l 764 201 l 764 0 l 83 0 z "},"Τ":{"ha":833,"x_min":28,"x_max":806,"o":"m 294 0 l 294 783 l 28 783 l 28 992 l 806 992 l 806 783 l 538 783 l 538 0 l 294 0 z "},"Υ":{"ha":833,"x_min":21,"x_max":813,"o":"m 296 0 l 296 383 l 21 992 l 276 992 l 419 639 l 560 992 l 813 992 l 539 383 l 539 0 l 296 0 z "},"Φ":{"ha":833,"x_min":28,"x_max":806,"o":"m 315 139 q 176 172 232 140 q 88 258 121 204 q 42 378 56 313 q 28 513 28 444 q 56 695 28 611 q 147 831 83 779 q 315 883 210 882 l 315 1006 l 519 1006 l 519 883 q 651 852 597 882 q 740 771 706 822 q 790 653 774 719 q 806 514 806 588 q 790 377 806 443 q 742 258 775 311 q 653 172 708 204 q 519 139 599 140 l 519 -14 l 315 -14 l 315 139 m 315 694 q 265 669 283 693 q 238 603 246 644 q 231 511 231 563 q 238 419 231 460 q 265 353 246 378 q 315 326 283 328 l 315 694 m 519 326 q 569 353 551 328 q 596 419 588 378 q 604 511 604 460 q 596 603 604 563 q 569 669 588 644 q 519 694 551 693 l 519 326 z "},"Χ":{"ha":833,"x_min":21,"x_max":813,"o":"m 21 0 l 299 510 l 40 992 l 292 992 l 415 742 l 533 992 l 789 992 l 533 514 l 813 0 l 553 0 l 415 283 l 274 0 l 21 0 z "},"Ψ":{"ha":833,"x_min":28,"x_max":806,"o":"m 321 275 q 152 313 217 275 q 58 424 88 350 q 28 608 28 499 l 28 992 l 226 992 l 226 636 q 235 534 226 574 q 263 476 243 494 q 321 458 283 458 l 321 992 l 513 992 l 513 458 q 567 476 547 458 q 597 533 588 494 q 607 633 607 572 l 607 992 l 806 992 l 806 618 q 775 431 806 507 q 680 315 744 354 q 513 275 615 275 l 513 0 l 321 0 l 321 275 z "},"Ω":{"ha":833,"x_min":7,"x_max":826,"o":"m 7 0 l 7 183 l 183 183 q 97 276 133 219 q 42 410 61 333 q 22 576 22 486 q 69 814 22 718 q 203 958 115 910 q 413 1007 290 1007 q 620 960 532 1007 q 758 817 708 913 q 807 575 807 721 q 788 413 807 488 q 733 279 769 338 q 643 183 697 221 l 826 183 l 826 0 l 486 0 l 486 204 q 569 338 543 253 q 594 538 594 424 q 576 698 594 635 q 517 792 557 761 q 415 824 478 824 q 314 793 353 824 q 256 699 275 763 q 238 538 238 636 q 249 394 238 458 q 284 282 261 329 q 342 204 307 235 l 342 0 l 7 0 z "},"Ϊ":{"ha":833,"x_min":97,"x_max":736,"o":"m 97 0 l 97 174 l 299 196 l 299 796 l 97 818 l 97 992 l 736 992 l 736 818 l 533 796 l 533 196 l 736 174 l 736 0 l 97 0 m 586 1068 q 501 1097 533 1068 q 468 1182 468 1126 q 501 1269 468 1240 q 586 1299 535 1299 q 671 1269 638 1299 q 704 1182 704 1239 q 671 1097 704 1126 q 586 1068 638 1068 m 244 1068 q 160 1097 193 1068 q 128 1182 128 1126 q 160 1269 128 1240 q 244 1299 193 1299 q 330 1269 296 1299 q 364 1182 364 1239 q 330 1097 364 1126 q 244 1068 296 1068 z "},"Ϋ":{"ha":833,"x_min":21,"x_max":813,"o":"m 296 0 l 296 383 l 21 992 l 276 992 l 419 639 l 560 992 l 813 992 l 539 383 l 539 0 l 296 0 m 586 1068 q 501 1097 533 1068 q 468 1182 468 1126 q 501 1269 468 1240 q 586 1299 535 1299 q 671 1269 638 1299 q 704 1182 704 1239 q 671 1097 704 1126 q 586 1068 638 1068 m 244 1068 q 160 1097 193 1068 q 128 1182 128 1126 q 160 1269 128 1240 q 244 1299 193 1299 q 330 1269 296 1299 q 364 1182 364 1239 q 330 1097 364 1126 q 244 1068 296 1068 z "},"ά":{"ha":833,"x_min":42,"x_max":821,"o":"m 308 -14 q 115 87 189 -14 q 42 385 42 188 q 115 676 42 575 q 326 776 188 776 q 442 748 400 776 q 518 663 485 719 l 528 663 q 546 715 535 686 q 575 764 557 743 l 778 764 q 755 687 768 735 q 733 578 742 639 q 724 450 724 518 l 724 263 q 740 198 724 215 q 779 181 757 181 q 803 183 790 181 q 821 188 815 186 l 821 4 q 780 -8 811 -1 q 708 -14 749 -14 q 597 11 644 -14 q 521 100 549 36 l 506 100 q 456 41 483 67 q 392 1 428 15 q 308 -14 356 -14 m 390 176 q 451 199 428 176 q 487 265 475 221 q 499 372 499 308 l 499 381 q 473 533 499 479 q 386 586 447 586 q 301 535 326 586 q 275 388 275 483 q 306 226 275 275 q 390 176 338 176 m 353 864 q 364 918 358 888 q 375 982 369 949 q 385 1047 381 1015 q 392 1104 389 1079 l 610 1104 l 610 1088 q 577 1010 594 1050 q 540 928 560 969 q 493 842 519 886 l 353 842 l 353 864 z "},"έ":{"ha":833,"x_min":79,"x_max":753,"o":"m 447 -14 q 164 47 249 -14 q 79 215 79 107 q 101 301 79 264 q 164 363 122 339 q 264 396 206 388 l 264 403 q 188 438 219 414 q 139 496 156 461 q 122 574 122 531 q 167 693 122 649 q 289 758 213 738 q 458 778 365 778 q 615 763 543 778 q 753 721 688 749 l 682 553 q 580 590 631 576 q 468 603 529 603 q 376 588 406 603 q 347 544 347 574 q 385 494 347 510 q 511 478 422 478 l 603 478 l 603 317 l 497 317 q 357 297 393 317 q 321 242 321 278 q 333 208 321 225 q 379 181 346 192 q 476 169 413 169 q 633 188 563 169 q 751 228 704 206 l 751 40 q 624 1 696 15 q 447 -14 551 -14 m 353 864 q 364 918 358 888 q 375 982 369 949 q 385 1047 381 1015 q 392 1104 389 1079 l 610 1104 l 610 1088 q 577 1010 594 1050 q 540 928 560 969 q 493 842 519 886 l 353 842 l 353 864 z "},"ή":{"ha":833,"x_min":63,"x_max":778,"o":"m 535 -333 l 535 94 l 778 94 l 778 -333 l 535 -333 m 63 0 l 63 768 l 243 768 l 275 671 l 289 671 q 345 731 313 707 q 422 769 378 756 q 519 782 465 782 q 715 708 653 782 q 778 499 778 633 l 778 0 l 535 0 l 535 418 q 510 547 535 508 q 432 586 485 586 q 333 520 360 586 q 306 335 306 454 l 306 0 l 63 0 m 353 864 q 364 918 358 888 q 375 982 369 949 q 385 1047 381 1015 q 392 1104 389 1079 l 610 1104 l 610 1088 q 577 1010 594 1050 q 540 928 560 969 q 493 842 519 886 l 353 842 l 353 864 z "},"ί":{"ha":833,"x_min":250,"x_max":714,"o":"m 517 -14 q 381 9 442 -14 q 285 88 321 32 q 250 246 250 144 l 250 768 l 493 768 l 493 254 q 504 208 493 225 q 535 185 515 192 q 576 178 554 178 q 644 185 613 178 q 714 206 675 192 l 714 26 q 628 -3 678 8 q 517 -14 578 -14 m 317 864 q 328 918 322 888 q 339 982 333 949 q 349 1047 344 1015 q 356 1104 353 1079 l 574 1104 l 574 1088 q 541 1010 558 1050 q 503 928 524 969 q 457 842 483 886 l 317 842 l 317 864 z "},"ΰ":{"ha":833,"x_min":63,"x_max":792,"o":"m 413 -11 q 200 36 276 -11 q 93 165 124 83 q 63 349 63 247 l 63 768 l 306 768 l 306 338 q 317 246 306 281 q 354 196 329 211 q 417 181 379 181 q 515 232 482 181 q 549 418 549 283 q 535 590 549 506 q 497 768 522 674 l 743 768 q 770 651 760 708 q 786 537 781 593 q 792 425 792 481 q 697 93 792 197 q 413 -11 603 -11 m 340 953 q 353 1017 347 979 q 365 1095 360 1056 q 372 1164 371 1135 l 569 1164 l 569 1150 q 537 1085 556 1119 q 496 1015 518 1051 q 449 942 474 979 l 340 942 l 340 953 m 215 857 q 144 881 169 857 q 118 956 118 906 q 144 1033 118 1008 q 215 1057 169 1057 q 287 1033 260 1057 q 314 956 314 1008 q 287 881 314 906 q 215 857 260 857 m 617 857 q 543 881 569 857 q 517 956 517 906 q 543 1033 517 1008 q 617 1057 569 1057 q 688 1033 661 1057 q 715 956 715 1008 q 688 881 715 906 q 617 857 661 857 z "},"α":{"ha":833,"x_min":42,"x_max":821,"o":"m 308 -14 q 115 87 189 -14 q 42 385 42 188 q 115 676 42 575 q 326 776 188 776 q 442 748 400 776 q 518 663 485 719 l 528 663 q 546 715 535 686 q 575 764 557 743 l 778 764 q 755 687 768 735 q 733 578 742 639 q 724 450 724 518 l 724 263 q 740 198 724 215 q 779 181 757 181 q 803 183 790 181 q 821 188 815 186 l 821 4 q 780 -8 811 -1 q 708 -14 749 -14 q 597 11 644 -14 q 521 100 549 36 l 506 100 q 456 41 483 67 q 392 1 428 15 q 308 -14 356 -14 m 390 176 q 451 199 428 176 q 487 265 475 221 q 499 372 499 308 l 499 381 q 473 533 499 479 q 386 586 447 586 q 301 535 326 586 q 275 388 275 483 q 306 226 275 275 q 390 176 338 176 z "},"β":{"ha":833,"x_min":63,"x_max":807,"o":"m 63 743 q 110 926 63 856 q 238 1029 157 996 q 419 1063 319 1063 q 588 1033 514 1063 q 706 944 663 1004 q 749 790 749 883 q 703 638 749 697 q 569 564 657 579 l 569 558 q 742 485 678 544 q 807 297 807 425 q 720 68 807 150 q 485 -14 633 -14 q 387 -3 433 -14 q 304 28 340 7 l 304 -333 l 63 -333 l 63 743 m 425 178 q 533 214 493 178 q 574 318 574 250 q 551 399 574 369 q 494 440 529 428 q 419 451 458 451 l 378 451 l 378 636 l 407 636 q 493 672 465 636 q 521 760 521 707 q 492 849 521 818 q 414 879 463 879 q 361 866 386 879 q 320 819 336 853 q 304 721 304 785 l 304 218 q 352 191 322 204 q 425 178 382 178 z "},"γ":{"ha":833,"x_min":14,"x_max":819,"o":"m 224 -333 q 233 -236 224 -294 q 256 -113 242 -178 q 289 8 271 -49 l 14 768 l 267 768 l 351 482 q 376 398 363 444 q 399 308 389 351 q 414 231 410 264 l 419 231 q 431 288 422 251 q 452 372 439 325 q 481 471 465 419 l 567 768 l 819 768 l 546 11 q 510 -108 525 -46 q 488 -228 496 -171 q 479 -333 479 -286 l 224 -333 z "},"δ":{"ha":833,"x_min":42,"x_max":792,"o":"m 413 -14 q 221 22 304 -14 q 90 128 138 58 q 42 297 42 199 q 69 440 42 379 q 153 545 97 501 q 292 614 210 589 q 181 719 222 660 q 139 851 139 778 q 176 966 139 918 q 285 1040 213 1014 q 461 1065 357 1065 q 635 1046 556 1065 q 792 989 715 1026 l 699 815 q 573 867 633 847 q 461 886 513 886 q 393 871 414 886 q 372 832 372 856 q 390 793 372 813 q 447 749 407 774 q 554 689 488 725 q 690 591 639 644 q 765 474 742 538 q 789 333 789 411 q 742 140 789 217 q 612 24 696 63 q 413 -14 528 -14 m 415 172 q 509 213 476 172 q 542 329 542 254 q 510 440 542 393 q 426 519 479 486 q 365 486 397 511 q 311 417 333 461 q 289 310 289 374 q 303 240 289 271 q 347 190 318 208 q 415 172 375 172 z "},"ε":{"ha":833,"x_min":79,"x_max":753,"o":"m 447 -14 q 164 47 249 -14 q 79 215 79 107 q 101 301 79 264 q 164 363 122 339 q 264 396 206 388 l 264 403 q 188 438 219 414 q 139 496 156 461 q 122 574 122 531 q 167 693 122 649 q 289 758 213 738 q 458 778 365 778 q 615 763 543 778 q 753 721 688 749 l 682 553 q 580 590 631 576 q 468 603 529 603 q 376 588 406 603 q 347 544 347 574 q 385 494 347 510 q 511 478 422 478 l 603 478 l 603 317 l 497 317 q 357 297 393 317 q 321 242 321 278 q 333 208 321 225 q 379 181 346 192 q 476 169 413 169 q 633 188 563 169 q 751 228 704 206 l 751 40 q 624 1 696 15 q 447 -14 551 -14 z "},"ζ":{"ha":833,"x_min":93,"x_max":739,"o":"m 399 -251 q 472 -149 444 -197 q 500 -74 500 -101 q 490 -38 500 -53 q 449 -12 479 -24 q 356 13 418 0 q 231 56 281 29 q 150 120 181 82 q 106 208 119 158 q 93 318 93 257 q 117 468 93 394 q 189 613 142 542 q 304 753 236 685 q 460 890 372 822 q 421 883 444 886 q 374 878 397 879 q 333 876 350 876 l 132 876 l 132 1056 l 728 1056 l 728 911 q 531 728 607 811 q 413 576 454 646 q 356 444 372 506 q 340 329 340 383 q 359 251 340 279 q 420 207 378 222 q 531 176 463 192 q 631 145 590 164 q 694 101 671 126 q 728 47 718 76 q 739 -17 739 17 q 712 -139 739 -79 q 646 -251 685 -199 l 399 -251 z "},"η":{"ha":833,"x_min":63,"x_max":778,"o":"m 535 -333 l 535 94 l 778 94 l 778 -333 l 535 -333 m 63 0 l 63 768 l 243 768 l 275 671 l 289 671 q 345 731 313 707 q 422 769 378 756 q 519 782 465 782 q 715 708 653 782 q 778 499 778 633 l 778 0 l 535 0 l 535 418 q 510 547 535 508 q 432 586 485 586 q 333 520 360 586 q 306 335 306 454 l 306 0 l 63 0 z "},"θ":{"ha":833,"x_min":50,"x_max":782,"o":"m 414 -14 q 140 130 231 -14 q 50 528 50 274 q 86 818 50 697 q 202 1003 122 939 q 414 1068 282 1068 q 690 926 599 1068 q 782 528 782 785 q 745 237 782 358 q 628 51 708 115 q 414 -14 547 -14 m 414 158 q 503 229 475 158 q 533 442 532 300 l 297 442 q 326 231 299 303 q 414 158 354 158 m 535 615 q 502 826 531 756 q 417 896 474 896 q 331 826 358 896 q 300 615 303 756 l 535 615 z "},"ι":{"ha":833,"x_min":250,"x_max":714,"o":"m 517 -14 q 381 9 442 -14 q 285 88 321 32 q 250 246 250 144 l 250 768 l 493 768 l 493 254 q 504 208 493 225 q 535 185 515 192 q 576 178 554 178 q 644 185 613 178 q 714 206 675 192 l 714 26 q 628 -3 678 8 q 517 -14 578 -14 z "},"κ":{"ha":833,"x_min":56,"x_max":826,"o":"m 56 0 l 56 768 l 299 768 l 299 639 q 297 563 299 606 q 293 478 296 521 q 286 403 290 436 l 292 403 q 338 474 317 440 q 390 550 360 507 l 544 768 l 814 768 l 581 457 l 826 0 l 558 0 l 415 292 l 299 194 l 299 0 l 56 0 z "},"λ":{"ha":833,"x_min":6,"x_max":833,"o":"m 697 -14 q 602 10 640 -14 q 540 76 564 35 q 500 167 517 118 l 460 317 q 444 373 451 347 q 430 421 436 399 q 419 460 424 443 l 414 460 q 397 386 408 425 q 374 319 385 347 l 243 0 l 6 0 l 318 717 l 303 758 q 247 849 276 829 q 175 869 217 869 q 133 867 156 869 q 92 858 111 864 l 92 1053 q 150 1060 111 1057 q 214 1064 189 1064 q 347 1037 294 1064 q 433 955 399 1010 q 496 817 468 900 l 658 328 q 700 232 681 264 q 740 190 719 200 q 783 181 760 181 q 807 183 794 181 q 833 188 819 185 l 833 8 q 797 -2 822 3 q 743 -10 771 -7 q 697 -14 715 -14 z "},"μ":{"ha":833,"x_min":56,"x_max":771,"o":"m 56 -333 l 56 372 l 299 372 l 299 -333 l 56 -333 m 314 -15 q 117 59 179 -15 q 56 268 56 133 l 56 768 l 299 768 l 299 343 q 324 222 299 263 q 408 181 349 181 q 485 208 460 181 q 519 281 511 235 q 528 383 528 328 l 528 768 l 771 768 l 771 0 l 590 0 l 558 96 l 544 96 q 488 35 521 60 q 413 -3 456 10 q 314 -15 369 -15 z "},"ν":{"ha":833,"x_min":43,"x_max":769,"o":"m 286 0 l 43 768 l 293 768 l 401 336 q 410 299 406 321 q 418 256 414 278 q 425 218 422 235 l 432 218 q 485 358 464 282 q 516 535 506 435 q 526 768 526 635 l 769 768 q 744 492 769 622 q 660 242 719 363 q 499 0 601 121 l 286 0 z "},"ξ":{"ha":833,"x_min":93,"x_max":739,"o":"m 399 -251 q 472 -144 444 -197 q 500 -61 500 -92 q 488 -31 500 -42 q 448 -11 475 -19 q 374 8 421 -3 q 308 26 344 15 q 233 57 271 38 q 164 107 196 76 q 113 182 132 138 q 93 290 93 226 q 143 450 93 388 q 285 549 193 513 l 285 554 q 203 588 236 565 q 153 644 169 611 q 136 718 136 678 q 154 794 136 761 q 209 849 172 826 q 300 885 246 872 q 263 881 289 883 q 206 878 236 879 q 151 876 176 876 l 122 876 l 122 1056 l 704 1056 l 704 879 l 615 879 q 526 872 569 879 q 450 847 483 864 q 397 803 417 831 q 378 735 378 775 q 415 661 378 688 q 549 635 451 635 l 658 635 l 658 460 l 549 460 q 422 442 468 460 q 358 390 376 424 q 340 313 340 357 q 358 245 340 268 q 415 208 375 222 q 525 178 456 194 q 623 147 574 167 q 706 88 672 126 q 739 -18 739 50 q 712 -139 739 -79 q 646 -251 685 -199 l 399 -251 z "},"ο":{"ha":833,"x_min":42,"x_max":792,"o":"m 424 -14 q 258 15 329 -14 q 138 98 186 44 q 66 226 90 151 q 42 390 42 300 q 82 592 42 504 q 203 731 122 681 q 408 782 285 782 q 615 732 529 782 q 747 590 701 682 q 792 374 792 499 q 769 216 792 288 q 700 93 746 144 q 585 14 654 42 q 424 -14 517 -14 m 417 181 q 497 206 467 181 q 542 277 528 232 q 557 382 557 322 q 542 489 557 443 q 497 560 528 535 q 417 586 465 586 q 310 527 342 586 q 278 382 278 468 q 292 276 278 321 q 338 206 307 231 q 417 181 369 181 z "},"π":{"ha":833,"x_min":-3,"x_max":835,"o":"m 650 -14 q 510 47 565 -14 q 456 228 456 107 l 456 586 l 349 586 l 349 0 l 132 0 l 132 586 l -3 586 l -3 690 l 128 768 l 824 768 l 824 586 l 672 586 l 672 249 q 691 194 672 211 q 736 176 710 176 q 786 183 760 176 q 835 200 813 190 l 835 32 q 755 0 806 14 q 650 -14 704 -14 z "},"ρ":{"ha":833,"x_min":63,"x_max":792,"o":"m 63 379 q 106 593 63 504 q 231 730 150 682 q 424 778 311 778 q 615 733 532 778 q 744 597 697 688 q 792 372 792 507 q 755 167 792 254 q 650 33 718 81 q 489 -14 582 -14 q 390 -1 438 -14 q 308 35 343 13 l 292 35 q 303 -55 300 -12 q 306 -146 306 -97 l 306 -333 l 63 -333 l 63 379 m 429 176 q 516 224 489 176 q 543 382 543 271 q 515 543 543 493 q 426 593 488 593 q 336 547 367 593 q 306 406 306 501 l 306 231 q 362 190 329 204 q 429 176 394 176 z "},"ς":{"ha":833,"x_min":83,"x_max":731,"o":"m 389 -251 q 463 -141 435 -196 q 490 -60 490 -86 q 480 -32 490 -44 q 439 -8 469 -19 q 346 18 408 4 q 239 55 288 31 q 156 119 190 79 q 102 218 121 158 q 83 361 83 278 q 131 599 83 507 q 265 734 178 690 q 472 778 351 778 q 603 763 538 778 q 731 718 668 749 l 661 538 q 568 573 610 560 q 469 586 526 586 q 390 560 421 586 q 345 483 360 533 q 331 361 331 433 q 340 299 331 326 q 372 249 350 271 q 430 211 393 228 q 521 183 467 194 q 647 138 601 167 q 710 72 692 110 q 729 -14 729 33 q 702 -137 729 -76 q 636 -251 675 -199 l 389 -251 z "},"σ":{"ha":833,"x_min":42,"x_max":811,"o":"m 400 -14 q 212 28 293 -14 q 86 157 131 71 q 42 374 42 243 q 88 590 42 501 q 227 723 133 678 q 463 768 321 768 l 811 768 l 811 588 l 633 588 q 724 475 690 540 q 757 322 757 410 q 715 150 757 226 q 594 30 674 74 q 400 -14 515 -14 m 400 181 q 483 229 457 181 q 510 363 510 278 q 497 489 510 440 q 461 588 485 538 l 439 588 q 327 538 364 588 q 290 375 290 489 q 301 273 290 317 q 335 205 311 229 q 400 181 360 181 z "},"τ":{"ha":833,"x_min":81,"x_max":753,"o":"m 521 -12 q 388 10 446 -12 q 299 89 331 32 q 267 247 267 146 l 267 588 l 81 588 l 81 690 l 208 768 l 753 768 l 753 588 l 510 588 l 510 257 q 519 213 510 231 q 545 187 528 196 q 586 178 563 178 q 652 185 621 178 q 717 206 683 193 l 717 26 q 632 -1 682 10 q 521 -12 582 -12 z "},"υ":{"ha":833,"x_min":63,"x_max":792,"o":"m 413 -11 q 200 36 276 -11 q 93 165 124 83 q 63 349 63 247 l 63 768 l 306 768 l 306 338 q 317 246 306 281 q 354 196 329 211 q 417 181 379 181 q 515 232 482 181 q 549 418 549 283 q 535 590 549 506 q 497 768 522 674 l 743 768 q 770 651 760 708 q 786 537 781 593 q 792 425 792 481 q 697 93 792 197 q 413 -11 603 -11 z "},"φ":{"ha":833,"x_min":42,"x_max":792,"o":"m 318 -7 q 167 51 229 3 q 74 181 106 99 q 42 378 42 264 q 56 520 42 451 q 98 653 69 589 q 171 778 126 717 l 324 689 q 268 542 289 625 q 247 367 247 460 q 255 270 247 313 q 278 201 263 228 q 318 163 294 174 l 318 476 q 374 701 318 629 q 533 774 429 774 q 676 728 618 774 q 763 602 733 683 q 792 410 792 521 q 758 201 792 290 q 660 58 724 111 q 503 -7 596 4 l 503 -333 l 318 -333 l 318 -7 m 503 163 q 550 199 532 169 q 577 285 568 229 q 586 428 586 340 q 582 520 586 481 q 567 582 578 560 q 538 604 557 604 q 515 590 522 604 q 505 550 507 576 q 503 488 503 524 l 503 163 z "},"χ":{"ha":833,"x_min":14,"x_max":819,"o":"m 700 -342 q 615 -328 650 -342 q 553 -289 579 -315 q 508 -223 528 -262 q 472 -131 489 -183 l 415 42 l 261 -333 l 14 -333 l 311 272 l 231 496 q 199 566 211 551 q 161 581 188 581 q 133 578 147 581 q 90 565 118 575 l 90 751 q 153 769 119 761 q 226 776 186 776 q 318 758 281 776 q 383 696 356 739 q 432 579 410 653 l 464 478 l 583 768 l 819 768 l 567 246 l 658 -61 q 679 -106 667 -87 q 710 -134 692 -125 q 751 -143 728 -143 q 786 -139 767 -143 q 817 -129 806 -135 l 817 -308 q 778 -330 804 -318 q 700 -342 753 -342 z "},"ψ":{"ha":833,"x_min":63,"x_max":792,"o":"m 329 -12 q 179 30 239 -8 q 91 146 119 68 q 63 349 63 224 l 63 768 l 253 768 l 253 358 q 270 219 253 264 q 329 167 288 174 l 329 1056 l 510 1056 l 510 167 q 578 226 557 176 q 599 394 599 276 q 588 576 599 482 q 553 768 576 671 l 739 768 q 780 566 768 654 q 792 390 792 478 q 760 178 792 265 q 667 42 729 90 q 510 -12 604 -6 l 510 -333 l 329 -333 l 329 -12 z "},"ω":{"ha":833,"x_min":42,"x_max":792,"o":"m 263 -14 q 99 87 156 -14 q 42 386 42 188 q 48 512 42 450 q 68 637 54 574 q 103 768 82 700 l 293 768 q 258 649 272 711 q 237 517 244 588 q 229 363 229 447 q 240 230 229 274 q 283 186 251 186 q 322 222 311 186 q 332 346 332 257 l 332 531 l 501 531 l 501 346 q 511 222 501 257 q 547 186 521 186 q 592 229 579 186 q 604 365 604 272 q 597 509 604 439 q 576 644 590 579 q 539 768 561 708 l 731 768 q 777 578 763 674 q 792 383 792 482 q 777 210 792 285 q 734 86 763 136 q 665 11 706 36 q 571 -14 624 -14 q 471 24 507 -14 q 419 142 435 61 l 414 142 q 361 23 397 60 q 263 -14 325 -14 z "},"ϊ":{"ha":833,"x_min":92,"x_max":714,"o":"m 517 -14 q 381 9 442 -14 q 285 88 321 32 q 250 246 250 144 l 250 768 l 493 768 l 493 254 q 504 208 493 225 q 535 185 515 192 q 576 178 554 178 q 644 185 613 178 q 714 206 675 192 l 714 26 q 628 -3 678 8 q 517 -14 578 -14 m 550 844 q 465 874 497 844 q 432 958 432 903 q 465 1046 432 1017 q 550 1075 499 1075 q 635 1045 601 1075 q 668 958 668 1015 q 635 874 668 903 q 550 844 601 844 m 208 844 q 124 874 157 844 q 92 958 92 903 q 124 1046 92 1017 q 208 1075 157 1075 q 294 1045 260 1075 q 328 958 328 1015 q 294 874 328 903 q 208 844 260 844 z "},"ϋ":{"ha":833,"x_min":63,"x_max":792,"o":"m 413 -11 q 200 36 276 -11 q 93 165 124 83 q 63 349 63 247 l 63 768 l 306 768 l 306 338 q 317 246 306 281 q 354 196 329 211 q 417 181 379 181 q 515 232 482 181 q 549 418 549 283 q 535 590 549 506 q 497 768 522 674 l 743 768 q 770 651 760 708 q 786 537 781 593 q 792 425 792 481 q 697 93 792 197 q 413 -11 603 -11 m 588 844 q 502 874 535 844 q 469 958 469 903 q 503 1046 469 1017 q 588 1075 536 1075 q 672 1045 639 1075 q 706 958 706 1015 q 672 874 706 903 q 588 844 639 844 m 246 844 q 162 874 194 844 q 129 958 129 903 q 162 1046 129 1017 q 246 1075 194 1075 q 331 1045 297 1075 q 365 958 365 1015 q 331 874 365 903 q 246 844 297 844 z "},"ό":{"ha":833,"x_min":42,"x_max":792,"o":"m 424 -14 q 258 15 329 -14 q 138 98 186 44 q 66 226 90 151 q 42 390 42 300 q 82 592 42 504 q 203 731 122 681 q 408 782 285 782 q 615 732 529 782 q 747 590 701 682 q 792 374 792 499 q 769 216 792 288 q 700 93 746 144 q 585 14 654 42 q 424 -14 517 -14 m 417 181 q 497 206 467 181 q 542 277 528 232 q 557 382 557 322 q 542 489 557 443 q 497 560 528 535 q 417 586 465 586 q 310 527 342 586 q 278 382 278 468 q 292 276 278 321 q 338 206 307 231 q 417 181 369 181 m 353 864 q 364 918 358 888 q 375 982 369 949 q 385 1047 381 1015 q 392 1104 389 1079 l 610 1104 l 610 1088 q 577 1010 594 1050 q 540 928 560 969 q 493 842 519 886 l 353 842 l 353 864 z "},"ύ":{"ha":833,"x_min":63,"x_max":792,"o":"m 413 -11 q 200 36 276 -11 q 93 165 124 83 q 63 349 63 247 l 63 768 l 306 768 l 306 338 q 317 246 306 281 q 354 196 329 211 q 417 181 379 181 q 515 232 482 181 q 549 418 549 283 q 535 590 549 506 q 497 768 522 674 l 743 768 q 770 651 760 708 q 786 537 781 593 q 792 425 792 481 q 697 93 792 197 q 413 -11 603 -11 m 353 864 q 364 918 358 888 q 375 982 369 949 q 385 1047 381 1015 q 392 1104 389 1079 l 610 1104 l 610 1088 q 577 1010 594 1050 q 540 928 560 969 q 493 842 519 886 l 353 842 l 353 864 z "},"ώ":{"ha":833,"x_min":42,"x_max":792,"o":"m 263 -14 q 99 87 156 -14 q 42 386 42 188 q 48 512 42 450 q 68 637 54 574 q 103 768 82 700 l 293 768 q 258 649 272 711 q 237 517 244 588 q 229 363 229 447 q 240 230 229 274 q 283 186 251 186 q 322 222 311 186 q 332 346 332 257 l 332 531 l 501 531 l 501 346 q 511 222 501 257 q 547 186 521 186 q 592 229 579 186 q 604 365 604 272 q 597 509 604 439 q 576 644 590 579 q 539 768 561 708 l 731 768 q 777 578 763 674 q 792 383 792 482 q 777 210 792 285 q 734 86 763 136 q 665 11 706 36 q 571 -14 624 -14 q 471 24 507 -14 q 419 142 435 61 l 414 142 q 361 23 397 60 q 263 -14 325 -14 m 353 864 q 364 918 358 888 q 375 982 369 949 q 385 1047 381 1015 q 392 1104 389 1079 l 610 1104 l 610 1088 q 577 1010 594 1050 q 540 928 560 969 q 493 842 519 886 l 353 842 l 353 864 z "},"Ё":{"ha":833,"x_min":83,"x_max":750,"o":"m 83 0 l 83 992 l 750 992 l 750 783 l 321 783 l 321 614 l 732 614 l 732 406 l 321 406 l 321 208 l 750 208 l 750 0 l 83 0 m 586 1068 q 501 1097 533 1068 q 468 1182 468 1126 q 501 1269 468 1240 q 586 1299 535 1299 q 671 1269 638 1299 q 704 1182 704 1239 q 671 1097 704 1126 q 586 1068 638 1068 m 244 1068 q 160 1097 193 1068 q 128 1182 128 1126 q 160 1269 128 1240 q 244 1299 193 1299 q 330 1269 296 1299 q 364 1182 364 1239 q 330 1097 364 1126 q 244 1068 296 1068 z "},"Ђ":{"ha":833,"x_min":0,"x_max":778,"o":"m 513 -14 q 460 -10 482 -14 q 419 0 439 -6 l 419 179 q 444 170 428 174 q 481 167 460 167 q 531 176 510 167 q 563 210 551 186 q 574 278 574 235 l 574 350 q 540 433 574 410 q 439 457 507 457 l 349 457 l 349 0 l 143 0 l 143 807 l 0 807 l 0 992 l 560 992 l 560 807 l 349 807 l 349 640 l 468 640 q 699 569 621 640 q 778 369 778 497 l 778 268 q 709 58 778 131 q 513 -14 640 -14 z "},"Ѓ":{"ha":833,"x_min":104,"x_max":750,"o":"m 104 0 l 104 992 l 750 992 l 750 792 l 350 792 l 350 0 l 104 0 m 319 1085 q 369 1151 343 1117 q 419 1222 394 1186 q 463 1288 444 1257 l 735 1288 l 735 1274 q 665 1210 708 1249 q 574 1133 621 1172 q 490 1065 526 1094 l 319 1065 l 319 1085 z "},"Є":{"ha":833,"x_min":28,"x_max":789,"o":"m 497 -14 q 242 45 347 -14 q 83 215 138 104 q 28 483 28 326 q 84 761 28 644 q 247 942 140 878 q 506 1006 354 1006 q 654 990 579 1006 q 789 939 729 974 l 731 764 q 631 806 686 790 q 513 822 576 822 q 399 804 446 822 q 324 755 353 786 q 277 683 294 724 q 250 599 260 643 l 647 599 l 647 417 l 249 417 q 287 286 254 342 q 378 201 319 231 q 521 171 438 171 q 647 188 586 171 q 757 229 708 206 l 757 39 q 638 -1 708 13 q 497 -14 567 -14 z "},"Ѕ":{"ha":833,"x_min":83,"x_max":769,"o":"m 382 -14 q 235 0 304 -14 q 83 49 165 14 l 83 282 q 246 213 169 232 q 389 194 322 194 q 458 201 429 194 q 503 225 488 208 q 519 272 519 242 q 499 327 519 307 q 435 369 478 347 q 328 426 393 390 q 202 510 253 469 q 126 604 151 551 q 101 733 101 657 q 135 881 101 819 q 244 974 169 942 q 442 1007 319 1007 q 622 987 543 1007 q 765 935 701 967 l 689 742 q 568 785 625 774 q 465 797 511 797 q 406 790 432 797 q 365 767 379 783 q 350 721 350 751 q 365 677 350 696 q 420 635 379 658 q 538 571 461 611 q 653 502 600 539 q 738 412 706 465 q 769 275 769 358 q 751 168 769 219 q 690 76 733 117 q 571 10 646 35 q 382 -14 496 -14 z "},"І":{"ha":833,"x_min":97,"x_max":736,"o":"m 97 0 l 97 174 l 299 196 l 299 796 l 97 818 l 97 992 l 736 992 l 736 818 l 533 796 l 533 196 l 736 174 l 736 0 l 97 0 z "},"Ї":{"ha":833,"x_min":97,"x_max":736,"o":"m 97 0 l 97 174 l 299 196 l 299 796 l 97 818 l 97 992 l 736 992 l 736 818 l 533 796 l 533 196 l 736 174 l 736 0 l 97 0 m 586 1068 q 501 1097 533 1068 q 468 1182 468 1126 q 501 1269 468 1240 q 586 1299 535 1299 q 671 1269 638 1299 q 704 1182 704 1239 q 671 1097 704 1126 q 586 1068 638 1068 m 244 1068 q 160 1097 193 1068 q 128 1182 128 1126 q 160 1269 128 1240 q 244 1299 193 1299 q 330 1269 296 1299 q 364 1182 364 1239 q 330 1097 364 1126 q 244 1068 296 1068 z "},"Ј":{"ha":833,"x_min":90,"x_max":715,"o":"m 343 -14 q 226 -8 292 -14 q 90 10 160 -3 l 90 222 q 217 202 163 207 q 297 197 271 197 q 409 221 371 197 q 462 291 447 244 q 476 404 476 338 l 476 992 l 715 992 l 715 371 q 680 152 715 238 q 563 26 644 67 q 343 -14 482 -14 z "}}}
